<svg xmlns="http://www.w3.org/2000/svg" xmlns:xlink="http://www.w3.org/1999/xlink" width="485" viewBox="0 0 363.75 251.250001" height="335" preserveAspectRatio="xMidYMid meet"><defs><clipPath id="67a6e820fc"><path d="M 0.417969 0 L 363.085938 0 L 363.085938 250.503906 L 0.417969 250.503906 Z M 0.417969 0 " clip-rule="nonzero"></path></clipPath><clipPath id="ba68958e72"><path d="M 127 203 L 207 203 L 207 221.183594 L 127 221.183594 Z M 127 203 " clip-rule="nonzero"></path></clipPath><clipPath id="0b60007f95"><path d="M 248 93 L 325.246094 93 L 325.246094 110 L 248 110 Z M 248 93 " clip-rule="nonzero"></path></clipPath><clipPath id="e91737e023"><path d="M 248 92 L 325.246094 92 L 325.246094 110 L 248 110 Z M 248 92 " clip-rule="nonzero"></path></clipPath><clipPath id="f07059fc2a"><path d="M 38.105469 131 L 131 131 L 131 182 L 38.105469 182 Z M 38.105469 131 " clip-rule="nonzero"></path></clipPath><clipPath id="f2e46a7baf"><path d="M 38.105469 59 L 131 59 L 131 124 L 38.105469 124 Z M 38.105469 59 " clip-rule="nonzero"></path></clipPath><clipPath id="d904b1065d"><path d="M 71 29.007812 L 112 29.007812 L 112 61 L 71 61 Z M 71 29.007812 " clip-rule="nonzero"></path></clipPath><clipPath id="9cbbc7b6e2"><path d="M 187 185 L 325.246094 185 L 325.246094 221.183594 L 187 221.183594 Z M 187 185 " clip-rule="nonzero"></path></clipPath></defs><g clip-path="url(#67a6e820fc)"><path fill="#ffffff" d="M 0.417969 0 L 363.085938 0 L 363.085938 250.503906 L 0.417969 250.503906 Z M 0.417969 0 " fill-opacity="1" fill-rule="nonzero"></path><path fill="#f5f5f5" d="M 0.417969 0 L 363.085938 0 L 363.085938 250.503906 L 0.417969 250.503906 Z M 0.417969 0 " fill-opacity="1" fill-rule="nonzero"></path></g><path fill="#ffffff" d="M 268.214844 203.96875 L 65.898438 203.96875 C 62.445312 203.96875 59.644531 201.171875 59.644531 197.71875 L 59.644531 71.582031 C 59.644531 68.753906 61.9375 66.457031 64.769531 66.457031 L 269.34375 66.457031 C 272.171875 66.457031 274.46875 68.753906 274.46875 71.582031 L 274.46875 197.71875 C 274.46875 201.171875 271.667969 203.96875 268.214844 203.96875 " fill-opacity="1" fill-rule="nonzero"></path><path fill="#000000" d="M 59.875 194.355469 L 274.238281 194.355469 L 274.238281 71.582031 C 274.238281 68.882812 272.042969 66.6875 269.34375 66.6875 L 64.769531 66.6875 C 62.070312 66.6875 59.875 68.882812 59.875 71.582031 Z M 274.46875 194.816406 L 59.644531 194.816406 C 59.519531 194.816406 59.414062 194.714844 59.414062 194.585938 L 59.414062 71.582031 C 59.414062 68.628906 61.816406 66.226562 64.769531 66.226562 L 269.34375 66.226562 C 272.296875 66.226562 274.699219 68.628906 274.699219 71.582031 L 274.699219 194.585938 C 274.699219 194.714844 274.59375 194.816406 274.46875 194.816406 " fill-opacity="1" fill-rule="nonzero"></path><path fill="#000000" d="M 67.214844 187.019531 L 266.898438 187.019531 L 266.898438 74.308594 C 266.898438 74.152344 266.773438 74.027344 266.617188 74.027344 L 67.496094 74.027344 C 67.339844 74.027344 67.214844 74.152344 67.214844 74.308594 Z M 267.128906 187.480469 L 66.984375 187.480469 C 66.855469 187.480469 66.753906 187.378906 66.753906 187.25 L 66.753906 74.308594 C 66.753906 73.898438 67.085938 73.566406 67.496094 73.566406 L 266.617188 73.566406 C 267.027344 73.566406 267.359375 73.898438 267.359375 74.308594 L 267.359375 187.25 C 267.359375 187.378906 267.257812 187.480469 267.128906 187.480469 " fill-opacity="1" fill-rule="nonzero"></path><path fill="#000000" d="M 267.628906 204.160156 L 66.480469 204.160156 C 62.585938 204.160156 59.414062 200.988281 59.414062 197.09375 C 59.414062 196.964844 59.519531 196.863281 59.644531 196.863281 C 59.773438 196.863281 59.875 196.964844 59.875 197.09375 C 59.875 200.738281 62.839844 203.699219 66.480469 203.699219 L 267.628906 203.699219 C 271.273438 203.699219 274.238281 200.738281 274.238281 197.09375 C 274.238281 196.964844 274.339844 196.863281 274.46875 196.863281 C 274.59375 196.863281 274.699219 196.964844 274.699219 197.09375 C 274.699219 200.988281 271.527344 204.160156 267.628906 204.160156 " fill-opacity="1" fill-rule="nonzero"></path><g clip-path="url(#ba68958e72)"><path fill="#ffffff" d="M 201.925781 221.257812 L 132.1875 221.257812 C 129.789062 221.257812 127.84375 219.3125 127.84375 216.914062 L 127.84375 203.929688 L 206.269531 203.929688 L 206.269531 216.914062 C 206.269531 219.3125 204.324219 221.257812 201.925781 221.257812 " fill-opacity="1" fill-rule="nonzero"></path><path fill="#000000" d="M 128.074219 204.160156 L 128.074219 216.914062 C 128.074219 219.183594 129.917969 221.027344 132.1875 221.027344 L 201.925781 221.027344 C 204.195312 221.027344 206.039062 219.183594 206.039062 216.914062 L 206.039062 204.160156 Z M 201.925781 221.488281 L 132.1875 221.488281 C 129.664062 221.488281 127.613281 219.4375 127.613281 216.914062 L 127.613281 203.929688 C 127.613281 203.804688 127.714844 203.699219 127.84375 203.699219 L 206.269531 203.699219 C 206.394531 203.699219 206.5 203.804688 206.5 203.929688 L 206.5 216.914062 C 206.5 219.433594 204.449219 221.488281 201.925781 221.488281 " fill-opacity="1" fill-rule="nonzero"></path></g><g clip-path="url(#0b60007f95)"><path fill="#ffffff" d="M 325.152344 109.058594 L 248.550781 109.058594 L 248.550781 93.203125 L 325.152344 93.203125 L 325.152344 109.058594 " fill-opacity="1" fill-rule="nonzero"></path></g><g clip-path="url(#e91737e023)"><path fill="#000000" d="M 248.78125 108.828125 L 324.921875 108.828125 L 324.921875 93.433594 L 248.78125 93.433594 Z M 325.152344 109.289062 L 248.550781 109.289062 C 248.421875 109.289062 248.320312 109.1875 248.320312 109.058594 L 248.320312 93.203125 C 248.320312 93.078125 248.421875 92.972656 248.550781 92.972656 L 325.152344 92.972656 C 325.277344 92.972656 325.382812 93.078125 325.382812 93.203125 L 325.382812 109.058594 C 325.382812 109.1875 325.277344 109.289062 325.152344 109.289062 " fill-opacity="1" fill-rule="nonzero"></path></g><path fill="#88e64a" d="M 313.984375 96.601562 C 310.609375 102.664062 302.960938 104.84375 296.898438 101.46875 C 290.835938 98.09375 288.65625 90.441406 292.03125 84.378906 C 295.40625 78.316406 303.058594 76.140625 309.121094 79.515625 C 315.183594 82.890625 317.359375 90.539062 313.984375 96.601562 " fill-opacity="1" fill-rule="nonzero"></path><path fill="#ffffff" d="M 298.304688 99.222656 C 298.265625 99.222656 298.226562 99.214844 298.191406 99.195312 C 298.082031 99.132812 298.039062 98.992188 298.101562 98.882812 L 298.789062 97.644531 C 300.25 94.984375 301.714844 92.324219 303.179688 89.664062 C 304.628906 87.027344 306.078125 84.390625 307.527344 81.753906 C 307.585938 81.640625 307.726562 81.601562 307.839844 81.660156 C 307.949219 81.722656 307.992188 81.863281 307.929688 81.972656 C 306.480469 84.613281 305.03125 87.25 303.582031 89.886719 C 302.117188 92.546875 300.65625 95.207031 299.195312 97.867188 L 298.503906 99.105469 C 298.464844 99.179688 298.382812 99.222656 298.304688 99.222656 " fill-opacity="1" fill-rule="nonzero"></path><path fill="#000000" d="M 318.589844 80.625 C 318.195312 80.625 317.796875 80.5625 317.414062 80.425781 C 316.617188 80.144531 316.058594 79.589844 315.914062 78.945312 C 315.824219 78.527344 315.957031 78.042969 316.261719 77.707031 C 316.515625 77.425781 316.851562 77.289062 317.195312 77.328125 C 317.320312 77.34375 317.410156 77.457031 317.394531 77.585938 C 317.382812 77.710938 317.265625 77.800781 317.140625 77.785156 C 316.878906 77.753906 316.691406 77.917969 316.601562 78.015625 C 316.398438 78.242188 316.304688 78.570312 316.363281 78.84375 C 316.472656 79.332031 316.921875 79.761719 317.570312 79.992188 C 318.769531 80.417969 320.21875 80.015625 320.949219 79.058594 C 321.699219 78.066406 321.582031 76.496094 320.695312 75.703125 C 319.894531 74.976562 318.53125 74.832031 317.050781 75.308594 C 314.890625 76.003906 313.019531 77.644531 312.046875 79.691406 C 311.992188 79.808594 311.855469 79.855469 311.738281 79.800781 C 311.625 79.746094 311.574219 79.609375 311.628906 79.496094 C 312.660156 77.335938 314.632812 75.605469 316.910156 74.871094 C 317.695312 74.617188 319.667969 74.15625 321.003906 75.359375 C 322.078125 76.320312 322.21875 78.144531 321.316406 79.335938 C 320.691406 80.160156 319.652344 80.625 318.589844 80.625 " fill-opacity="1" fill-rule="nonzero"></path><path fill="#ffffff" d="M 310.226562 82.21875 C 309.359375 82.21875 308.496094 82 307.742188 81.582031 C 306.644531 80.972656 305.789062 79.9375 305.394531 78.746094 C 305.355469 78.625 305.421875 78.496094 305.542969 78.457031 C 305.660156 78.414062 305.792969 78.480469 305.832031 78.601562 C 306.191406 79.683594 306.96875 80.625 307.964844 81.179688 C 308.964844 81.734375 310.171875 81.898438 311.28125 81.636719 C 311.40625 81.605469 311.53125 81.679688 311.558594 81.804688 C 311.589844 81.929688 311.515625 82.054688 311.390625 82.082031 C 311.007812 82.175781 310.617188 82.21875 310.226562 82.21875 " fill-opacity="1" fill-rule="nonzero"></path><path fill="#000000" d="M 307.621094 77.476562 C 307.578125 77.476562 307.535156 77.464844 307.496094 77.441406 C 307.390625 77.371094 307.359375 77.226562 307.425781 77.121094 C 308.65625 75.214844 309.0625 72.761719 308.519531 70.558594 C 308.144531 69.050781 307.304688 67.96875 306.265625 67.664062 C 305.125 67.332031 303.726562 68.058594 303.28125 69.222656 C 302.847656 70.34375 303.269531 71.789062 304.265625 72.582031 C 304.800781 73.011719 305.402344 73.167969 305.875 73.003906 C 306.140625 72.910156 306.371094 72.660156 306.453125 72.367188 C 306.492188 72.238281 306.527344 71.992188 306.367188 71.789062 C 306.289062 71.6875 306.304688 71.542969 306.402344 71.460938 C 306.503906 71.382812 306.648438 71.398438 306.726562 71.5 C 306.941406 71.765625 307 72.128906 306.898438 72.492188 C 306.773438 72.925781 306.429688 73.296875 306.027344 73.4375 C 305.40625 73.65625 304.636719 73.472656 303.976562 72.945312 C 302.8125 72.015625 302.339844 70.378906 302.851562 69.054688 C 303.386719 67.660156 305.011719 66.820312 306.394531 67.222656 C 308.121094 67.726562 308.769531 69.644531 308.964844 70.449219 C 309.542969 72.769531 309.109375 75.359375 307.816406 77.371094 C 307.769531 77.4375 307.695312 77.476562 307.621094 77.476562 " fill-opacity="1" fill-rule="nonzero"></path><path fill="#000000" d="M 316.800781 87.90625 C 316.675781 87.90625 316.574219 87.808594 316.570312 87.6875 C 316.5625 87.558594 316.660156 87.449219 316.789062 87.441406 L 319.867188 87.28125 C 319.988281 87.273438 320.105469 87.371094 320.109375 87.5 C 320.117188 87.625 320.019531 87.734375 319.890625 87.742188 L 316.8125 87.90625 C 316.808594 87.90625 316.804688 87.90625 316.800781 87.90625 " fill-opacity="1" fill-rule="nonzero"></path><path fill="#000000" d="M 317.449219 98.347656 C 317.414062 98.347656 317.378906 98.339844 317.347656 98.324219 L 315.078125 97.210938 C 314.964844 97.152344 314.917969 97.015625 314.972656 96.902344 C 315.027344 96.789062 315.164062 96.738281 315.28125 96.796875 L 317.550781 97.910156 C 317.664062 97.96875 317.710938 98.105469 317.65625 98.21875 C 317.617188 98.300781 317.535156 98.347656 317.449219 98.347656 " fill-opacity="1" fill-rule="nonzero"></path><path fill="#000000" d="M 307.3125 107.15625 C 307.222656 107.15625 307.140625 107.105469 307.101562 107.019531 L 305.976562 104.511719 C 305.921875 104.398438 305.972656 104.257812 306.089844 104.207031 C 306.207031 104.15625 306.34375 104.207031 306.394531 104.324219 L 307.523438 106.832031 C 307.574219 106.945312 307.523438 107.085938 307.40625 107.136719 C 307.375 107.148438 307.34375 107.15625 307.3125 107.15625 " fill-opacity="1" fill-rule="nonzero"></path><path fill="#000000" d="M 298.140625 77.515625 C 298.058594 77.515625 297.980469 77.472656 297.9375 77.394531 L 296.453125 74.691406 C 296.390625 74.578125 296.433594 74.4375 296.546875 74.378906 C 296.65625 74.316406 296.796875 74.359375 296.859375 74.46875 L 298.34375 77.171875 C 298.40625 77.285156 298.363281 77.425781 298.25 77.484375 C 298.214844 77.507812 298.179688 77.515625 298.140625 77.515625 " fill-opacity="1" fill-rule="nonzero"></path><path fill="#000000" d="M 291.0625 83.804688 C 291.019531 83.804688 290.980469 83.792969 290.941406 83.769531 L 288.796875 82.425781 C 288.6875 82.359375 288.65625 82.21875 288.722656 82.109375 C 288.792969 82.003906 288.933594 81.96875 289.042969 82.035156 L 291.183594 83.378906 C 291.292969 83.445312 291.324219 83.589844 291.257812 83.695312 C 291.214844 83.765625 291.140625 83.804688 291.0625 83.804688 " fill-opacity="1" fill-rule="nonzero"></path><path fill="#000000" d="M 286.773438 95.71875 C 286.65625 95.71875 286.558594 95.636719 286.542969 95.519531 C 286.527344 95.394531 286.617188 95.277344 286.742188 95.261719 L 289.464844 94.898438 C 289.59375 94.878906 289.707031 94.96875 289.726562 95.09375 C 289.742188 95.222656 289.652344 95.335938 289.527344 95.355469 L 286.800781 95.71875 C 286.792969 95.71875 286.78125 95.71875 286.773438 95.71875 " fill-opacity="1" fill-rule="nonzero"></path><path fill="#000000" d="M 244.738281 116.953125 C 235.890625 116.953125 228.6875 109.75 228.6875 100.902344 C 228.6875 92.050781 235.890625 84.851562 244.738281 84.851562 C 249.683594 84.851562 254.277344 87.078125 257.347656 90.964844 C 257.425781 91.066406 257.40625 91.210938 257.308594 91.289062 C 257.207031 91.367188 257.0625 91.351562 256.984375 91.25 C 254.003906 87.476562 249.542969 85.3125 244.738281 85.3125 C 236.144531 85.3125 229.148438 92.304688 229.148438 100.902344 C 229.148438 109.496094 236.144531 116.492188 244.738281 116.492188 C 249.078125 116.492188 253.109375 114.75 256.085938 111.589844 C 256.171875 111.5 256.320312 111.492188 256.410156 111.582031 C 256.503906 111.667969 256.507812 111.8125 256.421875 111.90625 C 253.355469 115.160156 249.207031 116.953125 244.738281 116.953125 " fill-opacity="1" fill-rule="nonzero"></path><path fill="#000000" d="M 228.8125 155.34375 C 228.757812 155.34375 228.699219 155.324219 228.65625 155.28125 L 171.160156 101.289062 L 154.140625 137.894531 C 154.085938 138.011719 153.949219 138.058594 153.832031 138.003906 C 153.71875 137.953125 153.667969 137.816406 153.722656 137.699219 L 170.875 100.804688 C 170.90625 100.738281 170.96875 100.6875 171.042969 100.675781 C 171.113281 100.660156 171.1875 100.683594 171.242188 100.734375 L 228.648438 154.644531 L 234.570312 114.097656 C 234.589844 113.972656 234.707031 113.882812 234.832031 113.902344 C 234.957031 113.921875 235.046875 114.039062 235.027344 114.164062 L 229.042969 155.148438 C 229.027344 155.230469 228.96875 155.304688 228.890625 155.332031 C 228.863281 155.339844 228.839844 155.34375 228.8125 155.34375 " fill-opacity="1" fill-rule="nonzero"></path><path fill="#ffffff" d="M 238.996094 114.035156 C 238.996094 116.351562 237.117188 118.230469 234.800781 118.230469 C 232.480469 118.230469 230.605469 116.351562 230.605469 114.035156 C 230.605469 111.71875 232.480469 109.839844 234.800781 109.839844 C 237.117188 109.839844 238.996094 111.71875 238.996094 114.035156 " fill-opacity="1" fill-rule="nonzero"></path><path fill="#000000" d="M 234.800781 110.070312 C 232.613281 110.070312 230.832031 111.851562 230.832031 114.035156 C 230.832031 116.222656 232.613281 118 234.800781 118 C 236.984375 118 238.765625 116.222656 238.765625 114.035156 C 238.765625 111.851562 236.984375 110.070312 234.800781 110.070312 Z M 234.800781 118.460938 C 232.359375 118.460938 230.375 116.476562 230.375 114.035156 C 230.375 111.59375 232.359375 109.609375 234.800781 109.609375 C 237.238281 109.609375 239.222656 111.59375 239.222656 114.035156 C 239.222656 116.476562 237.238281 118.460938 234.800781 118.460938 " fill-opacity="1" fill-rule="nonzero"></path><path fill="#1b4200" d="M 236.8125 114.035156 C 236.8125 115.148438 235.910156 116.046875 234.800781 116.046875 C 233.6875 116.046875 232.785156 115.148438 232.785156 114.035156 C 232.785156 112.925781 233.6875 112.023438 234.800781 112.023438 C 235.910156 112.023438 236.8125 112.925781 236.8125 114.035156 " fill-opacity="1" fill-rule="nonzero"></path><path fill="#ffffff" d="M 234.382812 155.113281 C 234.382812 158.402344 231.71875 161.066406 228.433594 161.066406 C 225.144531 161.066406 222.480469 158.402344 222.480469 155.113281 C 222.480469 151.828125 225.144531 149.164062 228.433594 149.164062 C 231.71875 149.164062 234.382812 151.828125 234.382812 155.113281 " fill-opacity="1" fill-rule="nonzero"></path><path fill="#000000" d="M 228.433594 149.394531 C 225.277344 149.394531 222.710938 151.960938 222.710938 155.113281 C 222.710938 158.269531 225.277344 160.835938 228.433594 160.835938 C 231.585938 160.835938 234.152344 158.269531 234.152344 155.113281 C 234.152344 151.960938 231.585938 149.394531 228.433594 149.394531 Z M 228.433594 161.296875 C 225.023438 161.296875 222.25 158.523438 222.25 155.113281 C 222.25 151.707031 225.023438 148.933594 228.433594 148.933594 C 231.839844 148.933594 234.613281 151.707031 234.613281 155.113281 C 234.613281 158.523438 231.839844 161.296875 228.433594 161.296875 " fill-opacity="1" fill-rule="nonzero"></path><path fill="#1b4200" d="M 231.285156 155.113281 C 231.285156 156.691406 230.007812 157.96875 228.433594 157.96875 C 226.855469 157.96875 225.578125 156.691406 225.578125 155.113281 C 225.578125 153.535156 226.855469 152.257812 228.433594 152.257812 C 230.007812 152.257812 231.285156 153.535156 231.285156 155.113281 " fill-opacity="1" fill-rule="nonzero"></path><path fill="#ffffff" d="M 180.53125 101.132812 C 180.53125 106.066406 176.53125 110.070312 171.59375 110.070312 C 166.660156 110.070312 162.65625 106.066406 162.65625 101.132812 C 162.65625 96.195312 166.660156 92.195312 171.59375 92.195312 C 176.53125 92.195312 180.53125 96.195312 180.53125 101.132812 " fill-opacity="1" fill-rule="nonzero"></path><path fill="#000000" d="M 171.59375 92.425781 C 166.792969 92.425781 162.886719 96.332031 162.886719 101.132812 C 162.886719 105.933594 166.792969 109.835938 171.59375 109.835938 C 176.394531 109.835938 180.300781 105.933594 180.300781 101.132812 C 180.300781 96.332031 176.394531 92.425781 171.59375 92.425781 Z M 171.59375 110.300781 C 166.539062 110.300781 162.425781 106.1875 162.425781 101.132812 C 162.425781 96.078125 166.539062 91.964844 171.59375 91.964844 C 176.648438 91.964844 180.761719 96.078125 180.761719 101.132812 C 180.761719 106.1875 176.648438 110.300781 171.59375 110.300781 " fill-opacity="1" fill-rule="nonzero"></path><path fill="#1b4200" d="M 175.882812 101.132812 C 175.882812 103.5 173.960938 105.417969 171.59375 105.417969 C 169.226562 105.417969 167.308594 103.5 167.308594 101.132812 C 167.308594 98.765625 169.226562 96.84375 171.59375 96.84375 C 173.960938 96.84375 175.882812 98.765625 175.882812 101.132812 " fill-opacity="1" fill-rule="nonzero"></path><path fill="#ffffff" d="M 162 154.085938 L 145.609375 154.085938 L 145.609375 140.117188 L 162 140.117188 L 162 154.085938 " fill-opacity="1" fill-rule="nonzero"></path><path fill="#000000" d="M 145.839844 153.855469 L 161.773438 153.855469 L 161.773438 140.347656 L 145.839844 140.347656 Z M 162 154.316406 L 145.609375 154.316406 C 145.480469 154.316406 145.378906 154.214844 145.378906 154.085938 L 145.378906 140.117188 C 145.378906 139.988281 145.480469 139.886719 145.609375 139.886719 L 162 139.886719 C 162.128906 139.886719 162.234375 139.988281 162.234375 140.117188 L 162.234375 154.085938 C 162.234375 154.214844 162.128906 154.316406 162 154.316406 " fill-opacity="1" fill-rule="nonzero"></path><path fill="#ffffff" d="M 164.007812 181.15625 L 143.601562 181.15625 L 143.601562 158.726562 L 164.007812 158.726562 L 164.007812 181.15625 " fill-opacity="1" fill-rule="nonzero"></path><path fill="#000000" d="M 143.832031 180.925781 L 163.777344 180.925781 L 163.777344 158.957031 L 143.832031 158.957031 Z M 164.007812 181.386719 L 143.601562 181.386719 C 143.476562 181.386719 143.371094 181.285156 143.371094 181.15625 L 143.371094 158.726562 C 143.371094 158.597656 143.476562 158.496094 143.601562 158.496094 L 164.007812 158.496094 C 164.136719 158.496094 164.238281 158.597656 164.238281 158.726562 L 164.238281 181.15625 C 164.238281 181.285156 164.136719 181.386719 164.007812 181.386719 " fill-opacity="1" fill-rule="nonzero"></path><path fill="#000000" d="M 158.914062 138.027344 L 148.699219 138.027344 C 148.570312 138.027344 148.46875 137.925781 148.46875 137.796875 C 148.46875 137.671875 148.570312 137.566406 148.699219 137.566406 L 158.914062 137.566406 C 159.039062 137.566406 159.144531 137.671875 159.144531 137.796875 C 159.144531 137.925781 159.039062 138.027344 158.914062 138.027344 " fill-opacity="1" fill-rule="nonzero"></path><path fill="#000000" d="M 158.914062 156.636719 L 148.699219 156.636719 C 148.570312 156.636719 148.46875 156.535156 148.46875 156.40625 C 148.46875 156.277344 148.570312 156.175781 148.699219 156.175781 L 158.914062 156.175781 C 159.039062 156.175781 159.144531 156.277344 159.144531 156.40625 C 159.144531 156.535156 159.039062 156.636719 158.914062 156.636719 " fill-opacity="1" fill-rule="nonzero"></path><g clip-path="url(#f07059fc2a)"><path fill="#1b4200" d="M 130.425781 181.15625 L 38.097656 181.15625 L 38.097656 131.128906 L 130.425781 131.128906 L 130.425781 181.15625 " fill-opacity="1" fill-rule="nonzero"></path></g><path fill="#ffffff" d="M 115.523438 139.726562 L 95.519531 139.726562 C 95.328125 139.726562 95.175781 139.574219 95.175781 139.382812 C 95.175781 139.191406 95.328125 139.035156 95.519531 139.035156 L 115.523438 139.035156 C 115.714844 139.035156 115.871094 139.191406 115.871094 139.382812 C 115.871094 139.574219 115.714844 139.726562 115.523438 139.726562 " fill-opacity="1" fill-rule="nonzero"></path><path fill="#ffffff" d="M 91.539062 139.726562 L 73.058594 139.726562 C 72.867188 139.726562 72.710938 139.574219 72.710938 139.382812 C 72.710938 139.191406 72.867188 139.035156 73.058594 139.035156 L 91.539062 139.035156 C 91.730469 139.035156 91.886719 139.191406 91.886719 139.382812 C 91.886719 139.574219 91.730469 139.726562 91.539062 139.726562 " fill-opacity="1" fill-rule="nonzero"></path><path fill="#ffffff" d="M 120.304688 146.265625 L 107.234375 146.265625 C 107.042969 146.265625 106.890625 146.109375 106.890625 145.917969 C 106.890625 145.730469 107.042969 145.574219 107.234375 145.574219 L 120.304688 145.574219 C 120.496094 145.574219 120.652344 145.730469 120.652344 145.917969 C 120.652344 146.109375 120.496094 146.265625 120.304688 146.265625 " fill-opacity="1" fill-rule="nonzero"></path><path fill="#ffffff" d="M 103.144531 146.265625 L 73.058594 146.265625 C 72.867188 146.265625 72.710938 146.109375 72.710938 145.917969 C 72.710938 145.730469 72.867188 145.574219 73.058594 145.574219 L 103.144531 145.574219 C 103.335938 145.574219 103.492188 145.730469 103.492188 145.917969 C 103.492188 146.109375 103.335938 146.265625 103.144531 146.265625 " fill-opacity="1" fill-rule="nonzero"></path><path fill="#ffffff" d="M 110.21875 152.800781 L 99.277344 152.800781 C 99.085938 152.800781 98.933594 152.648438 98.933594 152.457031 C 98.933594 152.265625 99.085938 152.109375 99.277344 152.109375 L 110.21875 152.109375 C 110.410156 152.109375 110.566406 152.265625 110.566406 152.457031 C 110.566406 152.648438 110.410156 152.800781 110.21875 152.800781 " fill-opacity="1" fill-rule="nonzero"></path><path fill="#ffffff" d="M 95.078125 152.800781 L 78.699219 152.800781 C 78.507812 152.800781 78.351562 152.648438 78.351562 152.457031 C 78.351562 152.265625 78.507812 152.109375 78.699219 152.109375 L 95.078125 152.109375 C 95.269531 152.109375 95.421875 152.265625 95.421875 152.457031 C 95.421875 152.648438 95.269531 152.800781 95.078125 152.800781 " fill-opacity="1" fill-rule="nonzero"></path><path fill="#ffffff" d="M 107.621094 159.339844 L 99.910156 159.339844 C 99.71875 159.339844 99.5625 159.183594 99.5625 158.992188 C 99.5625 158.800781 99.71875 158.648438 99.910156 158.648438 L 107.621094 158.648438 C 107.8125 158.648438 107.96875 158.800781 107.96875 158.992188 C 107.96875 159.183594 107.8125 159.339844 107.621094 159.339844 " fill-opacity="1" fill-rule="nonzero"></path><path fill="#ffffff" d="M 96.679688 159.339844 L 78.699219 159.339844 C 78.507812 159.339844 78.351562 159.183594 78.351562 158.992188 C 78.351562 158.800781 78.507812 158.648438 78.699219 158.648438 L 96.679688 158.648438 C 96.871094 158.648438 97.027344 158.800781 97.027344 158.992188 C 97.027344 159.183594 96.871094 159.339844 96.679688 159.339844 " fill-opacity="1" fill-rule="nonzero"></path><path fill="#ffffff" d="M 120.304688 165.875 L 109.003906 165.875 C 108.8125 165.875 108.65625 165.722656 108.65625 165.53125 C 108.65625 165.339844 108.8125 165.183594 109.003906 165.183594 L 120.304688 165.183594 C 120.496094 165.183594 120.652344 165.339844 120.652344 165.53125 C 120.652344 165.722656 120.496094 165.875 120.304688 165.875 " fill-opacity="1" fill-rule="nonzero"></path><path fill="#ffffff" d="M 105.523438 165.875 L 85.128906 165.875 C 84.9375 165.875 84.785156 165.722656 84.785156 165.53125 C 84.785156 165.339844 84.9375 165.183594 85.128906 165.183594 L 105.523438 165.183594 C 105.714844 165.183594 105.867188 165.339844 105.867188 165.53125 C 105.867188 165.722656 105.714844 165.875 105.523438 165.875 " fill-opacity="1" fill-rule="nonzero"></path><path fill="#ffffff" d="M 120.304688 172.414062 L 90.4375 172.414062 C 90.246094 172.414062 90.089844 172.257812 90.089844 172.066406 C 90.089844 171.875 90.246094 171.722656 90.4375 171.722656 L 120.304688 171.722656 C 120.496094 171.722656 120.652344 171.875 120.652344 172.066406 C 120.652344 172.257812 120.496094 172.414062 120.304688 172.414062 " fill-opacity="1" fill-rule="nonzero"></path><path fill="#ffffff" d="M 87.691406 172.414062 L 73.058594 172.414062 C 72.867188 172.414062 72.710938 172.257812 72.710938 172.066406 C 72.710938 171.875 72.867188 171.722656 73.058594 171.722656 L 87.691406 171.722656 C 87.878906 171.722656 88.035156 171.875 88.035156 172.066406 C 88.035156 172.257812 87.878906 172.414062 87.691406 172.414062 " fill-opacity="1" fill-rule="nonzero"></path><path fill="#ffffff" d="M 59.675781 139.726562 L 51.988281 139.726562 C 51.796875 139.726562 51.644531 139.574219 51.644531 139.382812 C 51.644531 139.191406 51.796875 139.035156 51.988281 139.035156 L 59.675781 139.035156 C 59.867188 139.035156 60.019531 139.191406 60.019531 139.382812 C 60.019531 139.574219 59.867188 139.726562 59.675781 139.726562 " fill-opacity="1" fill-rule="nonzero"></path><path fill="#ffffff" d="M 50.460938 139.726562 L 43.359375 139.726562 C 43.167969 139.726562 43.011719 139.574219 43.011719 139.382812 C 43.011719 139.191406 43.167969 139.035156 43.359375 139.035156 L 50.460938 139.035156 C 50.652344 139.035156 50.804688 139.191406 50.804688 139.382812 C 50.804688 139.574219 50.652344 139.726562 50.460938 139.726562 " fill-opacity="1" fill-rule="nonzero"></path><path fill="#ffffff" d="M 61.511719 146.265625 L 56.488281 146.265625 C 56.300781 146.265625 56.144531 146.109375 56.144531 145.917969 C 56.144531 145.730469 56.300781 145.574219 56.488281 145.574219 L 61.511719 145.574219 C 61.703125 145.574219 61.855469 145.730469 61.855469 145.917969 C 61.855469 146.109375 61.703125 146.265625 61.511719 146.265625 " fill-opacity="1" fill-rule="nonzero"></path><path fill="#ffffff" d="M 54.917969 146.265625 L 43.359375 146.265625 C 43.167969 146.265625 43.011719 146.109375 43.011719 145.917969 C 43.011719 145.730469 43.167969 145.574219 43.359375 145.574219 L 54.917969 145.574219 C 55.109375 145.574219 55.265625 145.730469 55.265625 145.917969 C 55.265625 146.109375 55.109375 146.265625 54.917969 146.265625 " fill-opacity="1" fill-rule="nonzero"></path><path fill="#ffffff" d="M 57.636719 152.800781 L 53.433594 152.800781 C 53.242188 152.800781 53.085938 152.648438 53.085938 152.457031 C 53.085938 152.265625 53.242188 152.109375 53.433594 152.109375 L 57.636719 152.109375 C 57.828125 152.109375 57.980469 152.265625 57.980469 152.457031 C 57.980469 152.648438 57.828125 152.800781 57.636719 152.800781 " fill-opacity="1" fill-rule="nonzero"></path><path fill="#ffffff" d="M 51.820312 152.800781 L 45.527344 152.800781 C 45.335938 152.800781 45.179688 152.648438 45.179688 152.457031 C 45.179688 152.265625 45.335938 152.109375 45.527344 152.109375 L 51.820312 152.109375 C 52.007812 152.109375 52.164062 152.265625 52.164062 152.457031 C 52.164062 152.648438 52.007812 152.800781 51.820312 152.800781 " fill-opacity="1" fill-rule="nonzero"></path><path fill="#ffffff" d="M 56.636719 159.339844 L 53.675781 159.339844 C 53.484375 159.339844 53.328125 159.183594 53.328125 158.992188 C 53.328125 158.800781 53.484375 158.648438 53.675781 158.648438 L 56.636719 158.648438 C 56.828125 158.648438 56.984375 158.800781 56.984375 158.992188 C 56.984375 159.183594 56.828125 159.339844 56.636719 159.339844 " fill-opacity="1" fill-rule="nonzero"></path><path fill="#ffffff" d="M 52.433594 159.339844 L 45.527344 159.339844 C 45.335938 159.339844 45.179688 159.183594 45.179688 158.992188 C 45.179688 158.800781 45.335938 158.648438 45.527344 158.648438 L 52.433594 158.648438 C 52.625 158.648438 52.78125 158.800781 52.78125 158.992188 C 52.78125 159.183594 52.625 159.339844 52.433594 159.339844 " fill-opacity="1" fill-rule="nonzero"></path><path fill="#ffffff" d="M 61.511719 165.875 L 57.167969 165.875 C 56.976562 165.875 56.824219 165.722656 56.824219 165.53125 C 56.824219 165.339844 56.976562 165.183594 57.167969 165.183594 L 61.511719 165.183594 C 61.703125 165.183594 61.855469 165.339844 61.855469 165.53125 C 61.855469 165.722656 61.703125 165.875 61.511719 165.875 " fill-opacity="1" fill-rule="nonzero"></path><path fill="#ffffff" d="M 55.832031 165.875 L 47.996094 165.875 C 47.804688 165.875 47.652344 165.722656 47.652344 165.53125 C 47.652344 165.339844 47.804688 165.183594 47.996094 165.183594 L 55.832031 165.183594 C 56.023438 165.183594 56.175781 165.339844 56.175781 165.53125 C 56.175781 165.722656 56.023438 165.875 55.832031 165.875 " fill-opacity="1" fill-rule="nonzero"></path><path fill="#ffffff" d="M 61.511719 172.414062 L 50.035156 172.414062 C 49.84375 172.414062 49.691406 172.257812 49.691406 172.066406 C 49.691406 171.875 49.84375 171.722656 50.035156 171.722656 L 61.511719 171.722656 C 61.703125 171.722656 61.855469 171.875 61.855469 172.066406 C 61.855469 172.257812 61.703125 172.414062 61.511719 172.414062 " fill-opacity="1" fill-rule="nonzero"></path><path fill="#ffffff" d="M 48.980469 172.414062 L 43.359375 172.414062 C 43.167969 172.414062 43.011719 172.257812 43.011719 172.066406 C 43.011719 171.875 43.167969 171.722656 43.359375 171.722656 L 48.980469 171.722656 C 49.171875 171.722656 49.328125 171.875 49.328125 172.066406 C 49.328125 172.257812 49.171875 172.414062 48.980469 172.414062 " fill-opacity="1" fill-rule="nonzero"></path><path fill="#ffffff" d="M 66.515625 172.414062 C 66.324219 172.414062 66.167969 172.257812 66.167969 172.066406 L 66.167969 139.492188 C 66.167969 139.300781 66.324219 139.144531 66.515625 139.144531 C 66.707031 139.144531 66.859375 139.300781 66.859375 139.492188 L 66.859375 172.066406 C 66.859375 172.257812 66.707031 172.414062 66.515625 172.414062 " fill-opacity="1" fill-rule="nonzero"></path><g clip-path="url(#f2e46a7baf)"><path fill="#1b4200" d="M 38.097656 123.769531 L 130.210938 123.769531 L 130.210938 59.128906 L 38.097656 59.128906 L 38.097656 123.769531 " fill-opacity="1" fill-rule="nonzero"></path></g><path fill="#ffffff" d="M 100.296875 72.589844 C 100.296875 72.589844 133.089844 102.0625 137.25 107.898438 C 141.40625 113.738281 141.914062 122.109375 129.636719 121.140625 C 117.363281 120.171875 97.328125 103.585938 97.328125 103.585938 L 100.296875 72.589844 " fill-opacity="1" fill-rule="nonzero"></path><path fill="#000000" d="M 100.296875 72.589844 L 97.328125 103.585938 C 97.328125 103.585938 117.363281 120.171875 129.636719 121.140625 C 130.296875 121.195312 130.917969 121.21875 131.503906 121.21875 C 141.847656 121.21875 141.183594 113.421875 137.25 107.898438 C 133.089844 102.0625 100.296875 72.589844 100.296875 72.589844 Z M 100.667969 73.542969 C 105.390625 77.804688 133.121094 102.902344 136.875 108.167969 C 139.296875 111.570312 140.082031 115.285156 138.875 117.628906 C 137.820312 119.675781 135.269531 120.757812 131.503906 120.757812 C 130.925781 120.757812 130.308594 120.734375 129.675781 120.683594 C 118.3125 119.785156 99.875 105.058594 97.808594 103.382812 L 100.667969 73.542969 " fill-opacity="1" fill-rule="nonzero"></path><path fill="#88e64a" d="M 62.890625 69.367188 C 62.890625 69.367188 72.84375 66.800781 81.109375 67.347656 C 89.375 67.894531 100.296875 72.589844 100.296875 72.589844 C 100.296875 72.589844 104.957031 88.960938 106.410156 99.136719 C 107.011719 103.332031 105.359375 107.582031 101.949219 110.097656 C 101.433594 110.476562 100.894531 110.808594 100.339844 111.054688 L 97.785156 123.769531 L 57.011719 123.769531 L 61.132812 109.527344 L 62.890625 69.367188 " fill-opacity="1" fill-rule="nonzero"></path><path fill="#000000" d="M 104.320312 125.796875 L 122.144531 125.796875 C 123.199219 125.796875 124.148438 125.152344 124.542969 124.175781 L 140.585938 84.179688 C 141.265625 82.480469 140.015625 80.632812 138.1875 80.632812 L 121.894531 80.632812 C 119.914062 80.632812 118.132812 81.835938 117.398438 83.671875 L 101.921875 122.25 C 101.242188 123.949219 102.492188 125.796875 104.320312 125.796875 " fill-opacity="1" fill-rule="nonzero"></path><path fill="#ffffff" d="M 128.386719 114.0625 L 127.339844 117.195312 C 127.339844 117.195312 130.496094 117.175781 132.265625 113.265625 C 133.441406 110.667969 135.578125 105.398438 136.878906 102.152344 C 137.570312 100.429688 137.144531 98.460938 135.796875 97.183594 C 133.957031 95.445312 131.363281 93.269531 129.636719 92.992188 C 126.714844 92.523438 129.023438 95.933594 130.671875 97.726562 C 130.671875 97.726562 127.335938 94.816406 126.152344 96.464844 C 124.375 98.9375 130.695312 100.632812 131.003906 104.496094 C 131.003906 104.496094 125.285156 98.183594 124.328125 100.496094 C 123.398438 102.734375 127.722656 105.011719 128.679688 107.898438 C 128.679688 107.898438 125.285156 103.363281 123.503906 105.074219 C 121.847656 106.664062 127.871094 111.320312 128.386719 114.0625 " fill-opacity="1" fill-rule="nonzero"></path><path fill="#000000" d="M 124.453125 104.917969 C 124.148438 104.917969 123.886719 105.023438 123.664062 105.238281 C 122.875 105.996094 124.398438 107.871094 125.875 109.6875 C 127.105469 111.207031 128.378906 112.777344 128.613281 114.019531 C 128.621094 114.058594 128.617188 114.097656 128.605469 114.132812 L 127.671875 116.933594 C 128.503906 116.8125 130.6875 116.199219 132.058594 113.171875 C 133.25 110.539062 135.457031 105.085938 136.664062 102.066406 C 137.328125 100.417969 136.921875 98.566406 135.636719 97.351562 C 133.800781 95.613281 131.261719 93.484375 129.601562 93.21875 C 129.191406 93.152344 128.675781 93.136719 128.523438 93.414062 C 128.175781 94.0625 129.429688 96.035156 130.84375 97.570312 C 130.925781 97.660156 130.921875 97.796875 130.839844 97.886719 C 130.753906 97.972656 130.613281 97.980469 130.519531 97.898438 C 130.5 97.882812 128.371094 96.039062 127.03125 96.199219 C 126.734375 96.234375 126.507812 96.363281 126.339844 96.601562 C 125.589844 97.648438 126.503906 98.53125 128.0625 99.886719 C 129.476562 101.113281 131.074219 102.503906 131.234375 104.480469 C 131.242188 104.578125 131.183594 104.667969 131.09375 104.707031 C 131.003906 104.75 130.898438 104.726562 130.832031 104.652344 C 129.648438 103.34375 126.277344 99.992188 124.945312 100.226562 C 124.757812 100.261719 124.625 100.375 124.539062 100.585938 C 124.066406 101.726562 125.164062 102.925781 126.4375 104.316406 C 127.4375 105.410156 128.472656 106.539062 128.898438 107.828125 C 128.933594 107.933594 128.886719 108.050781 128.785156 108.105469 C 128.683594 108.15625 128.5625 108.128906 128.496094 108.039062 C 128.472656 108.007812 126.246094 105.058594 124.566406 104.921875 C 124.527344 104.917969 124.488281 104.917969 124.453125 104.917969 Z M 127.339844 117.425781 C 127.265625 117.425781 127.195312 117.390625 127.152344 117.332031 C 127.109375 117.273438 127.097656 117.195312 127.121094 117.125 L 128.148438 114.046875 C 127.90625 112.925781 126.691406 111.425781 125.515625 109.976562 C 123.835938 107.910156 122.25 105.957031 123.34375 104.90625 C 123.691406 104.574219 124.117188 104.421875 124.605469 104.460938 C 125.53125 104.539062 126.554688 105.304688 127.363281 106.082031 C 126.972656 105.585938 126.53125 105.101562 126.097656 104.628906 C 124.777344 103.183594 123.527344 101.820312 124.113281 100.410156 C 124.261719 100.054688 124.523438 99.835938 124.867188 99.773438 C 126.367188 99.507812 129.355469 102.429688 130.625 103.753906 C 130.1875 102.34375 128.90625 101.230469 127.761719 100.234375 C 126.304688 98.96875 124.929688 97.773438 125.964844 96.332031 C 126.210938 95.988281 126.550781 95.792969 126.976562 95.742188 C 127.722656 95.652344 128.628906 96.058594 129.375 96.503906 C 128.570312 95.421875 127.703125 93.96875 128.117188 93.195312 C 128.339844 92.78125 128.867188 92.636719 129.675781 92.765625 C 131.449219 93.046875 134.070312 95.234375 135.953125 97.015625 C 137.378906 98.363281 137.824219 100.414062 137.09375 102.238281 C 135.882812 105.261719 133.671875 110.722656 132.476562 113.359375 C 130.667969 117.359375 127.476562 117.425781 127.339844 117.425781 " fill-opacity="1" fill-rule="nonzero"></path><path fill="#000000" d="M 133.976562 100.886719 C 133.921875 100.886719 133.867188 100.863281 133.824219 100.828125 L 130.519531 97.898438 C 130.425781 97.8125 130.417969 97.667969 130.5 97.574219 C 130.585938 97.476562 130.730469 97.46875 130.824219 97.554688 L 134.128906 100.480469 C 134.222656 100.566406 134.234375 100.710938 134.148438 100.808594 C 134.101562 100.859375 134.039062 100.886719 133.976562 100.886719 " fill-opacity="1" fill-rule="nonzero"></path><path fill="#ffffff" d="M 62.890625 69.367188 L 72.105469 105.824219 C 72.105469 105.824219 84.621094 91.9375 93.09375 90.15625 C 101.5625 88.375 111.886719 92.15625 111.539062 94.828125 C 111.191406 97.503906 105.777344 94.347656 102.503906 95.457031 C 102.503906 95.457031 104.125 95.734375 105.171875 96.300781 C 106.429688 96.984375 106.410156 99.136719 104.667969 99.386719 C 104.667969 99.386719 105.609375 102.464844 102.035156 102.339844 C 102.035156 102.339844 102.695312 106.207031 98.429688 105.574219 C 98.429688 105.574219 96.191406 105.992188 94.738281 105.335938 C 94.738281 105.335938 80.53125 127.941406 70.195312 128.398438 C 59.859375 128.855469 53.972656 103.792969 52.925781 94.257812 C 51.875 84.722656 52.515625 71.726562 62.890625 69.367188 " fill-opacity="1" fill-rule="nonzero"></path><path fill="#000000" d="M 69.921875 128.636719 C 65.480469 128.636719 61.316406 123.984375 57.863281 115.160156 C 55.105469 108.105469 53.28125 99.589844 52.695312 94.28125 C 52.03125 88.230469 52.269531 83.109375 53.402344 79.058594 C 54.945312 73.550781 58.117188 70.214844 62.839844 69.140625 C 62.964844 69.113281 63.089844 69.191406 63.117188 69.316406 C 63.144531 69.441406 63.066406 69.5625 62.941406 69.589844 C 58.398438 70.625 55.339844 73.851562 53.847656 79.183594 C 52.726562 83.175781 52.496094 88.242188 53.15625 94.230469 C 53.734375 99.511719 55.550781 107.976562 58.292969 114.988281 C 60.65625 121.035156 64.582031 128.171875 69.917969 128.171875 C 70.007812 128.171875 70.097656 128.171875 70.1875 128.167969 C 73.011719 128.042969 76.417969 126.195312 80.3125 122.675781 C 80.40625 122.589844 80.554688 122.597656 80.640625 122.691406 C 80.722656 122.785156 80.714844 122.933594 80.621094 123.019531 C 76.644531 126.613281 73.140625 128.5 70.207031 128.628906 C 70.113281 128.632812 70.015625 128.636719 69.921875 128.636719 " fill-opacity="1" fill-rule="nonzero"></path><path fill="#000000" d="M 109.921875 96.167969 C 109.214844 96.167969 108.359375 96.007812 107.429688 95.839844 C 106.882812 95.738281 106.3125 95.636719 105.746094 95.558594 C 105.621094 95.542969 105.53125 95.425781 105.550781 95.300781 C 105.566406 95.171875 105.683594 95.085938 105.808594 95.101562 C 106.386719 95.179688 106.957031 95.285156 107.511719 95.386719 C 108.972656 95.652344 110.355469 95.90625 110.960938 95.464844 C 111.15625 95.320312 111.269531 95.101562 111.308594 94.796875 C 111.46875 93.59375 108.734375 91.695312 103.886719 90.613281 C 103.761719 90.582031 103.683594 90.460938 103.710938 90.335938 C 103.738281 90.210938 103.863281 90.136719 103.988281 90.160156 C 108.039062 91.070312 112.011719 92.972656 111.765625 94.859375 C 111.710938 95.289062 111.53125 95.617188 111.230469 95.835938 C 110.902344 96.078125 110.453125 96.167969 109.921875 96.167969 " fill-opacity="1" fill-rule="nonzero"></path><path fill="#000000" d="M 104.195312 99.394531 C 104.148438 99.394531 104.101562 99.378906 104.058594 99.347656 C 103.324219 98.808594 102.414062 98.476562 101.503906 98.414062 C 101.375 98.40625 101.277344 98.296875 101.289062 98.167969 C 101.296875 98.042969 101.40625 97.949219 101.53125 97.953125 C 102.53125 98.019531 103.527344 98.382812 104.332031 98.976562 C 104.4375 99.050781 104.457031 99.195312 104.382812 99.296875 C 104.335938 99.359375 104.265625 99.394531 104.195312 99.394531 " fill-opacity="1" fill-rule="nonzero"></path><path fill="#000000" d="M 101.507812 102.328125 C 101.449219 102.328125 101.390625 102.304688 101.34375 102.261719 C 100.808594 101.714844 100.027344 101.402344 99.265625 101.410156 C 99.148438 101.410156 99.035156 101.3125 99.03125 101.183594 C 99.03125 101.054688 99.132812 100.949219 99.257812 100.949219 C 100.144531 100.941406 101.050781 101.300781 101.675781 101.933594 C 101.761719 102.027344 101.761719 102.171875 101.671875 102.261719 C 101.625 102.304688 101.566406 102.328125 101.507812 102.328125 " fill-opacity="1" fill-rule="nonzero"></path><path fill="#000000" d="M 68.367188 111.28125 C 68.324219 111.28125 68.277344 111.265625 68.234375 111.238281 C 68.132812 111.164062 68.105469 111.019531 68.179688 110.917969 L 71.535156 106.152344 C 71.609375 106.046875 71.753906 106.023438 71.855469 106.09375 C 71.960938 106.167969 71.984375 106.3125 71.914062 106.417969 L 68.558594 111.183594 C 68.511719 111.246094 68.441406 111.28125 68.367188 111.28125 " fill-opacity="1" fill-rule="nonzero"></path><path fill="#000000" d="M 92.457031 107.210938 C 92.410156 107.210938 92.367188 107.199219 92.324219 107.167969 C 88.226562 104.304688 85.371094 99.839844 84.488281 94.921875 C 84.464844 94.792969 84.550781 94.675781 84.675781 94.652344 C 84.800781 94.628906 84.917969 94.714844 84.941406 94.839844 C 85.804688 99.640625 88.589844 103.996094 92.589844 106.792969 C 92.691406 106.863281 92.71875 107.007812 92.644531 107.113281 C 92.601562 107.175781 92.527344 107.210938 92.457031 107.210938 " fill-opacity="1" fill-rule="nonzero"></path><path fill="#000000" d="M 89.5625 111.613281 C 89.527344 111.613281 89.492188 111.605469 89.457031 111.585938 C 88.082031 110.878906 87.039062 109.625 86.59375 108.144531 C 86.191406 106.808594 86.292969 105.359375 86.871094 104.097656 C 85.253906 104.253906 83.558594 103.71875 82.347656 102.640625 C 81.023438 101.464844 80.269531 99.636719 80.382812 97.867188 C 80.390625 97.742188 80.5 97.644531 80.625 97.652344 C 80.753906 97.660156 80.851562 97.769531 80.84375 97.898438 C 80.738281 99.527344 81.433594 101.210938 82.652344 102.296875 C 83.875 103.378906 85.628906 103.871094 87.234375 103.578125 C 87.320312 103.5625 87.410156 103.601562 87.464844 103.671875 C 87.515625 103.746094 87.519531 103.839844 87.476562 103.917969 C 86.796875 105.140625 86.628906 106.671875 87.035156 108.011719 C 87.4375 109.351562 88.425781 110.535156 89.667969 111.175781 C 89.78125 111.234375 89.824219 111.375 89.765625 111.488281 C 89.726562 111.566406 89.644531 111.613281 89.5625 111.613281 " fill-opacity="1" fill-rule="nonzero"></path><path fill="#ffffff" d="M 81.894531 53.941406 C 81.367188 50.457031 78.871094 47.433594 75.726562 45.84375 C 73.261719 44.597656 70.308594 44.171875 67.691406 45.054688 C 65.144531 45.917969 63.101562 47.949219 61.832031 50.316406 C 60.15625 53.4375 59.742188 57.28125 61.023438 60.582031 C 62.308594 63.882812 65.367188 66.507812 68.875 66.976562 C 72.886719 67.507812 74.917969 65.199219 77.65625 62.875 C 80.472656 60.488281 82.5 57.953125 81.894531 53.941406 " fill-opacity="1" fill-rule="nonzero"></path><path fill="#000000" d="M 70.625 44.585938 C 69.628906 44.585938 68.640625 44.734375 67.691406 45.054688 C 65.144531 45.917969 63.101562 47.949219 61.832031 50.316406 C 60.15625 53.4375 59.742188 57.28125 61.023438 60.582031 C 62.308594 63.882812 65.367188 66.507812 68.875 66.976562 C 69.269531 67.027344 69.648438 67.054688 70.007812 67.054688 C 73.292969 67.054688 75.1875 64.972656 77.65625 62.875 C 80.472656 60.484375 82.5 57.953125 81.894531 53.941406 C 81.367188 50.457031 78.871094 47.433594 75.726562 45.84375 C 74.152344 45.050781 72.382812 44.585938 70.625 44.585938 Z M 70.625 45.046875 C 72.261719 45.046875 73.957031 45.464844 75.519531 46.257812 C 78.6875 47.855469 80.957031 50.828125 81.4375 54.011719 C 82 57.726562 80.214844 60.101562 77.359375 62.523438 C 77.039062 62.796875 76.726562 63.070312 76.421875 63.335938 C 74.421875 65.082031 72.695312 66.589844 70.007812 66.589844 C 69.664062 66.589844 69.304688 66.566406 68.9375 66.519531 C 65.714844 66.089844 62.707031 63.636719 61.457031 60.414062 C 60.265625 57.355469 60.558594 53.660156 62.238281 50.535156 C 63.550781 48.089844 65.589844 46.253906 67.839844 45.492188 C 68.710938 45.199219 69.648438 45.046875 70.625 45.046875 " fill-opacity="1" fill-rule="nonzero"></path><g clip-path="url(#d904b1065d)"><path fill="#ffffff" d="M 110.273438 50.066406 C 112.292969 46.007812 112.5625 39.632812 109.339844 36.640625 C 106.945312 34.417969 104.929688 36.210938 97.78125 34.128906 C 92.675781 32.644531 92.445312 32.398438 88.871094 30.792969 C 84.90625 29.007812 80.050781 29.964844 76.683594 32.78125 C 73.320312 35.597656 71.410156 40.058594 71.164062 44.542969 C 71.003906 47.511719 71.558594 50.597656 73.1875 53.035156 C 75 55.75 77.949219 57.414062 80.953125 58.492188 C 85.707031 60.199219 90.871094 60.671875 95.839844 59.847656 C 96.304688 59.773438 97.59375 59.328125 99.171875 58.710938 C 100.828125 58.066406 102.605469 57.25 103.746094 56.59375 C 104.613281 56.097656 108.339844 53.964844 110.273438 50.066406 " fill-opacity="1" fill-rule="nonzero"></path><path fill="#000000" d="M 84.554688 29.890625 C 81.738281 29.890625 78.890625 30.9375 76.683594 32.78125 C 73.316406 35.597656 71.410156 40.058594 71.164062 44.542969 C 71.003906 47.511719 71.558594 50.597656 73.1875 53.035156 C 75 55.75 77.949219 57.414062 80.953125 58.492188 C 84.1875 59.652344 87.609375 60.242188 91.03125 60.242188 C 92.640625 60.242188 94.25 60.113281 95.839844 59.847656 C 96.304688 59.773438 97.59375 59.328125 99.171875 58.710938 C 100.828125 58.066406 102.605469 57.25 103.746094 56.59375 C 104.613281 56.097656 108.339844 53.964844 110.273438 50.066406 C 112.292969 46.007812 112.5625 39.632812 109.339844 36.640625 C 106.945312 34.417969 104.929688 36.210938 97.78125 34.128906 C 92.675781 32.644531 92.445312 32.398438 88.871094 30.792969 C 87.503906 30.179688 86.035156 29.890625 84.554688 29.890625 Z M 84.554688 30.351562 C 86.019531 30.351562 87.410156 30.640625 88.683594 31.214844 C 89.1875 31.441406 89.625 31.640625 90.019531 31.820312 C 92.425781 32.917969 93.234375 33.289062 97.652344 34.574219 C 101.09375 35.574219 103.382812 35.691406 105.054688 35.777344 C 106.882812 35.875 107.890625 35.925781 109.027344 36.980469 C 110.414062 38.269531 111.222656 40.394531 111.3125 42.96875 C 111.390625 45.335938 110.859375 47.847656 109.859375 49.863281 C 109.007812 51.582031 107.210938 54.078125 103.515625 56.195312 C 102.414062 56.828125 100.683594 57.625 99.003906 58.28125 C 97.113281 59.019531 96.089844 59.339844 95.765625 59.394531 C 94.210938 59.652344 92.621094 59.78125 91.03125 59.78125 C 87.632812 59.78125 84.292969 59.203125 81.109375 58.058594 C 77.554688 56.78125 75.089844 55.054688 73.570312 52.78125 C 72.144531 50.644531 71.453125 47.726562 71.625 44.570312 C 71.875 40.007812 73.875 35.734375 76.980469 33.136719 C 79.097656 31.363281 81.859375 30.351562 84.554688 30.351562 " fill-opacity="1" fill-rule="nonzero"></path></g><path fill="#ffffff" d="M 74.582031 68.179688 L 83.703125 47.679688 L 92.785156 59.90625 L 88.382812 68.835938 L 90.183594 70.285156 C 89.839844 76.589844 81.664062 78.816406 78.164062 73.5625 L 74.582031 68.179688 " fill-opacity="1" fill-rule="nonzero"></path><path fill="#000000" d="M 88.996094 69.5625 C 88.945312 69.5625 88.894531 69.542969 88.851562 69.511719 L 88.238281 69.015625 C 88.152344 68.945312 88.128906 68.828125 88.175781 68.734375 L 92.515625 59.929688 L 83.753906 48.136719 L 74.792969 68.273438 C 74.742188 68.390625 74.605469 68.445312 74.488281 68.390625 C 74.371094 68.339844 74.320312 68.203125 74.371094 68.085938 L 83.492188 47.589844 C 83.527344 47.511719 83.597656 47.460938 83.679688 47.453125 C 83.761719 47.445312 83.839844 47.480469 83.890625 47.542969 L 92.96875 59.769531 C 93.019531 59.835938 93.027344 59.929688 92.992188 60.007812 L 88.671875 68.769531 L 89.140625 69.152344 C 89.242188 69.230469 89.253906 69.378906 89.175781 69.476562 C 89.128906 69.53125 89.0625 69.5625 88.996094 69.5625 " fill-opacity="1" fill-rule="nonzero"></path><path fill="#000000" d="M 87.03125 71.773438 C 86.996094 71.773438 86.960938 71.765625 86.929688 71.75 C 86.8125 71.695312 86.765625 71.554688 86.824219 71.441406 L 88.496094 68.078125 C 88.550781 67.964844 88.6875 67.917969 88.804688 67.976562 C 88.917969 68.03125 88.964844 68.167969 88.90625 68.285156 L 87.238281 71.648438 C 87.195312 71.726562 87.117188 71.773438 87.03125 71.773438 " fill-opacity="1" fill-rule="nonzero"></path><path fill="#ffffff" d="M 102.449219 47.015625 C 104.125 47.523438 105.0625 49.296875 104.523438 50.964844 C 102.894531 56.003906 98.652344 66.921875 92.785156 65.746094 C 83.570312 63.894531 83.703125 52.222656 83.703125 52.222656 C 83.703125 52.222656 80.234375 51.191406 80.496094 47.246094 C 80.761719 43.300781 86.949219 42.40625 87.285156 47.679688 C 87.285156 47.679688 89.730469 53.054688 91.070312 48.351562 C 91.933594 45.332031 98.546875 45.839844 102.449219 47.015625 " fill-opacity="1" fill-rule="nonzero"></path><path fill="#000000" d="M 83.984375 44.003906 C 82.324219 44.003906 80.632812 45.222656 80.496094 47.246094 C 80.234375 51.191406 83.703125 52.222656 83.703125 52.222656 C 83.703125 52.222656 83.570312 63.894531 92.785156 65.746094 C 93.082031 65.804688 93.375 65.832031 93.664062 65.832031 C 99.078125 65.832031 102.976562 55.746094 104.523438 50.964844 C 105.0625 49.296875 104.125 47.523438 102.449219 47.015625 C 100.699219 46.488281 98.398438 46.09375 96.320312 46.09375 C 93.769531 46.09375 91.546875 46.6875 91.070312 48.351562 C 90.664062 49.785156 90.152344 50.28125 89.640625 50.28125 C 88.46875 50.28125 87.285156 47.683594 87.285156 47.683594 C 87.121094 45.109375 85.566406 44.003906 83.984375 44.003906 Z M 83.984375 44.464844 C 85.257812 44.464844 86.671875 45.320312 86.824219 47.710938 C 86.828125 47.765625 86.84375 47.820312 86.867188 47.871094 C 87.085938 48.351562 88.242188 50.742188 89.640625 50.742188 C 90.867188 50.742188 91.355469 49.039062 91.515625 48.480469 C 91.992188 46.808594 94.730469 46.558594 96.320312 46.558594 C 98.203125 46.558594 100.441406 46.894531 102.316406 47.457031 C 103.007812 47.667969 103.578125 48.132812 103.910156 48.777344 C 104.246094 49.410156 104.308594 50.136719 104.085938 50.824219 C 102.671875 55.199219 98.824219 65.371094 93.664062 65.371094 C 93.402344 65.371094 93.136719 65.34375 92.875 65.292969 C 89.230469 64.5625 86.660156 62.160156 85.230469 58.160156 C 84.148438 55.121094 84.164062 52.257812 84.164062 52.226562 C 84.167969 52.023438 84.03125 51.84375 83.835938 51.78125 C 83.710938 51.742188 80.722656 50.792969 80.957031 47.277344 C 81.078125 45.449219 82.609375 44.464844 83.984375 44.464844 " fill-opacity="1" fill-rule="nonzero"></path><path fill="#000000" d="M 84.535156 50.792969 C 84.40625 50.792969 84.304688 50.6875 84.304688 50.558594 C 84.328125 49.167969 83.710938 47.792969 82.65625 46.882812 C 82.558594 46.800781 82.546875 46.65625 82.632812 46.558594 C 82.714844 46.460938 82.859375 46.453125 82.957031 46.535156 C 84.113281 47.53125 84.789062 49.039062 84.765625 50.566406 C 84.765625 50.695312 84.664062 50.792969 84.535156 50.792969 " fill-opacity="1" fill-rule="nonzero"></path><path fill="#ffffff" d="M 75.855469 62.953125 C 75.855469 62.953125 82.410156 68.980469 87.25 70.820312 L 89.398438 66.769531 L 91.492188 70.988281 C 91.492188 70.988281 89.550781 77.183594 88.125 79.503906 L 85.726562 77.085938 L 83.671875 81.054688 C 83.671875 81.054688 75.242188 76.398438 73.515625 67.542969 L 75.855469 62.953125 " fill-opacity="1" fill-rule="nonzero"></path><path fill="#000000" d="M 87.25 71.050781 C 87.222656 71.050781 87.195312 71.046875 87.167969 71.035156 C 82.847656 69.394531 77.121094 64.394531 75.921875 63.324219 L 73.722656 67.648438 C 73.664062 67.761719 73.523438 67.808594 73.410156 67.75 C 73.296875 67.691406 73.253906 67.554688 73.308594 67.441406 L 75.648438 62.847656 C 75.679688 62.785156 75.742188 62.738281 75.8125 62.726562 C 75.886719 62.714844 75.957031 62.734375 76.011719 62.78125 C 76.074219 62.84375 82.417969 68.644531 87.144531 70.53125 L 89.195312 66.660156 C 89.238281 66.582031 89.316406 66.53125 89.402344 66.539062 C 89.488281 66.539062 89.570312 66.589844 89.605469 66.667969 L 90.804688 69.082031 C 90.863281 69.195312 90.816406 69.335938 90.703125 69.390625 C 90.589844 69.445312 90.449219 69.402344 90.394531 69.285156 L 89.394531 67.273438 L 87.453125 70.929688 C 87.414062 71.003906 87.332031 71.050781 87.25 71.050781 " fill-opacity="1" fill-rule="nonzero"></path><path fill="#000000" d="M 140.433594 78.15625 C 140.304688 78.15625 140.203125 78.054688 140.203125 77.925781 L 140.203125 44.148438 C 140.203125 44.023438 140.304688 43.917969 140.433594 43.917969 L 221.019531 43.917969 C 221.148438 43.917969 221.25 44.023438 221.25 44.148438 C 221.25 44.277344 221.148438 44.378906 221.019531 44.378906 L 140.664062 44.378906 L 140.664062 77.925781 C 140.664062 78.054688 140.5625 78.15625 140.433594 78.15625 " fill-opacity="1" fill-rule="nonzero"></path><path fill="#ffffff" d="M 235.507812 44.148438 C 235.507812 45.988281 234.019531 47.476562 232.179688 47.476562 C 230.339844 47.476562 228.851562 45.988281 228.851562 44.148438 C 228.851562 42.308594 230.339844 40.820312 232.179688 40.820312 C 234.019531 40.820312 235.507812 42.308594 235.507812 44.148438 " fill-opacity="1" fill-rule="nonzero"></path><path fill="#000000" d="M 232.179688 41.050781 C 230.472656 41.050781 229.082031 42.441406 229.082031 44.148438 C 229.082031 45.855469 230.472656 47.246094 232.179688 47.246094 C 233.886719 47.246094 235.277344 45.855469 235.277344 44.148438 C 235.277344 42.441406 233.886719 41.050781 232.179688 41.050781 Z M 232.179688 47.707031 C 230.214844 47.707031 228.621094 46.113281 228.621094 44.148438 C 228.621094 42.1875 230.214844 40.589844 232.179688 40.589844 C 234.144531 40.589844 235.738281 42.1875 235.738281 44.148438 C 235.738281 46.113281 234.144531 47.707031 232.179688 47.707031 " fill-opacity="1" fill-rule="nonzero"></path><path fill="#ffffff" d="M 245.222656 44.148438 C 245.222656 45.988281 243.734375 47.476562 241.894531 47.476562 C 240.054688 47.476562 238.566406 45.988281 238.566406 44.148438 C 238.566406 42.308594 240.054688 40.820312 241.894531 40.820312 C 243.734375 40.820312 245.222656 42.308594 245.222656 44.148438 " fill-opacity="1" fill-rule="nonzero"></path><path fill="#000000" d="M 241.894531 41.050781 C 240.1875 41.050781 238.796875 42.441406 238.796875 44.148438 C 238.796875 45.855469 240.1875 47.246094 241.894531 47.246094 C 243.601562 47.246094 244.992188 45.855469 244.992188 44.148438 C 244.992188 42.441406 243.601562 41.050781 241.894531 41.050781 Z M 241.894531 47.707031 C 239.933594 47.707031 238.335938 46.113281 238.335938 44.148438 C 238.335938 42.1875 239.933594 40.589844 241.894531 40.589844 C 243.859375 40.589844 245.457031 42.1875 245.457031 44.148438 C 245.457031 46.113281 243.859375 47.707031 241.894531 47.707031 " fill-opacity="1" fill-rule="nonzero"></path><path fill="#88e64a" d="M 254.941406 44.148438 C 254.941406 45.988281 253.449219 47.476562 251.609375 47.476562 C 249.773438 47.476562 248.28125 45.988281 248.28125 44.148438 C 248.28125 42.308594 249.773438 40.820312 251.609375 40.820312 C 253.449219 40.820312 254.941406 42.308594 254.941406 44.148438 " fill-opacity="1" fill-rule="nonzero"></path><path fill="#000000" d="M 314.957031 44.378906 L 260.6875 44.378906 C 260.558594 44.378906 260.457031 44.277344 260.457031 44.148438 C 260.457031 44.023438 260.558594 43.917969 260.6875 43.917969 L 314.957031 43.917969 C 315.082031 43.917969 315.1875 44.023438 315.1875 44.148438 C 315.1875 44.277344 315.082031 44.378906 314.957031 44.378906 " fill-opacity="1" fill-rule="nonzero"></path><path fill="#000000" d="M 314.957031 49.304688 L 307.503906 49.304688 C 307.375 49.304688 307.273438 49.203125 307.273438 49.074219 C 307.273438 48.945312 307.375 48.84375 307.503906 48.84375 L 314.957031 48.84375 C 315.082031 48.84375 315.1875 48.945312 315.1875 49.074219 C 315.1875 49.203125 315.082031 49.304688 314.957031 49.304688 " fill-opacity="1" fill-rule="nonzero"></path><path fill="#000000" d="M 301.566406 49.304688 L 277.589844 49.304688 C 277.460938 49.304688 277.359375 49.203125 277.359375 49.074219 C 277.359375 48.945312 277.460938 48.84375 277.589844 48.84375 L 301.566406 48.84375 C 301.695312 48.84375 301.800781 48.945312 301.800781 49.074219 C 301.800781 49.203125 301.695312 49.304688 301.566406 49.304688 " fill-opacity="1" fill-rule="nonzero"></path><path fill="#000000" d="M 314.957031 54.230469 L 295.003906 54.230469 C 294.875 54.230469 294.769531 54.125 294.769531 54 C 294.769531 53.871094 294.875 53.769531 295.003906 53.769531 L 314.957031 53.769531 C 315.082031 53.769531 315.1875 53.871094 315.1875 54 C 315.1875 54.125 315.082031 54.230469 314.957031 54.230469 " fill-opacity="1" fill-rule="nonzero"></path><path fill="#000000" d="M 287.910156 54.230469 L 277.589844 54.230469 C 277.460938 54.230469 277.359375 54.125 277.359375 54 C 277.359375 53.871094 277.460938 53.769531 277.589844 53.769531 L 287.910156 53.769531 C 288.039062 53.769531 288.140625 53.871094 288.140625 54 C 288.140625 54.125 288.039062 54.230469 287.910156 54.230469 " fill-opacity="1" fill-rule="nonzero"></path><path fill="#ffffff" d="M 294.292969 214.230469 L 239.964844 214.230469 L 239.964844 159.902344 L 294.292969 159.902344 L 294.292969 214.230469 " fill-opacity="1" fill-rule="nonzero"></path><path fill="#000000" d="M 240.195312 214 L 294.0625 214 L 294.0625 160.132812 L 240.195312 160.132812 Z M 294.292969 214.460938 L 239.964844 214.460938 C 239.839844 214.460938 239.734375 214.359375 239.734375 214.230469 L 239.734375 159.902344 C 239.734375 159.773438 239.839844 159.671875 239.964844 159.671875 L 294.292969 159.671875 C 294.421875 159.671875 294.523438 159.773438 294.523438 159.902344 L 294.523438 214.230469 C 294.523438 214.359375 294.421875 214.460938 294.292969 214.460938 " fill-opacity="1" fill-rule="nonzero"></path><path fill="#ffffff" d="M 277.8125 180.921875 C 277.078125 183.84375 274.113281 185.617188 271.1875 184.878906 C 268.265625 184.144531 266.492188 181.179688 267.226562 178.253906 C 267.964844 175.332031 270.929688 173.558594 273.851562 174.296875 C 276.777344 175.035156 278.550781 178 277.8125 180.921875 Z M 287.074219 183.253906 C 287.472656 181.679688 286.515625 180.082031 284.941406 179.6875 C 284.824219 179.65625 284.707031 179.636719 284.589844 179.621094 C 284.59375 178.40625 284.414062 177.214844 284.070312 176.082031 C 284.179688 176.035156 284.285156 175.984375 284.386719 175.921875 C 285.78125 175.089844 286.234375 173.285156 285.402344 171.890625 C 284.570312 170.5 282.765625 170.042969 281.371094 170.878906 C 281.269531 170.9375 281.171875 171.007812 281.078125 171.082031 C 280.242188 170.238281 279.277344 169.519531 278.207031 168.945312 C 278.25 168.835938 278.289062 168.722656 278.316406 168.605469 C 278.710938 167.03125 277.757812 165.433594 276.183594 165.039062 C 274.609375 164.640625 273.011719 165.597656 272.617188 167.171875 C 272.585938 167.289062 272.566406 167.40625 272.550781 167.523438 C 271.335938 167.515625 270.144531 167.699219 269.011719 168.042969 C 268.964844 167.933594 268.910156 167.828125 268.851562 167.722656 C 268.015625 166.332031 266.210938 165.878906 264.820312 166.710938 C 263.425781 167.542969 262.972656 169.34375 263.804688 170.738281 C 263.867188 170.84375 263.933594 170.9375 264.007812 171.03125 C 263.167969 171.867188 262.445312 172.828125 261.871094 173.902344 C 261.761719 173.859375 261.652344 173.820312 261.53125 173.792969 C 259.960938 173.394531 258.363281 174.351562 257.964844 175.921875 C 257.570312 177.496094 258.523438 179.09375 260.097656 179.492188 C 260.214844 179.519531 260.332031 179.539062 260.449219 179.554688 C 260.445312 180.769531 260.625 181.960938 260.96875 183.09375 C 260.863281 183.140625 260.757812 183.195312 260.652344 183.253906 C 259.257812 184.089844 258.804688 185.890625 259.636719 187.285156 C 260.472656 188.679688 262.273438 189.132812 263.667969 188.300781 C 263.773438 188.238281 263.871094 188.167969 263.964844 188.097656 C 264.796875 188.9375 265.761719 189.660156 266.832031 190.230469 C 266.792969 190.339844 266.753906 190.453125 266.722656 190.570312 C 266.328125 192.144531 267.28125 193.742188 268.855469 194.136719 C 270.429688 194.535156 272.027344 193.578125 272.425781 192.007812 C 272.453125 191.890625 272.472656 191.773438 272.488281 191.65625 C 273.703125 191.660156 274.894531 191.480469 276.027344 191.136719 C 276.074219 191.242188 276.128906 191.351562 276.191406 191.453125 C 277.023438 192.847656 278.828125 193.300781 280.222656 192.46875 C 281.617188 191.636719 282.070312 189.832031 281.234375 188.441406 C 281.175781 188.335938 281.105469 188.238281 281.03125 188.144531 C 281.871094 187.3125 282.59375 186.347656 283.167969 185.273438 C 283.277344 185.316406 283.390625 185.355469 283.507812 185.386719 C 285.082031 185.78125 286.679688 184.828125 287.074219 183.253906 " fill-opacity="1" fill-rule="nonzero"></path><path fill="#000000" d="M 272.519531 174.363281 C 270.183594 174.363281 268.046875 175.945312 267.449219 178.3125 C 266.746094 181.105469 268.449219 183.953125 271.246094 184.65625 C 274.039062 185.359375 276.886719 183.660156 277.589844 180.867188 C 277.929688 179.511719 277.726562 178.105469 277.007812 176.90625 C 276.292969 175.710938 275.152344 174.863281 273.796875 174.519531 C 273.371094 174.414062 272.941406 174.363281 272.519531 174.363281 Z M 272.519531 185.277344 C 272.0625 185.277344 271.597656 185.222656 271.132812 185.105469 C 268.089844 184.335938 266.238281 181.242188 267.003906 178.199219 C 267.769531 175.160156 270.867188 173.308594 273.910156 174.074219 C 275.382812 174.445312 276.625 175.367188 277.402344 176.671875 C 278.183594 177.976562 278.40625 179.503906 278.039062 180.976562 C 277.386719 183.554688 275.066406 185.277344 272.519531 185.277344 Z M 263.964844 187.867188 C 264.023438 187.867188 264.082031 187.890625 264.125 187.933594 C 264.957031 188.769531 265.902344 189.472656 266.941406 190.027344 C 267.046875 190.082031 267.089844 190.207031 267.050781 190.316406 C 267.003906 190.429688 266.972656 190.53125 266.949219 190.628906 C 266.582031 192.074219 267.464844 193.550781 268.914062 193.914062 C 270.363281 194.28125 271.835938 193.398438 272.199219 191.949219 C 272.226562 191.855469 272.242188 191.75 272.257812 191.625 C 272.273438 191.511719 272.371094 191.425781 272.488281 191.425781 C 272.496094 191.425781 272.515625 191.425781 272.53125 191.425781 C 273.695312 191.425781 274.847656 191.253906 275.960938 190.914062 C 276.074219 190.882812 276.191406 190.9375 276.238281 191.042969 C 276.289062 191.152344 276.335938 191.25 276.386719 191.335938 C 277.15625 192.617188 278.820312 193.035156 280.101562 192.269531 C 280.722656 191.898438 281.164062 191.308594 281.339844 190.609375 C 281.515625 189.90625 281.410156 189.179688 281.039062 188.558594 C 280.988281 188.472656 280.925781 188.386719 280.851562 188.285156 C 280.78125 188.195312 280.789062 188.0625 280.871094 187.980469 C 281.707031 187.152344 282.410156 186.207031 282.964844 185.167969 C 283.019531 185.0625 283.140625 185.019531 283.25 185.058594 C 283.367188 185.105469 283.46875 185.136719 283.5625 185.160156 C 285.011719 185.527344 286.488281 184.644531 286.851562 183.199219 C 287.214844 181.75 286.335938 180.273438 284.886719 179.910156 C 284.789062 179.886719 284.6875 179.867188 284.5625 179.851562 C 284.445312 179.835938 284.359375 179.738281 284.359375 179.621094 C 284.363281 178.445312 284.191406 177.273438 283.847656 176.152344 C 283.816406 176.039062 283.871094 175.921875 283.976562 175.875 C 284.089844 175.824219 284.183594 175.773438 284.269531 175.722656 C 284.890625 175.351562 285.328125 174.761719 285.507812 174.0625 C 285.683594 173.359375 285.574219 172.632812 285.207031 172.011719 C 284.4375 170.730469 282.773438 170.308594 281.492188 171.074219 C 281.40625 171.125 281.316406 171.1875 281.21875 171.261719 C 281.128906 171.332031 280.996094 171.328125 280.914062 171.242188 C 280.085938 170.40625 279.136719 169.703125 278.097656 169.148438 C 277.996094 169.09375 277.949219 168.972656 277.992188 168.863281 C 278.035156 168.746094 278.070312 168.644531 278.09375 168.550781 C 278.269531 167.847656 278.164062 167.121094 277.792969 166.5 C 277.421875 165.878906 276.828125 165.4375 276.128906 165.261719 C 275.425781 165.085938 274.699219 165.191406 274.078125 165.5625 C 273.457031 165.933594 273.015625 166.527344 272.839844 167.226562 C 272.816406 167.324219 272.796875 167.425781 272.78125 167.550781 C 272.765625 167.667969 272.667969 167.753906 272.550781 167.753906 C 272.546875 167.75 272.523438 167.753906 272.507812 167.753906 C 271.34375 167.753906 270.191406 167.921875 269.078125 168.261719 C 268.96875 168.296875 268.847656 168.242188 268.800781 168.136719 C 268.753906 168.023438 268.703125 167.929688 268.652344 167.84375 C 267.886719 166.558594 266.21875 166.140625 264.9375 166.90625 C 264.316406 167.277344 263.878906 167.867188 263.699219 168.570312 C 263.523438 169.269531 263.628906 170 264.003906 170.621094 C 264.054688 170.707031 264.113281 170.792969 264.191406 170.890625 C 264.261719 170.984375 264.253906 171.113281 264.171875 171.195312 C 263.335938 172.023438 262.632812 172.972656 262.078125 174.011719 C 262.023438 174.113281 261.898438 174.160156 261.789062 174.117188 C 261.675781 174.074219 261.574219 174.039062 261.476562 174.015625 C 260.03125 173.652344 258.554688 174.53125 258.1875 175.980469 C 257.824219 177.429688 258.707031 178.902344 260.15625 179.269531 C 260.25 179.292969 260.359375 179.3125 260.476562 179.328125 C 260.59375 179.339844 260.679688 179.441406 260.679688 179.554688 C 260.675781 180.734375 260.847656 181.902344 261.191406 183.027344 C 261.226562 183.136719 261.171875 183.257812 261.066406 183.304688 C 260.949219 183.355469 260.855469 183.402344 260.769531 183.453125 C 260.148438 183.824219 259.710938 184.417969 259.535156 185.117188 C 259.355469 185.816406 259.464844 186.546875 259.835938 187.167969 C 260.601562 188.449219 262.269531 188.867188 263.550781 188.101562 C 263.636719 188.050781 263.722656 187.992188 263.820312 187.914062 C 263.863281 187.882812 263.914062 187.867188 263.964844 187.867188 Z M 269.574219 194.457031 C 269.316406 194.457031 269.058594 194.425781 268.800781 194.363281 C 267.105469 193.933594 266.074219 192.210938 266.5 190.515625 C 266.515625 190.457031 266.53125 190.398438 266.550781 190.339844 C 265.597656 189.8125 264.722656 189.160156 263.941406 188.398438 C 263.886719 188.4375 263.835938 188.46875 263.785156 188.5 C 262.285156 189.394531 260.335938 188.902344 259.441406 187.402344 C 259.003906 186.675781 258.878906 185.824219 259.085938 185.003906 C 259.292969 184.183594 259.808594 183.492188 260.535156 183.058594 C 260.585938 183.027344 260.636719 183 260.695312 182.96875 C 260.390625 181.921875 260.234375 180.84375 260.222656 179.753906 C 260.15625 179.742188 260.101562 179.726562 260.042969 179.714844 C 258.347656 179.289062 257.316406 177.5625 257.742188 175.867188 C 258.167969 174.171875 259.894531 173.144531 261.589844 173.566406 C 261.648438 173.582031 261.703125 173.597656 261.765625 173.621094 C 262.292969 172.664062 262.945312 171.789062 263.707031 171.011719 C 263.667969 170.957031 263.636719 170.90625 263.605469 170.855469 C 263.171875 170.128906 263.046875 169.277344 263.253906 168.457031 C 263.460938 167.636719 263.972656 166.945312 264.699219 166.511719 C 266.203125 165.613281 268.152344 166.105469 269.046875 167.605469 C 269.078125 167.65625 269.109375 167.710938 269.136719 167.765625 C 270.183594 167.464844 271.261719 167.304688 272.355469 167.292969 C 272.367188 167.230469 272.378906 167.171875 272.394531 167.113281 C 272.597656 166.292969 273.113281 165.601562 273.839844 165.167969 C 274.566406 164.734375 275.421875 164.609375 276.238281 164.816406 C 277.0625 165.023438 277.753906 165.535156 278.1875 166.261719 C 278.621094 166.988281 278.746094 167.839844 278.539062 168.660156 C 278.527344 168.71875 278.511719 168.777344 278.488281 168.835938 C 279.445312 169.367188 280.320312 170.015625 281.101562 170.777344 C 281.152344 170.742188 281.203125 170.707031 281.253906 170.679688 C 282.753906 169.78125 284.703125 170.273438 285.601562 171.773438 C 286.035156 172.5 286.160156 173.351562 285.953125 174.171875 C 285.746094 174.992188 285.234375 175.683594 284.507812 176.121094 C 284.457031 176.148438 284.402344 176.179688 284.347656 176.207031 C 284.648438 177.253906 284.804688 178.332031 284.820312 179.425781 C 284.882812 179.4375 284.941406 179.449219 285 179.460938 C 286.695312 179.890625 287.726562 181.617188 287.300781 183.308594 C 286.871094 185.003906 285.144531 186.035156 283.453125 185.609375 C 283.394531 185.59375 283.335938 185.578125 283.277344 185.558594 C 282.746094 186.511719 282.097656 187.386719 281.335938 188.167969 C 281.371094 188.21875 281.402344 188.269531 281.433594 188.320312 C 281.867188 189.046875 281.992188 189.898438 281.789062 190.722656 C 281.582031 191.542969 281.066406 192.234375 280.339844 192.664062 C 278.839844 193.5625 276.890625 193.074219 275.992188 191.570312 C 275.960938 191.523438 275.933594 191.46875 275.90625 191.414062 C 274.859375 191.710938 273.777344 191.871094 272.6875 191.886719 C 272.675781 191.945312 272.664062 192.003906 272.648438 192.0625 C 272.285156 193.5 270.992188 194.457031 269.574219 194.457031 " fill-opacity="1" fill-rule="nonzero"></path><path fill="#ffffff" d="M 259.15625 201.136719 C 258.710938 202.902344 256.914062 203.976562 255.148438 203.53125 C 253.378906 203.085938 252.304688 201.289062 252.75 199.523438 C 253.195312 197.753906 254.992188 196.683594 256.757812 197.128906 C 258.527344 197.574219 259.601562 199.367188 259.15625 201.136719 Z M 264.757812 202.546875 C 264.996094 201.59375 264.417969 200.628906 263.464844 200.390625 C 263.394531 200.371094 263.324219 200.359375 263.253906 200.347656 C 263.257812 199.613281 263.148438 198.894531 262.9375 198.207031 C 263.003906 198.179688 263.070312 198.148438 263.132812 198.109375 C 263.972656 197.605469 264.25 196.515625 263.746094 195.671875 C 263.242188 194.832031 262.148438 194.554688 261.304688 195.058594 C 261.242188 195.097656 261.183594 195.140625 261.128906 195.183594 C 260.625 194.675781 260.042969 194.238281 259.394531 193.890625 C 259.417969 193.824219 259.441406 193.757812 259.457031 193.6875 C 259.699219 192.734375 259.121094 191.769531 258.167969 191.527344 C 257.21875 191.289062 256.25 191.867188 256.011719 192.816406 C 255.992188 192.890625 255.980469 192.960938 255.972656 193.03125 C 255.238281 193.027344 254.515625 193.136719 253.832031 193.34375 C 253.804688 193.28125 253.769531 193.214844 253.734375 193.152344 C 253.230469 192.308594 252.136719 192.035156 251.296875 192.539062 C 250.453125 193.042969 250.175781 194.132812 250.679688 194.976562 C 250.71875 195.039062 250.761719 195.097656 250.804688 195.152344 C 250.296875 195.660156 249.859375 196.242188 249.511719 196.890625 C 249.445312 196.863281 249.378906 196.839844 249.308594 196.824219 C 248.355469 196.582031 247.390625 197.160156 247.148438 198.113281 C 246.910156 199.0625 247.488281 200.03125 248.4375 200.269531 C 248.511719 200.289062 248.582031 200.300781 248.652344 200.308594 C 248.648438 201.042969 248.757812 201.761719 248.96875 202.449219 C 248.902344 202.476562 248.839844 202.507812 248.777344 202.546875 C 247.933594 203.050781 247.65625 204.140625 248.160156 204.984375 C 248.664062 205.828125 249.757812 206.101562 250.597656 205.597656 C 250.660156 205.5625 250.71875 205.519531 250.777344 205.476562 C 251.28125 205.984375 251.863281 206.421875 252.515625 206.765625 C 252.488281 206.832031 252.464844 206.902344 252.445312 206.972656 C 252.207031 207.921875 252.785156 208.890625 253.738281 209.128906 C 254.691406 209.367188 255.65625 208.792969 255.894531 207.839844 C 255.914062 207.769531 255.925781 207.699219 255.933594 207.628906 C 256.667969 207.628906 257.390625 207.523438 258.074219 207.3125 C 258.105469 207.378906 258.136719 207.441406 258.171875 207.503906 C 258.675781 208.347656 259.769531 208.625 260.613281 208.121094 C 261.453125 207.617188 261.730469 206.523438 261.226562 205.683594 C 261.1875 205.621094 261.144531 205.5625 261.101562 205.503906 C 261.609375 205 262.046875 204.417969 262.394531 203.769531 C 262.460938 203.792969 262.527344 203.816406 262.597656 203.835938 C 263.550781 204.074219 264.515625 203.496094 264.757812 202.546875 " fill-opacity="1" fill-rule="nonzero"></path><path fill="#000000" d="M 255.953125 197.257812 C 254.578125 197.257812 253.324219 198.1875 252.976562 199.578125 C 252.5625 201.222656 253.5625 202.890625 255.203125 203.304688 C 256 203.503906 256.824219 203.386719 257.527344 202.964844 C 258.234375 202.542969 258.730469 201.875 258.929688 201.078125 C 259.34375 199.4375 258.34375 197.765625 256.703125 197.351562 C 256.453125 197.289062 256.199219 197.257812 255.953125 197.257812 Z M 255.960938 203.863281 C 255.671875 203.863281 255.378906 203.824219 255.089844 203.753906 C 253.203125 203.277344 252.050781 201.355469 252.527344 199.464844 C 253.003906 197.578125 254.925781 196.429688 256.816406 196.902344 C 258.703125 197.378906 259.851562 199.304688 259.378906 201.191406 C 259.148438 202.105469 258.574219 202.875 257.765625 203.359375 C 257.210938 203.691406 256.589844 203.863281 255.960938 203.863281 Z M 250.777344 205.246094 C 250.835938 205.246094 250.894531 205.265625 250.941406 205.3125 C 251.4375 205.8125 252 206.230469 252.621094 206.5625 C 252.726562 206.617188 252.769531 206.742188 252.730469 206.851562 C 252.707031 206.90625 252.6875 206.964844 252.671875 207.027344 C 252.460938 207.855469 252.964844 208.699219 253.792969 208.90625 C 254.195312 209.007812 254.609375 208.945312 254.964844 208.734375 C 255.320312 208.523438 255.570312 208.183594 255.671875 207.785156 C 255.6875 207.722656 255.695312 207.660156 255.707031 207.597656 C 255.71875 207.484375 255.820312 207.398438 255.933594 207.398438 C 255.9375 207.398438 255.953125 207.398438 255.960938 207.398438 C 256.65625 207.398438 257.34375 207.292969 258.007812 207.09375 C 258.117188 207.058594 258.238281 207.113281 258.285156 207.21875 C 258.308594 207.277344 258.339844 207.332031 258.371094 207.386719 C 258.808594 208.117188 259.761719 208.359375 260.492188 207.921875 C 260.847656 207.710938 261.097656 207.371094 261.199219 206.972656 C 261.300781 206.570312 261.238281 206.15625 261.027344 205.800781 C 260.996094 205.746094 260.957031 205.695312 260.917969 205.644531 C 260.847656 205.554688 260.855469 205.421875 260.9375 205.339844 C 261.4375 204.847656 261.859375 204.28125 262.1875 203.660156 C 262.246094 203.558594 262.367188 203.511719 262.476562 203.550781 C 262.535156 203.574219 262.59375 203.59375 262.652344 203.613281 C 263.054688 203.710938 263.472656 203.652344 263.828125 203.441406 C 264.183594 203.226562 264.433594 202.890625 264.535156 202.488281 C 264.632812 202.089844 264.574219 201.671875 264.359375 201.320312 C 264.148438 200.964844 263.8125 200.710938 263.410156 200.613281 C 263.347656 200.597656 263.285156 200.585938 263.226562 200.578125 C 263.109375 200.5625 263.023438 200.464844 263.023438 200.347656 C 263.027344 199.644531 262.921875 198.949219 262.71875 198.277344 C 262.683594 198.164062 262.738281 198.046875 262.84375 198 C 262.902344 197.972656 262.957031 197.945312 263.011719 197.914062 C 263.367188 197.699219 263.617188 197.363281 263.71875 196.964844 C 263.820312 196.5625 263.757812 196.144531 263.546875 195.792969 C 263.109375 195.058594 262.15625 194.820312 261.425781 195.257812 C 261.371094 195.289062 261.320312 195.328125 261.269531 195.367188 C 261.179688 195.4375 261.046875 195.429688 260.964844 195.34375 C 260.472656 194.847656 259.90625 194.425781 259.285156 194.09375 C 259.179688 194.039062 259.136719 193.917969 259.175781 193.808594 C 259.199219 193.75 259.21875 193.691406 259.234375 193.628906 C 259.335938 193.230469 259.277344 192.8125 259.0625 192.457031 C 258.851562 192.105469 258.511719 191.851562 258.113281 191.75 C 257.285156 191.542969 256.445312 192.046875 256.234375 192.875 C 256.21875 192.933594 256.210938 193 256.203125 193.058594 C 256.1875 193.175781 256.089844 193.261719 255.972656 193.261719 C 255.964844 193.261719 255.953125 193.261719 255.945312 193.261719 C 255.25 193.261719 254.5625 193.363281 253.898438 193.566406 C 253.785156 193.597656 253.667969 193.542969 253.621094 193.4375 C 253.597656 193.382812 253.566406 193.324219 253.535156 193.269531 C 253.097656 192.539062 252.148438 192.296875 251.414062 192.738281 C 251.058594 192.949219 250.808594 193.285156 250.707031 193.6875 C 250.605469 194.085938 250.667969 194.503906 250.878906 194.855469 C 250.914062 194.914062 250.949219 194.964844 250.988281 195.011719 C 251.058594 195.101562 251.050781 195.234375 250.964844 195.316406 C 250.46875 195.8125 250.046875 196.375 249.714844 196.996094 C 249.664062 197.101562 249.539062 197.144531 249.429688 197.105469 C 249.371094 197.082031 249.3125 197.0625 249.25 197.046875 C 248.851562 196.945312 248.433594 197.007812 248.082031 197.21875 C 247.726562 197.429688 247.472656 197.769531 247.375 198.167969 C 247.273438 198.570312 247.332031 198.984375 247.546875 199.339844 C 247.757812 199.695312 248.09375 199.945312 248.496094 200.046875 C 248.558594 200.0625 248.621094 200.070312 248.679688 200.078125 C 248.796875 200.09375 248.882812 200.191406 248.882812 200.308594 C 248.878906 201.011719 248.984375 201.710938 249.1875 202.382812 C 249.222656 202.492188 249.167969 202.613281 249.058594 202.660156 C 249.003906 202.683594 248.949219 202.710938 248.894531 202.746094 C 248.539062 202.957031 248.289062 203.292969 248.1875 203.695312 C 248.085938 204.09375 248.148438 204.511719 248.359375 204.867188 C 248.796875 205.597656 249.746094 205.835938 250.480469 205.402344 C 250.535156 205.367188 250.585938 205.332031 250.632812 205.292969 C 250.675781 205.261719 250.726562 205.246094 250.777344 205.246094 Z M 254.175781 209.414062 C 254.011719 209.414062 253.84375 209.394531 253.679688 209.351562 C 252.605469 209.082031 251.953125 207.988281 252.222656 206.914062 C 252.226562 206.902344 252.230469 206.886719 252.234375 206.875 C 251.695312 206.570312 251.199219 206.199219 250.753906 205.773438 C 250.742188 205.78125 250.730469 205.789062 250.71875 205.796875 C 249.765625 206.363281 248.53125 206.050781 247.960938 205.101562 C 247.6875 204.640625 247.609375 204.101562 247.738281 203.582031 C 247.871094 203.0625 248.195312 202.625 248.65625 202.347656 C 248.667969 202.34375 248.679688 202.335938 248.691406 202.328125 C 248.527344 201.734375 248.4375 201.121094 248.421875 200.503906 C 248.410156 200.5 248.398438 200.496094 248.382812 200.492188 C 247.863281 200.363281 247.425781 200.035156 247.148438 199.574219 C 246.875 199.117188 246.796875 198.578125 246.925781 198.054688 C 247.058594 197.535156 247.382812 197.097656 247.84375 196.824219 C 248.304688 196.546875 248.84375 196.46875 249.363281 196.597656 C 249.378906 196.601562 249.390625 196.605469 249.402344 196.609375 C 249.710938 196.070312 250.078125 195.574219 250.503906 195.128906 C 250.496094 195.117188 250.492188 195.105469 250.484375 195.09375 C 250.207031 194.632812 250.128906 194.09375 250.261719 193.574219 C 250.390625 193.054688 250.714844 192.617188 251.175781 192.339844 C 252.125 191.773438 253.363281 192.085938 253.929688 193.035156 C 253.9375 193.046875 253.945312 193.058594 253.953125 193.070312 C 254.546875 192.90625 255.160156 192.816406 255.777344 192.800781 C 255.78125 192.789062 255.785156 192.773438 255.785156 192.761719 C 256.058594 191.6875 257.152344 191.035156 258.226562 191.304688 C 258.746094 191.4375 259.183594 191.761719 259.457031 192.222656 C 259.734375 192.683594 259.8125 193.222656 259.683594 193.742188 C 259.679688 193.757812 259.675781 193.769531 259.671875 193.78125 C 260.210938 194.085938 260.707031 194.457031 261.152344 194.882812 C 261.164062 194.875 261.175781 194.871094 261.1875 194.863281 C 262.140625 194.292969 263.375 194.605469 263.941406 195.554688 C 264.21875 196.015625 264.296875 196.554688 264.167969 197.074219 C 264.035156 197.59375 263.710938 198.03125 263.25 198.308594 C 263.238281 198.316406 263.226562 198.324219 263.214844 198.328125 C 263.378906 198.925781 263.46875 199.539062 263.480469 200.15625 C 263.496094 200.160156 263.507812 200.160156 263.523438 200.164062 C 264.042969 200.296875 264.480469 200.621094 264.757812 201.082031 C 265.03125 201.542969 265.113281 202.082031 264.980469 202.601562 C 264.847656 203.121094 264.523438 203.558594 264.0625 203.835938 C 263.601562 204.109375 263.0625 204.1875 262.542969 204.058594 C 262.53125 204.054688 262.515625 204.050781 262.503906 204.046875 C 262.199219 204.585938 261.828125 205.082031 261.402344 205.527344 C 261.410156 205.539062 261.414062 205.550781 261.421875 205.5625 C 261.699219 206.023438 261.777344 206.5625 261.648438 207.085938 C 261.515625 207.605469 261.1875 208.042969 260.730469 208.316406 C 259.78125 208.886719 258.542969 208.574219 257.976562 207.625 C 257.96875 207.613281 257.960938 207.601562 257.953125 207.585938 C 257.359375 207.753906 256.746094 207.84375 256.128906 207.855469 C 256.125 207.871094 256.121094 207.882812 256.117188 207.898438 C 255.988281 208.417969 255.664062 208.855469 255.203125 209.128906 C 254.886719 209.320312 254.535156 209.414062 254.175781 209.414062 " fill-opacity="1" fill-rule="nonzero"></path><g clip-path="url(#9cbbc7b6e2)"><path fill="#000000" d="M 325.152344 221.488281 L 187.597656 221.488281 C 187.46875 221.488281 187.363281 221.382812 187.363281 221.257812 C 187.363281 221.128906 187.46875 221.027344 187.597656 221.027344 L 324.921875 221.027344 L 324.921875 185.460938 L 300.519531 185.460938 C 300.394531 185.460938 300.289062 185.359375 300.289062 185.230469 C 300.289062 185.101562 300.394531 185 300.519531 185 L 325.152344 185 C 325.277344 185 325.382812 185.101562 325.382812 185.230469 L 325.382812 221.257812 C 325.382812 221.382812 325.277344 221.488281 325.152344 221.488281 " fill-opacity="1" fill-rule="nonzero"></path></g></svg>