<svg xmlns="http://www.w3.org/2000/svg" xmlns:xlink="http://www.w3.org/1999/xlink" width="485" viewBox="0 0 363.75 251.250001" height="335" preserveAspectRatio="xMidYMid meet"><defs><clipPath id="0052699da5"><path d="M 0.417969 0 L 363.085938 0 L 363.085938 250.503906 L 0.417969 250.503906 Z M 0.417969 0 " clip-rule="nonzero"></path></clipPath><clipPath id="a779f5fa99"><path d="M 293 25.050781 L 324 25.050781 L 324 53 L 293 53 Z M 293 25.050781 " clip-rule="nonzero"></path></clipPath><clipPath id="3a5d23926c"><path d="M 151 81 L 338.035156 81 L 338.035156 220 L 151 220 Z M 151 81 " clip-rule="nonzero"></path></clipPath><clipPath id="be50a9b3a4"><path d="M 104 219 L 338 219 L 338 232.929688 L 104 232.929688 Z M 104 219 " clip-rule="nonzero"></path></clipPath><clipPath id="f9e95c70b5"><path d="M 104 219 L 338.035156 219 L 338.035156 232.929688 L 104 232.929688 Z M 104 219 " clip-rule="nonzero"></path></clipPath><clipPath id="27d8fb6219"><path d="M 25.46875 159 L 52 159 L 52 195 L 25.46875 195 Z M 25.46875 159 " clip-rule="nonzero"></path></clipPath><clipPath id="94ea345164"><path d="M 25.46875 158 L 52 158 L 52 195 L 25.46875 195 Z M 25.46875 158 " clip-rule="nonzero"></path></clipPath><clipPath id="14fe5aae27"><path d="M 25.46875 194 L 136 194 L 136 195 L 25.46875 195 Z M 25.46875 194 " clip-rule="nonzero"></path></clipPath></defs><g clip-path="url(#0052699da5)"><path fill="#ffffff" d="M 0.417969 0 L 363.085938 0 L 363.085938 250.503906 L 0.417969 250.503906 Z M 0.417969 0 " fill-opacity="1" fill-rule="nonzero"></path><path fill="#f5f5f5" d="M 0.417969 0 L 363.085938 0 L 363.085938 250.503906 L 0.417969 250.503906 Z M 0.417969 0 " fill-opacity="1" fill-rule="nonzero"></path></g><path fill="#88e64a" d="M 321.484375 82.996094 L 295.757812 82.996094 C 294.382812 82.996094 293.265625 81.878906 293.265625 80.503906 L 293.265625 57.808594 C 293.265625 56.433594 294.382812 55.316406 295.757812 55.316406 L 321.484375 55.316406 C 322.859375 55.316406 323.976562 56.433594 323.976562 57.808594 L 323.976562 80.503906 C 323.976562 81.878906 322.859375 82.996094 321.484375 82.996094 " fill-opacity="1" fill-rule="nonzero"></path><path fill="#ffffff" d="M 300.019531 74.953125 L 317.171875 74.894531 L 317.132812 64.007812 L 299.980469 64.066406 L 300.019531 74.953125 " fill-opacity="1" fill-rule="nonzero"></path><path fill="#88e64a" d="M 308.578125 70.863281 C 308.535156 70.863281 308.492188 70.851562 308.453125 70.828125 L 302.894531 67.523438 C 302.777344 67.453125 302.738281 67.300781 302.808594 67.179688 C 302.878906 67.0625 303.03125 67.023438 303.152344 67.09375 L 308.578125 70.320312 L 313.960938 67.09375 C 314.082031 67.023438 314.234375 67.0625 314.304688 67.179688 C 314.378906 67.300781 314.339844 67.453125 314.222656 67.523438 L 308.710938 70.824219 C 308.667969 70.851562 308.625 70.863281 308.578125 70.863281 " fill-opacity="1" fill-rule="nonzero"></path><g clip-path="url(#a779f5fa99)"><path fill="#88e64a" d="M 321.484375 52.726562 L 295.757812 52.726562 C 294.382812 52.726562 293.265625 51.613281 293.265625 50.238281 L 293.265625 27.542969 C 293.265625 26.164062 294.382812 25.050781 295.757812 25.050781 L 321.484375 25.050781 C 322.859375 25.050781 323.976562 26.164062 323.976562 27.542969 L 323.976562 50.238281 C 323.976562 51.613281 322.859375 52.726562 321.484375 52.726562 " fill-opacity="1" fill-rule="nonzero"></path></g><path fill="#ffffff" d="M 312.414062 38.90625 C 312.425781 37.8125 313.324219 36.9375 314.417969 36.949219 C 315.515625 36.964844 316.390625 37.859375 316.378906 38.953125 C 316.363281 40.046875 315.464844 40.921875 314.371094 40.910156 C 313.277344 40.894531 312.398438 40 312.414062 38.90625 " fill-opacity="1" fill-rule="nonzero"></path><path fill="#ffffff" d="M 300.863281 43.882812 C 300.875 42.789062 301.773438 41.910156 302.871094 41.925781 C 303.964844 41.9375 304.839844 42.835938 304.828125 43.929688 C 304.816406 45.023438 303.917969 45.898438 302.820312 45.886719 C 301.726562 45.871094 300.851562 44.976562 300.863281 43.882812 " fill-opacity="1" fill-rule="nonzero"></path><path fill="#ffffff" d="M 304.664062 43.371094 C 304.566406 43.371094 304.476562 43.316406 304.433594 43.222656 C 304.378906 43.09375 304.4375 42.945312 304.566406 42.890625 L 312.390625 39.519531 C 312.515625 39.464844 312.664062 39.523438 312.71875 39.648438 C 312.773438 39.777344 312.714844 39.925781 312.585938 39.980469 L 304.761719 43.351562 C 304.730469 43.367188 304.699219 43.371094 304.664062 43.371094 " fill-opacity="1" fill-rule="nonzero"></path><path fill="#ffffff" d="M 300.90625 33.878906 C 300.910156 34.972656 301.800781 35.855469 302.894531 35.851562 C 303.992188 35.847656 304.875 34.960938 304.871094 33.867188 C 304.871094 32.773438 303.980469 31.886719 302.882812 31.890625 C 301.789062 31.894531 300.90625 32.785156 300.90625 33.878906 " fill-opacity="1" fill-rule="nonzero"></path><path fill="#ffffff" d="M 312.496094 38.367188 C 312.460938 38.367188 312.425781 38.359375 312.394531 38.347656 L 304.601562 34.902344 C 304.476562 34.847656 304.417969 34.699219 304.472656 34.574219 C 304.527344 34.445312 304.675781 34.386719 304.804688 34.445312 L 312.597656 37.886719 C 312.722656 37.945312 312.78125 38.09375 312.722656 38.21875 C 312.683594 38.3125 312.589844 38.367188 312.496094 38.367188 " fill-opacity="1" fill-rule="nonzero"></path><path fill="#ffffff" d="M 77.9375 57.066406 C 77.9375 62.667969 73.398438 67.207031 67.792969 67.207031 C 62.191406 67.207031 57.648438 62.667969 57.648438 57.066406 C 57.648438 51.464844 62.191406 46.925781 67.792969 46.925781 C 73.398438 46.925781 77.9375 51.464844 77.9375 57.066406 Z M 95.6875 57.066406 C 95.6875 54.050781 93.242188 51.605469 90.226562 51.605469 C 90 51.605469 89.78125 51.625 89.5625 51.648438 C 89.019531 49.457031 88.15625 47.394531 87.019531 45.507812 C 87.191406 45.375 87.359375 45.230469 87.519531 45.070312 C 89.652344 42.9375 89.652344 39.480469 87.519531 37.347656 C 85.386719 35.214844 81.925781 35.214844 79.792969 37.347656 C 79.632812 37.507812 79.492188 37.675781 79.355469 37.847656 C 77.472656 36.714844 75.40625 35.847656 73.210938 35.304688 C 73.238281 35.085938 73.257812 34.867188 73.257812 34.644531 C 73.257812 31.625 70.8125 29.179688 67.792969 29.179688 C 64.777344 29.179688 62.332031 31.625 62.332031 34.644531 C 62.332031 34.867188 62.347656 35.085938 62.375 35.304688 C 60.183594 35.847656 58.117188 36.714844 56.230469 37.847656 C 56.097656 37.675781 55.953125 37.507812 55.792969 37.347656 C 53.660156 35.214844 50.203125 35.214844 48.070312 37.347656 C 45.9375 39.480469 45.9375 42.9375 48.070312 45.070312 C 48.226562 45.230469 48.394531 45.375 48.570312 45.507812 C 47.433594 47.394531 46.566406 49.457031 46.023438 51.648438 C 45.808594 51.625 45.585938 51.605469 45.359375 51.605469 C 42.34375 51.605469 39.898438 54.050781 39.898438 57.066406 C 39.898438 60.082031 42.34375 62.527344 45.359375 62.527344 C 45.585938 62.527344 45.808594 62.511719 46.023438 62.484375 C 46.566406 64.675781 47.433594 66.742188 48.570312 68.625 C 48.394531 68.761719 48.226562 68.902344 48.070312 69.0625 C 45.9375 71.195312 45.9375 74.652344 48.070312 76.785156 C 50.203125 78.917969 53.660156 78.917969 55.792969 76.785156 C 55.953125 76.625 56.097656 76.457031 56.230469 76.285156 C 58.117188 77.421875 60.183594 78.285156 62.375 78.828125 C 62.347656 79.046875 62.332031 79.265625 62.332031 79.492188 C 62.332031 82.507812 64.777344 84.953125 67.792969 84.953125 C 70.8125 84.953125 73.257812 82.507812 73.257812 79.492188 C 73.257812 79.265625 73.238281 79.046875 73.210938 78.828125 C 75.40625 78.285156 77.472656 77.421875 79.355469 76.285156 C 79.492188 76.457031 79.632812 76.625 79.792969 76.785156 C 81.925781 78.917969 85.386719 78.917969 87.519531 76.785156 C 89.652344 74.652344 89.652344 71.195312 87.519531 69.0625 C 87.359375 68.902344 87.191406 68.761719 87.019531 68.625 C 88.15625 66.742188 89.019531 64.675781 89.5625 62.484375 C 89.78125 62.511719 90 62.527344 90.226562 62.527344 C 93.242188 62.527344 95.6875 60.082031 95.6875 57.066406 " fill-opacity="1" fill-rule="nonzero"></path><path fill="#000000" d="M 67.792969 47.175781 C 62.339844 47.175781 57.898438 51.613281 57.898438 57.066406 C 57.898438 62.519531 62.339844 66.957031 67.792969 66.957031 C 73.25 66.957031 77.6875 62.519531 77.6875 57.066406 C 77.6875 51.613281 73.25 47.175781 67.792969 47.175781 Z M 67.792969 67.457031 C 62.0625 67.457031 57.398438 62.796875 57.398438 57.066406 C 57.398438 51.335938 62.0625 46.675781 67.792969 46.675781 C 73.527344 46.675781 78.191406 51.335938 78.191406 57.066406 C 78.191406 62.796875 73.527344 67.457031 67.792969 67.457031 Z M 56.234375 76.035156 C 56.277344 76.035156 56.320312 76.046875 56.359375 76.070312 C 58.25 77.207031 60.292969 78.054688 62.433594 78.585938 C 62.558594 78.617188 62.640625 78.734375 62.625 78.859375 C 62.59375 79.09375 62.582031 79.300781 62.582031 79.492188 C 62.582031 82.363281 64.917969 84.703125 67.792969 84.703125 C 70.667969 84.703125 73.007812 82.363281 73.007812 79.492188 C 73.007812 79.300781 72.992188 79.09375 72.964844 78.859375 C 72.949219 78.734375 73.03125 78.617188 73.152344 78.585938 C 75.296875 78.054688 77.339844 77.207031 79.226562 76.070312 C 79.335938 76.007812 79.476562 76.03125 79.554688 76.132812 C 79.699219 76.316406 79.835938 76.472656 79.96875 76.609375 C 82.003906 78.640625 85.308594 78.636719 87.339844 76.609375 C 88.324219 75.625 88.867188 74.316406 88.867188 72.925781 C 88.867188 71.53125 88.324219 70.222656 87.339844 69.238281 C 87.207031 69.101562 87.050781 68.96875 86.863281 68.820312 C 86.765625 68.746094 86.738281 68.605469 86.804688 68.496094 C 87.941406 66.609375 88.789062 64.566406 89.320312 62.421875 C 89.351562 62.300781 89.472656 62.222656 89.59375 62.234375 C 89.828125 62.265625 90.035156 62.277344 90.226562 62.277344 C 93.101562 62.277344 95.4375 59.9375 95.4375 57.066406 C 95.4375 54.195312 93.101562 51.855469 90.226562 51.855469 C 90.035156 51.855469 89.828125 51.871094 89.59375 51.898438 C 89.472656 51.914062 89.351562 51.832031 89.320312 51.710938 C 88.789062 49.566406 87.941406 47.523438 86.804688 45.636719 C 86.738281 45.527344 86.765625 45.390625 86.863281 45.3125 C 87.050781 45.167969 87.207031 45.03125 87.339844 44.894531 C 88.324219 43.910156 88.867188 42.601562 88.867188 41.210938 C 88.867188 39.816406 88.324219 38.511719 87.339844 37.527344 C 85.308594 35.496094 82.003906 35.496094 79.96875 37.527344 C 79.835938 37.660156 79.699219 37.816406 79.554688 38.003906 C 79.476562 38.101562 79.335938 38.128906 79.226562 38.0625 C 77.339844 36.925781 75.296875 36.078125 73.152344 35.546875 C 73.03125 35.515625 72.949219 35.398438 72.964844 35.273438 C 72.992188 35.039062 73.007812 34.832031 73.007812 34.644531 C 73.007812 31.769531 70.667969 29.433594 67.792969 29.433594 C 64.917969 29.433594 62.582031 31.769531 62.582031 34.644531 C 62.582031 34.832031 62.59375 35.039062 62.625 35.273438 C 62.640625 35.398438 62.558594 35.515625 62.433594 35.546875 C 60.292969 36.078125 58.25 36.925781 56.359375 38.0625 C 56.253906 38.128906 56.113281 38.101562 56.035156 38.003906 C 55.890625 37.816406 55.753906 37.660156 55.617188 37.527344 C 53.585938 35.496094 50.277344 35.496094 48.246094 37.527344 C 47.261719 38.511719 46.71875 39.816406 46.71875 41.210938 C 46.71875 42.601562 47.261719 43.910156 48.246094 44.894531 C 48.382812 45.03125 48.535156 45.167969 48.722656 45.3125 C 48.824219 45.390625 48.847656 45.527344 48.785156 45.636719 C 47.644531 47.523438 46.800781 49.566406 46.265625 51.710938 C 46.238281 51.832031 46.117188 51.914062 45.996094 51.898438 C 45.761719 51.871094 45.554688 51.855469 45.363281 51.855469 C 42.488281 51.855469 40.148438 54.195312 40.148438 57.066406 C 40.148438 59.9375 42.488281 62.277344 45.363281 62.277344 C 45.554688 62.277344 45.761719 62.265625 45.996094 62.234375 C 46.117188 62.222656 46.238281 62.300781 46.265625 62.421875 C 46.800781 64.566406 47.644531 66.609375 48.785156 68.496094 C 48.847656 68.605469 48.824219 68.746094 48.722656 68.820312 C 48.535156 68.96875 48.382812 69.105469 48.246094 69.238281 C 47.261719 70.222656 46.71875 71.53125 46.71875 72.925781 C 46.71875 74.316406 47.261719 75.625 48.246094 76.609375 C 50.277344 78.640625 53.585938 78.640625 55.617188 76.609375 C 55.753906 76.472656 55.890625 76.316406 56.035156 76.132812 C 56.085938 76.070312 56.15625 76.035156 56.234375 76.035156 Z M 67.792969 85.203125 C 64.644531 85.203125 62.082031 82.640625 62.082031 79.492188 C 62.082031 79.34375 62.089844 79.1875 62.101562 79.019531 C 60.058594 78.492188 58.105469 77.683594 56.289062 76.613281 C 56.183594 76.742188 56.078125 76.855469 55.972656 76.960938 C 53.746094 79.1875 50.121094 79.1875 47.890625 76.960938 C 46.8125 75.882812 46.21875 74.449219 46.21875 72.925781 C 46.21875 71.398438 46.8125 69.964844 47.890625 68.882812 C 47.996094 68.78125 48.113281 68.675781 48.242188 68.566406 C 47.171875 66.75 46.363281 64.796875 45.835938 62.757812 C 45.667969 62.769531 45.511719 62.777344 45.363281 62.777344 C 42.210938 62.777344 39.648438 60.21875 39.648438 57.066406 C 39.648438 53.917969 42.210938 51.355469 45.363281 51.355469 C 45.511719 51.355469 45.667969 51.363281 45.835938 51.378906 C 46.363281 49.335938 47.171875 47.382812 48.242188 45.566406 C 48.113281 45.460938 47.996094 45.355469 47.890625 45.25 C 46.8125 44.171875 46.21875 42.738281 46.21875 41.210938 C 46.21875 39.683594 46.8125 38.25 47.890625 37.171875 C 50.121094 34.945312 53.742188 34.945312 55.972656 37.171875 C 56.078125 37.277344 56.183594 37.394531 56.289062 37.523438 C 58.105469 36.453125 60.058594 35.644531 62.101562 35.117188 C 62.089844 34.949219 62.082031 34.792969 62.082031 34.644531 C 62.082031 31.492188 64.644531 28.929688 67.792969 28.929688 C 70.945312 28.929688 73.507812 31.492188 73.507812 34.644531 C 73.507812 34.792969 73.5 34.949219 73.484375 35.117188 C 75.527344 35.644531 77.480469 36.453125 79.296875 37.523438 C 79.40625 37.394531 79.511719 37.277344 79.617188 37.171875 C 81.84375 34.945312 85.46875 34.945312 87.695312 37.171875 C 88.773438 38.25 89.371094 39.683594 89.371094 41.210938 C 89.371094 42.738281 88.773438 44.171875 87.695312 45.25 C 87.589844 45.355469 87.476562 45.460938 87.34375 45.566406 C 88.414062 47.382812 89.226562 49.335938 89.753906 51.378906 C 89.921875 51.363281 90.078125 51.355469 90.226562 51.355469 C 93.375 51.355469 95.941406 53.917969 95.941406 57.066406 C 95.941406 60.21875 93.375 62.777344 90.226562 62.777344 C 90.078125 62.777344 89.921875 62.769531 89.753906 62.757812 C 89.226562 64.796875 88.417969 66.75 87.34375 68.566406 C 87.476562 68.675781 87.589844 68.777344 87.695312 68.882812 C 88.773438 69.964844 89.371094 71.398438 89.371094 72.925781 C 89.371094 74.449219 88.773438 75.882812 87.695312 76.960938 C 85.46875 79.1875 81.84375 79.1875 79.617188 76.960938 C 79.511719 76.855469 79.40625 76.742188 79.296875 76.613281 C 77.480469 77.683594 75.527344 78.492188 73.484375 79.019531 C 73.5 79.1875 73.507812 79.34375 73.507812 79.492188 C 73.507812 82.640625 70.945312 85.203125 67.792969 85.203125 " fill-opacity="1" fill-rule="nonzero"></path><path fill="#1b4200" d="M 50.253906 92.3125 C 50.253906 94.640625 48.367188 96.53125 46.039062 96.53125 C 43.707031 96.53125 41.820312 94.640625 41.820312 92.3125 C 41.820312 89.984375 43.707031 88.097656 46.039062 88.097656 C 48.367188 88.097656 50.253906 89.984375 50.253906 92.3125 Z M 57.636719 92.3125 C 57.636719 91.058594 56.617188 90.042969 55.363281 90.042969 C 55.269531 90.042969 55.179688 90.050781 55.089844 90.0625 C 54.863281 89.148438 54.503906 88.292969 54.03125 87.507812 C 54.101562 87.453125 54.171875 87.390625 54.238281 87.324219 C 55.125 86.4375 55.125 85 54.238281 84.117188 C 53.351562 83.226562 51.914062 83.226562 51.027344 84.117188 C 50.960938 84.183594 50.902344 84.25 50.84375 84.324219 C 50.0625 83.851562 49.203125 83.492188 48.289062 83.265625 C 48.300781 83.175781 48.308594 83.085938 48.308594 82.988281 C 48.308594 81.738281 47.292969 80.71875 46.039062 80.71875 C 44.785156 80.71875 43.765625 81.738281 43.765625 82.988281 C 43.765625 83.085938 43.773438 83.175781 43.785156 83.265625 C 42.875 83.492188 42.015625 83.851562 41.230469 84.324219 C 41.175781 84.25 41.117188 84.183594 41.050781 84.117188 C 40.164062 83.226562 38.722656 83.226562 37.835938 84.117188 C 36.949219 85 36.949219 86.4375 37.835938 87.324219 C 37.902344 87.390625 37.972656 87.453125 38.046875 87.507812 C 37.574219 88.292969 37.214844 89.148438 36.988281 90.0625 C 36.898438 90.050781 36.804688 90.042969 36.710938 90.042969 C 35.457031 90.042969 34.441406 91.058594 34.441406 92.3125 C 34.441406 93.566406 35.457031 94.582031 36.710938 94.582031 C 36.804688 94.582031 36.898438 94.574219 36.988281 94.566406 C 37.214844 95.476562 37.574219 96.335938 38.046875 97.117188 C 37.972656 97.175781 37.902344 97.234375 37.835938 97.300781 C 36.949219 98.1875 36.949219 99.625 37.835938 100.511719 C 38.722656 101.398438 40.164062 101.398438 41.050781 100.511719 C 41.117188 100.445312 41.175781 100.375 41.230469 100.304688 C 42.015625 100.773438 42.875 101.132812 43.785156 101.359375 C 43.773438 101.449219 43.765625 101.542969 43.765625 101.636719 C 43.765625 102.890625 44.785156 103.90625 46.039062 103.90625 C 47.292969 103.90625 48.308594 102.890625 48.308594 101.636719 C 48.308594 101.542969 48.300781 101.449219 48.289062 101.359375 C 49.203125 101.132812 50.0625 100.773438 50.84375 100.304688 C 50.902344 100.375 50.960938 100.445312 51.027344 100.511719 C 51.914062 101.398438 53.351562 101.398438 54.238281 100.511719 C 55.125 99.625 55.125 98.1875 54.238281 97.300781 C 54.171875 97.234375 54.101562 97.175781 54.03125 97.117188 C 54.503906 96.335938 54.863281 95.476562 55.089844 94.566406 C 55.179688 94.574219 55.269531 94.582031 55.363281 94.582031 C 56.617188 94.582031 57.636719 93.566406 57.636719 92.3125 " fill-opacity="1" fill-rule="nonzero"></path><path fill="#ffffff" d="M 329.273438 81.558594 L 160.207031 81.558594 C 155.515625 81.558594 151.710938 85.363281 151.710938 90.054688 L 151.710938 210.957031 C 151.710938 215.648438 155.515625 219.453125 160.207031 219.453125 L 337.769531 219.453125 L 337.769531 90.054688 C 337.769531 85.363281 333.964844 81.558594 329.273438 81.558594 " fill-opacity="1" fill-rule="nonzero"></path><g clip-path="url(#3a5d23926c)"><path fill="#000000" d="M 160.207031 81.808594 C 155.660156 81.808594 151.960938 85.507812 151.960938 90.054688 L 151.960938 210.957031 C 151.960938 215.503906 155.660156 219.199219 160.207031 219.199219 L 337.519531 219.199219 L 337.519531 90.054688 C 337.519531 85.507812 333.820312 81.808594 329.273438 81.808594 Z M 337.769531 219.703125 L 160.207031 219.703125 C 155.382812 219.703125 151.460938 215.78125 151.460938 210.957031 L 151.460938 90.054688 C 151.460938 85.230469 155.382812 81.308594 160.207031 81.308594 L 329.273438 81.308594 C 334.097656 81.308594 338.019531 85.230469 338.019531 90.054688 L 338.019531 219.453125 C 338.019531 219.589844 337.90625 219.703125 337.769531 219.703125 " fill-opacity="1" fill-rule="nonzero"></path></g><path fill="#ffffff" d="M 163.402344 213.527344 C 160.722656 213.527344 158.546875 211.355469 158.546875 208.671875 L 158.546875 92.335938 C 158.546875 89.65625 160.722656 87.484375 163.402344 87.484375 L 326.078125 87.484375 C 328.761719 87.484375 330.933594 89.65625 330.933594 92.335938 L 330.933594 208.019531 C 330.933594 211.0625 328.46875 213.527344 325.421875 213.527344 L 163.402344 213.527344 " fill-opacity="1" fill-rule="nonzero"></path><path fill="#000000" d="M 163.402344 87.734375 C 160.863281 87.734375 158.796875 89.800781 158.796875 92.335938 L 158.796875 208.671875 C 158.796875 211.210938 160.863281 213.277344 163.402344 213.277344 L 325.421875 213.277344 C 328.324219 213.277344 330.683594 210.917969 330.683594 208.019531 L 330.683594 92.335938 C 330.683594 89.800781 328.617188 87.734375 326.078125 87.734375 Z M 325.421875 213.78125 L 163.402344 213.78125 C 160.585938 213.78125 158.292969 211.488281 158.292969 208.671875 L 158.292969 92.335938 C 158.292969 89.523438 160.585938 87.230469 163.402344 87.230469 L 326.078125 87.230469 C 328.894531 87.230469 331.183594 89.523438 331.183594 92.335938 L 331.183594 208.019531 C 331.183594 211.195312 328.601562 213.78125 325.421875 213.78125 " fill-opacity="1" fill-rule="nonzero"></path><g clip-path="url(#be50a9b3a4)"><path fill="#ffffff" d="M 324.125 232.914062 L 118.382812 232.914062 C 110.84375 232.914062 104.734375 226.804688 104.734375 219.265625 L 337.769531 219.265625 C 337.769531 226.804688 331.660156 232.914062 324.125 232.914062 " fill-opacity="1" fill-rule="nonzero"></path></g><g clip-path="url(#f9e95c70b5)"><path fill="#000000" d="M 104.988281 219.519531 C 105.125 226.789062 111.082031 232.660156 118.382812 232.660156 L 324.125 232.660156 C 331.425781 232.660156 337.382812 226.789062 337.515625 219.519531 Z M 324.125 233.164062 L 118.382812 233.164062 C 110.71875 233.164062 104.484375 226.929688 104.484375 219.265625 C 104.484375 219.128906 104.597656 219.015625 104.738281 219.015625 L 337.769531 219.015625 C 337.90625 219.015625 338.019531 219.128906 338.019531 219.265625 C 338.019531 226.929688 331.785156 233.164062 324.125 233.164062 " fill-opacity="1" fill-rule="nonzero"></path></g><path fill="#000000" d="M 248.167969 140.351562 L 251.742188 140.351562 L 251.742188 158.71875 L 248.820312 158.71875 L 248.167969 140.351562 " fill-opacity="1" fill-rule="nonzero"></path><path fill="#ffffff" d="M 234.964844 137.925781 L 230.945312 141.949219 L 230.945312 151.992188 L 248.832031 151.992188 L 248.832031 137.925781 L 234.964844 137.925781 " fill-opacity="1" fill-rule="nonzero"></path><path fill="#000000" d="M 231.195312 151.742188 L 248.582031 151.742188 L 248.582031 138.175781 L 235.066406 138.175781 L 231.195312 142.050781 Z M 248.832031 152.242188 L 230.945312 152.242188 C 230.804688 152.242188 230.695312 152.132812 230.695312 151.992188 L 230.695312 141.949219 C 230.695312 141.878906 230.71875 141.816406 230.765625 141.769531 L 234.789062 137.75 C 234.835938 137.703125 234.898438 137.675781 234.964844 137.675781 L 248.832031 137.675781 C 248.972656 137.675781 249.082031 137.789062 249.082031 137.925781 L 249.082031 151.992188 C 249.082031 152.132812 248.972656 152.242188 248.832031 152.242188 " fill-opacity="1" fill-rule="nonzero"></path><path fill="#000000" d="M 234.964844 142.199219 L 230.945312 142.199219 C 230.804688 142.199219 230.695312 142.085938 230.695312 141.949219 C 230.695312 141.808594 230.804688 141.695312 230.945312 141.695312 L 234.714844 141.695312 L 234.714844 137.925781 C 234.714844 137.789062 234.824219 137.675781 234.964844 137.675781 C 235.105469 137.675781 235.214844 137.789062 235.214844 137.925781 L 235.214844 141.949219 C 235.214844 142.085938 235.105469 142.199219 234.964844 142.199219 " fill-opacity="1" fill-rule="nonzero"></path><path fill="#ffffff" d="M 248.242188 148.25 L 248.242188 147.398438 C 248.242188 146.964844 247.890625 146.609375 247.457031 146.609375 L 242.792969 146.609375 C 242.359375 146.609375 242.007812 146.964844 242.007812 147.398438 L 242.007812 148.25 L 229.339844 148.25 L 229.339844 161.511719 C 229.339844 162.328125 230 162.992188 230.820312 162.992188 L 250.4375 162.992188 L 250.4375 148.25 L 248.242188 148.25 " fill-opacity="1" fill-rule="nonzero"></path><path fill="#000000" d="M 229.589844 148.5 L 229.589844 161.511719 C 229.589844 162.191406 230.140625 162.742188 230.820312 162.742188 L 250.1875 162.742188 L 250.1875 148.5 L 248.242188 148.5 C 248.101562 148.5 247.992188 148.390625 247.992188 148.25 L 247.992188 147.398438 C 247.992188 147.101562 247.75 146.863281 247.457031 146.863281 L 242.792969 146.863281 C 242.496094 146.863281 242.257812 147.101562 242.257812 147.398438 L 242.257812 148.25 C 242.257812 148.390625 242.144531 148.5 242.007812 148.5 Z M 250.4375 163.242188 L 230.820312 163.242188 C 229.867188 163.242188 229.089844 162.464844 229.089844 161.511719 L 229.089844 148.25 C 229.089844 148.113281 229.203125 148 229.339844 148 L 241.757812 148 L 241.757812 147.398438 C 241.757812 146.828125 242.222656 146.359375 242.792969 146.359375 L 247.457031 146.359375 C 248.027344 146.359375 248.492188 146.828125 248.492188 147.398438 L 248.492188 148 L 250.4375 148 C 250.574219 148 250.6875 148.113281 250.6875 148.25 L 250.6875 162.992188 C 250.6875 163.128906 250.574219 163.242188 250.4375 163.242188 " fill-opacity="1" fill-rule="nonzero"></path><path fill="#000000" d="M 279.28125 169.234375 L 282.855469 169.234375 L 282.855469 187.601562 L 279.929688 187.601562 L 279.28125 169.234375 " fill-opacity="1" fill-rule="nonzero"></path><path fill="#ffffff" d="M 266.078125 166.808594 L 262.054688 170.828125 L 262.054688 180.875 L 279.945312 180.875 L 279.945312 166.808594 L 266.078125 166.808594 " fill-opacity="1" fill-rule="nonzero"></path><path fill="#000000" d="M 262.308594 180.625 L 279.695312 180.625 L 279.695312 167.058594 L 266.179688 167.058594 L 262.308594 170.933594 Z M 279.945312 181.125 L 262.058594 181.125 C 261.917969 181.125 261.804688 181.011719 261.804688 180.875 L 261.804688 170.828125 C 261.804688 170.761719 261.832031 170.699219 261.878906 170.652344 L 265.898438 166.632812 C 265.945312 166.585938 266.011719 166.558594 266.078125 166.558594 L 279.945312 166.558594 C 280.082031 166.558594 280.195312 166.667969 280.195312 166.808594 L 280.195312 180.875 C 280.195312 181.011719 280.082031 181.125 279.945312 181.125 " fill-opacity="1" fill-rule="nonzero"></path><path fill="#000000" d="M 266.078125 171.078125 L 262.058594 171.078125 C 261.917969 171.078125 261.804688 170.96875 261.804688 170.828125 C 261.804688 170.6875 261.917969 170.578125 262.058594 170.578125 L 265.824219 170.578125 L 265.824219 166.808594 C 265.824219 166.667969 265.9375 166.558594 266.078125 166.558594 C 266.214844 166.558594 266.328125 166.667969 266.328125 166.808594 L 266.328125 170.828125 C 266.328125 170.96875 266.214844 171.078125 266.078125 171.078125 " fill-opacity="1" fill-rule="nonzero"></path><path fill="#ffffff" d="M 279.355469 177.132812 L 279.355469 176.28125 C 279.355469 175.84375 279 175.492188 278.566406 175.492188 L 273.90625 175.492188 C 273.472656 175.492188 273.117188 175.84375 273.117188 176.28125 L 273.117188 177.132812 L 260.453125 177.132812 L 260.453125 190.394531 C 260.453125 191.210938 261.113281 191.871094 261.929688 191.871094 L 281.550781 191.871094 L 281.550781 177.132812 L 279.355469 177.132812 " fill-opacity="1" fill-rule="nonzero"></path><path fill="#000000" d="M 260.703125 177.382812 L 260.703125 190.394531 C 260.703125 191.070312 261.253906 191.621094 261.929688 191.621094 L 281.296875 191.621094 L 281.296875 177.382812 L 279.355469 177.382812 C 279.214844 177.382812 279.101562 177.269531 279.101562 177.132812 L 279.101562 176.28125 C 279.101562 175.984375 278.863281 175.742188 278.566406 175.742188 L 273.90625 175.742188 C 273.609375 175.742188 273.367188 175.984375 273.367188 176.28125 L 273.367188 177.132812 C 273.367188 177.269531 273.257812 177.382812 273.117188 177.382812 Z M 281.550781 192.125 L 261.929688 192.125 C 260.976562 192.125 260.199219 191.347656 260.199219 190.394531 L 260.199219 177.132812 C 260.199219 176.992188 260.3125 176.882812 260.453125 176.882812 L 272.867188 176.882812 L 272.867188 176.28125 C 272.867188 175.707031 273.332031 175.242188 273.90625 175.242188 L 278.566406 175.242188 C 279.140625 175.242188 279.605469 175.707031 279.605469 176.28125 L 279.605469 176.882812 L 281.550781 176.882812 C 281.6875 176.882812 281.800781 176.992188 281.800781 177.132812 L 281.800781 191.871094 C 281.800781 192.011719 281.6875 192.125 281.550781 192.125 " fill-opacity="1" fill-rule="nonzero"></path><path fill="#000000" d="M 313.007812 107.527344 L 316.585938 107.527344 L 316.585938 125.894531 L 313.660156 125.894531 L 313.007812 107.527344 " fill-opacity="1" fill-rule="nonzero"></path><path fill="#ffffff" d="M 299.804688 105.101562 L 295.785156 109.121094 L 295.785156 119.167969 L 313.675781 119.167969 L 313.675781 105.101562 L 299.804688 105.101562 " fill-opacity="1" fill-rule="nonzero"></path><path fill="#000000" d="M 296.035156 118.917969 L 313.421875 118.917969 L 313.421875 105.351562 L 299.910156 105.351562 L 296.035156 109.226562 Z M 313.675781 119.417969 L 295.785156 119.417969 C 295.648438 119.417969 295.535156 119.308594 295.535156 119.167969 L 295.535156 109.121094 C 295.535156 109.054688 295.5625 108.992188 295.609375 108.945312 L 299.628906 104.925781 C 299.675781 104.878906 299.738281 104.851562 299.804688 104.851562 L 313.675781 104.851562 C 313.8125 104.851562 313.925781 104.964844 313.925781 105.101562 L 313.925781 119.167969 C 313.925781 119.308594 313.8125 119.417969 313.675781 119.417969 " fill-opacity="1" fill-rule="nonzero"></path><path fill="#000000" d="M 299.804688 109.371094 L 295.785156 109.371094 C 295.648438 109.371094 295.535156 109.261719 295.535156 109.121094 C 295.535156 108.984375 295.648438 108.871094 295.785156 108.871094 L 299.554688 108.871094 L 299.554688 105.101562 C 299.554688 104.964844 299.667969 104.851562 299.804688 104.851562 C 299.945312 104.851562 300.054688 104.964844 300.054688 105.101562 L 300.054688 109.121094 C 300.054688 109.261719 299.945312 109.371094 299.804688 109.371094 " fill-opacity="1" fill-rule="nonzero"></path><path fill="#ffffff" d="M 313.082031 115.425781 L 313.082031 114.574219 C 313.082031 114.136719 312.730469 113.785156 312.296875 113.785156 L 307.636719 113.785156 C 307.199219 113.785156 306.847656 114.136719 306.847656 114.574219 L 306.847656 115.425781 L 294.179688 115.425781 L 294.179688 128.6875 C 294.179688 129.503906 294.84375 130.167969 295.660156 130.167969 L 315.28125 130.167969 L 315.28125 115.425781 L 313.082031 115.425781 " fill-opacity="1" fill-rule="nonzero"></path><path fill="#000000" d="M 294.429688 115.675781 L 294.429688 128.6875 C 294.429688 129.363281 294.984375 129.917969 295.660156 129.917969 L 315.027344 129.917969 L 315.027344 115.675781 L 313.082031 115.675781 C 312.945312 115.675781 312.832031 115.566406 312.832031 115.425781 L 312.832031 114.574219 C 312.832031 114.277344 312.59375 114.039062 312.296875 114.039062 L 307.636719 114.039062 C 307.339844 114.039062 307.097656 114.277344 307.097656 114.574219 L 307.097656 115.425781 C 307.097656 115.566406 306.988281 115.675781 306.847656 115.675781 Z M 315.28125 130.417969 L 295.660156 130.417969 C 294.707031 130.417969 293.929688 129.640625 293.929688 128.6875 L 293.929688 115.425781 C 293.929688 115.289062 294.042969 115.175781 294.179688 115.175781 L 306.597656 115.175781 L 306.597656 114.574219 C 306.597656 114.003906 307.0625 113.535156 307.636719 113.535156 L 312.296875 113.535156 C 312.871094 113.535156 313.335938 114.003906 313.335938 114.574219 L 313.335938 115.175781 L 315.28125 115.175781 C 315.417969 115.175781 315.53125 115.289062 315.53125 115.425781 L 315.53125 130.167969 C 315.53125 130.304688 315.417969 130.417969 315.28125 130.417969 " fill-opacity="1" fill-rule="nonzero"></path><path fill="#000000" d="M 317.457031 181.765625 L 321.035156 181.765625 L 321.035156 200.132812 L 318.109375 200.132812 L 317.457031 181.765625 " fill-opacity="1" fill-rule="nonzero"></path><path fill="#ffffff" d="M 304.253906 179.339844 L 300.234375 183.359375 L 300.234375 193.40625 L 318.121094 193.40625 L 318.121094 179.339844 L 304.253906 179.339844 " fill-opacity="1" fill-rule="nonzero"></path><path fill="#000000" d="M 300.484375 193.15625 L 317.871094 193.15625 L 317.871094 179.589844 L 304.359375 179.589844 L 300.484375 183.464844 Z M 318.121094 193.660156 L 300.234375 193.660156 C 300.09375 193.660156 299.984375 193.546875 299.984375 193.40625 L 299.984375 183.359375 C 299.984375 183.292969 300.011719 183.230469 300.054688 183.183594 L 304.078125 179.164062 C 304.125 179.117188 304.1875 179.089844 304.253906 179.089844 L 318.121094 179.089844 C 318.261719 179.089844 318.371094 179.203125 318.371094 179.339844 L 318.371094 193.40625 C 318.371094 193.546875 318.261719 193.660156 318.121094 193.660156 " fill-opacity="1" fill-rule="nonzero"></path><path fill="#000000" d="M 304.253906 183.609375 L 300.234375 183.609375 C 300.09375 183.609375 299.984375 183.5 299.984375 183.359375 C 299.984375 183.222656 300.09375 183.109375 300.234375 183.109375 L 304.003906 183.109375 L 304.003906 179.339844 C 304.003906 179.203125 304.117188 179.089844 304.253906 179.089844 C 304.394531 179.089844 304.503906 179.203125 304.503906 179.339844 L 304.503906 183.359375 C 304.503906 183.5 304.394531 183.609375 304.253906 183.609375 " fill-opacity="1" fill-rule="nonzero"></path><path fill="#ffffff" d="M 317.53125 189.664062 L 317.53125 188.8125 C 317.53125 188.378906 317.179688 188.027344 316.746094 188.027344 L 312.082031 188.027344 C 311.648438 188.027344 311.296875 188.378906 311.296875 188.8125 L 311.296875 189.664062 L 298.628906 189.664062 L 298.628906 202.925781 C 298.628906 203.746094 299.292969 204.40625 300.109375 204.40625 L 319.726562 204.40625 L 319.726562 189.664062 L 317.53125 189.664062 " fill-opacity="1" fill-rule="nonzero"></path><path fill="#000000" d="M 298.878906 189.914062 L 298.878906 202.925781 C 298.878906 203.605469 299.429688 204.15625 300.109375 204.15625 L 319.476562 204.15625 L 319.476562 189.914062 L 317.53125 189.914062 C 317.394531 189.914062 317.28125 189.804688 317.28125 189.664062 L 317.28125 188.8125 C 317.28125 188.515625 317.042969 188.277344 316.746094 188.277344 L 312.082031 188.277344 C 311.789062 188.277344 311.546875 188.515625 311.546875 188.8125 L 311.546875 189.664062 C 311.546875 189.804688 311.433594 189.914062 311.296875 189.914062 Z M 319.726562 204.65625 L 300.109375 204.65625 C 299.15625 204.65625 298.378906 203.882812 298.378906 202.925781 L 298.378906 189.664062 C 298.378906 189.527344 298.492188 189.414062 298.628906 189.414062 L 311.046875 189.414062 L 311.046875 188.8125 C 311.046875 188.242188 311.511719 187.777344 312.082031 187.777344 L 316.746094 187.777344 C 317.316406 187.777344 317.78125 188.242188 317.78125 188.8125 L 317.78125 189.414062 L 319.726562 189.414062 C 319.867188 189.414062 319.976562 189.527344 319.976562 189.664062 L 319.976562 204.40625 C 319.976562 204.546875 319.867188 204.65625 319.726562 204.65625 " fill-opacity="1" fill-rule="nonzero"></path><g clip-path="url(#27d8fb6219)"><path fill="#ffffff" d="M 50.457031 194.117188 L 37.488281 194.117188 C 34.148438 191.863281 31.0625 189.214844 28.972656 185.796875 C 27.613281 183.578125 26.703125 180.847656 27.523438 178.375 C 28.34375 175.902344 31.46875 174.164062 33.691406 175.523438 C 31.742188 174.113281 29.769531 172.679688 28.253906 170.8125 C 26.738281 168.945312 25.703125 166.566406 25.949219 164.171875 C 26.195312 161.78125 27.960938 159.476562 30.332031 159.09375 C 34.210938 158.472656 37.457031 162.3125 39.824219 164.824219 C 42.945312 168.140625 45.882812 171.679688 48.050781 175.703125 C 50.867188 180.933594 52.300781 187.136719 50.835938 192.894531 C 50.730469 193.300781 50.605469 193.714844 50.457031 194.117188 " fill-opacity="1" fill-rule="nonzero"></path></g><g clip-path="url(#94ea345164)"><path fill="#000000" d="M 37.566406 193.867188 L 50.28125 193.867188 C 50.394531 193.546875 50.5 193.199219 50.59375 192.832031 C 51.917969 187.628906 50.9375 181.589844 47.832031 175.824219 C 45.980469 172.386719 43.453125 169.046875 39.640625 164.996094 C 39.476562 164.824219 39.308594 164.640625 39.132812 164.457031 C 36.90625 162.0625 33.851562 158.785156 30.375 159.34375 C 28.242188 159.683594 26.449219 161.773438 26.199219 164.199219 C 25.980469 166.308594 26.78125 168.605469 28.449219 170.65625 C 29.953125 172.507812 31.929688 173.9375 33.839844 175.316406 C 33.945312 175.398438 33.972656 175.546875 33.898438 175.660156 C 33.824219 175.773438 33.675781 175.804688 33.5625 175.734375 C 32.726562 175.226562 31.691406 175.160156 30.640625 175.542969 C 29.316406 176.03125 28.183594 177.171875 27.761719 178.453125 C 26.847656 181.210938 28.261719 184.15625 29.1875 185.667969 C 30.992188 188.613281 33.65625 191.222656 37.566406 193.867188 Z M 50.457031 194.367188 L 37.488281 194.367188 C 37.4375 194.367188 37.390625 194.351562 37.347656 194.324219 C 33.34375 191.625 30.613281 188.953125 28.757812 185.929688 C 27.082031 183.191406 26.558594 180.480469 27.285156 178.296875 C 27.761719 176.855469 28.984375 175.617188 30.46875 175.074219 C 31.089844 174.847656 31.707031 174.761719 32.292969 174.808594 C 30.769531 173.679688 29.273438 172.464844 28.058594 170.972656 C 26.308594 168.816406 25.46875 166.390625 25.699219 164.148438 C 25.972656 161.503906 27.949219 159.222656 30.292969 158.847656 C 34.035156 158.246094 37.195312 161.636719 39.5 164.113281 C 39.671875 164.296875 39.839844 164.480469 40.003906 164.652344 C 43.851562 168.738281 46.398438 172.109375 48.273438 175.585938 C 51.4375 181.460938 52.433594 187.632812 51.078125 192.953125 C 50.964844 193.402344 50.835938 193.820312 50.691406 194.207031 C 50.65625 194.304688 50.5625 194.367188 50.457031 194.367188 " fill-opacity="1" fill-rule="nonzero"></path></g><path fill="#000000" d="M 43.34375 194.367188 C 43.257812 194.367188 43.171875 194.320312 43.125 194.238281 C 42.261719 192.6875 41.4375 191.089844 40.667969 189.5 C 37.925781 183.820312 35.75 177.855469 34.199219 171.769531 C 34.164062 171.636719 34.246094 171.5 34.378906 171.464844 C 34.511719 171.429688 34.648438 171.511719 34.683594 171.644531 C 36.226562 177.699219 38.390625 183.632812 41.121094 189.28125 C 41.882812 190.863281 42.707031 192.449219 43.5625 193.996094 C 43.632812 194.117188 43.585938 194.269531 43.464844 194.335938 C 43.429688 194.359375 43.386719 194.367188 43.34375 194.367188 " fill-opacity="1" fill-rule="nonzero"></path><path fill="#ffffff" d="M 55.667969 175.542969 C 58.761719 180.472656 59.132812 186.863281 57.046875 192.246094 C 56.855469 192.742188 56.59375 193.414062 56.265625 194.117188 L 47.226562 194.117188 C 46.175781 192.980469 45.257812 191.800781 44.636719 190.910156 C 42.457031 187.796875 41.390625 183.632812 42.875 180.132812 C 43.34375 179.023438 44.058594 177.996094 44.25 176.8125 C 44.699219 174.003906 42.203125 171.695312 40.03125 169.863281 C 35.769531 166.265625 31.597656 161.804688 31.074219 156.253906 C 30.632812 151.617188 33.109375 146.832031 37.144531 144.507812 C 35.265625 141.015625 33.84375 137.273438 32.925781 133.410156 C 32.550781 131.8125 32.277344 130.050781 33.042969 128.601562 C 34.027344 126.734375 36.402344 126.054688 38.511719 126.125 C 43.882812 126.300781 48.621094 130.132812 51.230469 134.832031 C 53.839844 139.527344 58.355469 149.140625 54.246094 164.398438 C 53.730469 166.316406 52.695312 168.183594 52.933594 170.15625 C 53.175781 172.175781 54.585938 173.824219 55.667969 175.542969 " fill-opacity="1" fill-rule="nonzero"></path><path fill="#000000" d="M 47.339844 193.867188 L 56.105469 193.867188 C 56.386719 193.25 56.617188 192.660156 56.8125 192.152344 C 58.929688 186.691406 58.40625 180.378906 55.453125 175.675781 C 55.230469 175.316406 54.984375 174.953125 54.746094 174.601562 C 53.832031 173.246094 52.882812 171.839844 52.683594 170.1875 C 52.507812 168.730469 52.996094 167.332031 53.472656 165.976562 C 53.660156 165.4375 53.855469 164.882812 54.003906 164.332031 C 58.355469 148.175781 52.828125 138.222656 51.011719 134.953125 C 48.160156 129.820312 43.367188 126.535156 38.503906 126.375 C 36.597656 126.308594 34.226562 126.894531 33.265625 128.71875 C 32.542969 130.085938 32.792969 131.753906 33.171875 133.351562 C 34.082031 137.195312 35.492188 140.910156 37.367188 144.390625 C 37.429688 144.511719 37.386719 144.660156 37.269531 144.726562 C 33.339844 146.984375 30.894531 151.71875 31.320312 156.230469 C 31.867188 161.96875 36.347656 166.425781 40.191406 169.667969 C 42.519531 171.632812 44.960938 173.96875 44.496094 176.851562 C 44.359375 177.695312 43.972656 178.460938 43.597656 179.199219 C 43.429688 179.535156 43.253906 179.882812 43.105469 180.230469 C 41.535156 183.929688 42.972656 188.097656 44.839844 190.765625 C 45.550781 191.78125 46.457031 192.90625 47.339844 193.867188 Z M 56.265625 194.367188 L 47.226562 194.367188 C 47.15625 194.367188 47.089844 194.339844 47.042969 194.289062 C 46.125 193.292969 45.171875 192.117188 44.429688 191.054688 C 41.949219 187.507812 41.265625 183.285156 42.644531 180.03125 C 42.796875 179.671875 42.976562 179.316406 43.152344 178.972656 C 43.523438 178.238281 43.878906 177.539062 44 176.769531 C 44.425781 174.148438 42.089844 171.925781 39.867188 170.054688 C 35.953125 166.746094 31.382812 162.195312 30.824219 156.277344 C 30.382812 151.65625 32.839844 146.816406 36.8125 144.417969 C 34.972656 140.957031 33.585938 137.277344 32.683594 133.46875 C 32.28125 131.773438 32.023438 130 32.820312 128.484375 C 33.890625 126.457031 36.46875 125.800781 38.519531 125.875 C 43.558594 126.039062 48.511719 129.425781 51.449219 134.710938 C 53.289062 138.023438 58.890625 148.109375 54.488281 164.464844 C 54.335938 165.03125 54.136719 165.597656 53.945312 166.144531 C 53.46875 167.503906 53.019531 168.785156 53.179688 170.125 C 53.367188 171.660156 54.28125 173.015625 55.160156 174.320312 C 55.402344 174.679688 55.648438 175.046875 55.878906 175.410156 C 58.914062 180.246094 59.453125 186.730469 57.28125 192.335938 C 57.066406 192.890625 56.808594 193.539062 56.492188 194.222656 C 56.449219 194.3125 56.363281 194.367188 56.265625 194.367188 " fill-opacity="1" fill-rule="nonzero"></path><path fill="#000000" d="M 52.984375 192.878906 C 52.851562 192.878906 52.742188 192.773438 52.734375 192.636719 C 51.867188 174.503906 48.035156 156.003906 41.34375 137.65625 C 41.296875 137.523438 41.363281 137.382812 41.492188 137.332031 C 41.625 137.285156 41.765625 137.351562 41.816406 137.484375 C 48.523438 155.878906 52.363281 174.429688 53.238281 192.613281 C 53.242188 192.75 53.136719 192.871094 53 192.875 C 52.992188 192.878906 52.988281 192.878906 52.984375 192.878906 " fill-opacity="1" fill-rule="nonzero"></path><path fill="#000000" d="M 128.96875 97.652344 C 128.089844 96.40625 127.074219 95.265625 125.957031 94.226562 C 128.328125 93.769531 130.351562 92.152344 131.589844 90.101562 C 133.058594 87.675781 133.253906 84.734375 132.375 82.066406 C 131.449219 79.269531 129.511719 76.90625 127.042969 75.324219 C 124.414062 73.632812 121.304688 72.824219 118.207031 72.640625 C 117.792969 72.617188 117.378906 72.605469 116.964844 72.605469 C 111.71875 71.480469 106.21875 71.628906 101.355469 74.027344 C 95.394531 76.964844 90.679688 83.566406 91.570312 90.414062 C 91.824219 92.363281 92.8125 94.351562 92.46875 96.339844 C 92.144531 98.183594 90.519531 99.085938 88.835938 99.46875 C 87.085938 99.867188 85.253906 99.882812 83.472656 100.097656 C 81.546875 100.328125 79.632812 100.644531 77.742188 101.085938 C 74 101.960938 70.328125 103.328125 67.101562 105.445312 C 63.976562 107.496094 61.359375 110.238281 59.480469 113.476562 C 57.628906 116.671875 56.488281 120.28125 56.234375 123.964844 C 55.980469 127.671875 56.648438 131.421875 58.09375 134.839844 C 59.539062 138.265625 61.765625 141.359375 64.59375 143.773438 C 67.589844 146.335938 71.214844 148.109375 74.996094 149.175781 C 83.410156 151.546875 92.410156 150.328125 100.6875 147.984375 C 108.398438 145.800781 115.871094 142.304688 121.871094 136.914062 C 127.414062 131.941406 131.664062 125.316406 133.105469 117.953125 C 134.464844 111.003906 133.082031 103.464844 128.96875 97.652344 " fill-opacity="1" fill-rule="nonzero"></path><path fill="#ffffff" d="M 132.710938 194.277344 L 133.601562 168.601562 L 80.875 168.601562 L 69.246094 194.277344 L 132.710938 194.277344 " fill-opacity="1" fill-rule="nonzero"></path><path fill="#000000" d="M 69.246094 194.53125 C 69.210938 194.53125 69.175781 194.523438 69.140625 194.507812 C 69.015625 194.449219 68.960938 194.300781 69.015625 194.175781 L 80.644531 168.5 C 80.6875 168.410156 80.773438 168.351562 80.875 168.351562 L 133.601562 168.351562 C 133.667969 168.351562 133.734375 168.378906 133.78125 168.429688 C 133.828125 168.476562 133.855469 168.542969 133.851562 168.613281 L 132.960938 194.285156 C 132.957031 194.421875 132.84375 194.53125 132.710938 194.53125 C 132.707031 194.53125 132.703125 194.53125 132.703125 194.527344 C 132.5625 194.523438 132.453125 194.40625 132.460938 194.269531 L 133.34375 168.851562 L 81.035156 168.851562 L 69.472656 194.382812 C 69.433594 194.472656 69.339844 194.53125 69.246094 194.53125 " fill-opacity="1" fill-rule="nonzero"></path><path fill="#ffffff" d="M 136.367188 151.230469 C 136.367188 151.230469 150.835938 174.78125 166.332031 172.726562 C 180.191406 170.886719 177.984375 150.78125 176.835938 142.808594 C 176.664062 141.605469 177.484375 140.480469 178.6875 140.277344 C 181.777344 139.757812 187.074219 138.269531 187.246094 134.195312 C 187.246094 134.195312 189.175781 129.265625 187.488281 128.429688 C 185.800781 127.59375 183.230469 133.632812 173.371094 134.195312 C 163.507812 134.753906 160.21875 133.015625 158.296875 137.050781 L 158.414062 143.390625 L 154.835938 137.691406 C 154.835938 137.691406 142.898438 139.230469 136.367188 151.230469 " fill-opacity="1" fill-rule="nonzero"></path><path fill="#000000" d="M 136.65625 151.222656 C 137.210938 152.097656 140.6875 157.476562 145.722656 162.578125 C 150.75 167.671875 158.398438 173.527344 166.296875 172.476562 C 169.453125 172.058594 171.976562 170.628906 173.796875 168.226562 C 177.386719 163.484375 178.328125 154.945312 176.589844 142.84375 C 176.394531 141.492188 177.296875 140.257812 178.644531 140.03125 C 181.691406 139.515625 186.832031 138.070312 186.996094 134.183594 C 186.996094 134.15625 187.003906 134.128906 187.011719 134.101562 C 187.492188 132.878906 188.582031 129.253906 187.378906 128.65625 C 186.921875 128.429688 186.253906 128.964844 185.246094 129.769531 C 183.222656 131.382812 179.839844 134.078125 173.386719 134.445312 C 170.476562 134.609375 168.132812 134.574219 166.246094 134.546875 C 161.726562 134.484375 159.839844 134.453125 158.550781 137.105469 L 158.664062 143.386719 C 158.664062 143.5 158.589844 143.601562 158.484375 143.632812 C 158.375 143.664062 158.261719 143.621094 158.199219 143.523438 L 154.710938 137.964844 C 153.292969 138.203125 142.65625 140.332031 136.65625 151.222656 Z M 164.4375 173.097656 C 158.511719 173.097656 151.960938 169.617188 145.359375 162.925781 C 139.847656 157.339844 136.191406 151.421875 136.152344 151.363281 C 136.105469 151.289062 136.105469 151.191406 136.148438 151.113281 C 142.664062 139.136719 154.683594 137.460938 154.800781 137.445312 C 154.902344 137.433594 154.996094 137.476562 155.046875 137.558594 L 158.144531 142.496094 L 158.046875 137.054688 C 158.046875 137.015625 158.054688 136.980469 158.070312 136.945312 C 159.5 133.949219 161.617188 133.976562 166.253906 134.046875 C 168.132812 134.074219 170.46875 134.109375 173.355469 133.945312 C 179.652344 133.585938 182.957031 130.953125 184.929688 129.378906 C 186.09375 128.453125 186.859375 127.839844 187.597656 128.207031 C 189.398438 129.097656 187.757812 133.566406 187.492188 134.246094 C 187.28125 138.457031 181.914062 139.984375 178.726562 140.523438 C 177.652344 140.707031 176.929688 141.695312 177.085938 142.773438 C 178.84375 155.007812 177.871094 163.675781 174.195312 168.527344 C 172.292969 171.039062 169.660156 172.535156 166.363281 172.972656 C 165.730469 173.058594 165.085938 173.097656 164.4375 173.097656 " fill-opacity="1" fill-rule="nonzero"></path><path fill="#000000" d="M 178.296875 137.601562 C 178.1875 137.601562 178.089844 137.53125 178.054688 137.425781 C 178.015625 137.292969 178.089844 137.152344 178.21875 137.113281 C 182.351562 135.8125 185.410156 133.851562 187.558594 131.113281 C 187.644531 131.003906 187.804688 130.984375 187.910156 131.070312 C 188.019531 131.15625 188.039062 131.3125 187.953125 131.421875 C 185.738281 134.242188 182.601562 136.261719 178.371094 137.589844 C 178.347656 137.597656 178.320312 137.601562 178.296875 137.601562 " fill-opacity="1" fill-rule="nonzero"></path><path fill="#000000" d="M 179.351562 139.121094 C 179.242188 139.121094 179.140625 139.050781 179.109375 138.9375 C 179.074219 138.804688 179.152344 138.667969 179.285156 138.628906 C 182.007812 137.890625 184.503906 136.449219 186.507812 134.460938 C 186.605469 134.363281 186.765625 134.363281 186.859375 134.460938 C 186.957031 134.558594 186.957031 134.71875 186.859375 134.816406 C 184.796875 136.867188 182.226562 138.351562 179.417969 139.113281 C 179.394531 139.121094 179.375 139.121094 179.351562 139.121094 " fill-opacity="1" fill-rule="nonzero"></path><path fill="#000000" d="M 161.980469 162.132812 C 161.863281 162.132812 161.757812 162.046875 161.734375 161.925781 L 158.480469 144.433594 C 158.453125 144.300781 158.542969 144.167969 158.679688 144.140625 C 158.816406 144.117188 158.945312 144.207031 158.972656 144.34375 L 162.230469 161.835938 C 162.253906 161.96875 162.164062 162.101562 162.027344 162.125 C 162.011719 162.128906 161.996094 162.132812 161.980469 162.132812 " fill-opacity="1" fill-rule="nonzero"></path><path fill="#ffffff" d="M 135.953125 153.128906 C 135.953125 153.128906 144.234375 144.609375 155.488281 138.347656 C 155.488281 138.347656 142.480469 117.65625 127.148438 116.996094 L 135.953125 153.128906 " fill-opacity="1" fill-rule="nonzero"></path><path fill="#000000" d="M 127.472656 117.261719 L 136.09375 152.636719 C 137.707031 151.042969 145.308594 143.769531 155.132812 138.261719 C 153.679688 136.046875 141.503906 118.144531 127.472656 117.261719 Z M 135.953125 153.382812 C 135.929688 153.382812 135.910156 153.378906 135.886719 153.371094 C 135.800781 153.347656 135.734375 153.28125 135.710938 153.191406 L 126.90625 117.054688 C 126.886719 116.976562 126.90625 116.898438 126.957031 116.835938 C 127.003906 116.777344 127.082031 116.742188 127.160156 116.746094 C 135.160156 117.089844 142.5 122.917969 147.246094 127.746094 C 152.375 132.960938 155.667969 138.164062 155.699219 138.214844 C 155.738281 138.273438 155.75 138.34375 155.730469 138.410156 C 155.714844 138.476562 155.671875 138.535156 155.609375 138.566406 C 144.515625 144.738281 136.214844 153.21875 136.132812 153.304688 C 136.085938 153.355469 136.019531 153.382812 135.953125 153.382812 " fill-opacity="1" fill-rule="nonzero"></path><path fill="#ffffff" d="M 87.101562 115.667969 C 87.507812 115.230469 118.917969 113.71875 127.148438 116.996094 L 132.195312 136.925781 L 91.25 137.300781 L 87.101562 115.667969 " fill-opacity="1" fill-rule="nonzero"></path><path fill="#000000" d="M 87.390625 115.84375 L 91.457031 137.046875 L 131.875 136.679688 L 126.9375 117.183594 C 118.941406 114.128906 90.066406 115.378906 87.390625 115.84375 Z M 91.25 137.550781 C 91.128906 137.550781 91.027344 137.464844 91.003906 137.347656 L 86.855469 115.714844 C 86.839844 115.636719 86.863281 115.554688 86.917969 115.496094 C 87.285156 115.101562 96.957031 114.707031 104.1875 114.6875 C 112.28125 114.671875 122.839844 115.011719 127.242188 116.761719 C 127.316406 116.792969 127.371094 116.855469 127.390625 116.933594 L 132.4375 136.867188 C 132.457031 136.941406 132.441406 137.019531 132.394531 137.082031 C 132.347656 137.140625 132.277344 137.175781 132.199219 137.175781 L 91.253906 137.550781 C 91.253906 137.550781 91.25 137.550781 91.25 137.550781 " fill-opacity="1" fill-rule="nonzero"></path><path fill="#1b4200" d="M 73.203125 133.546875 C 73.203125 133.816406 70.398438 159.660156 69.355469 169.21875 C 69.152344 171.089844 70.625 172.714844 72.503906 172.703125 L 143.136719 172.296875 C 145.066406 172.285156 146.429688 170.398438 145.828125 168.5625 C 142.199219 157.425781 134.644531 127.1875 127.839844 116.808594 L 124.585938 116.109375 L 127.421875 127.414062 C 127.757812 128.753906 126.707031 130.039062 125.328125 129.976562 C 119.679688 129.722656 106.699219 129.277344 98.660156 130.121094 C 97.734375 130.21875 96.910156 129.519531 96.859375 128.589844 C 96.652344 124.871094 96.023438 116.398438 94.601562 114.9375 L 92.371094 114.9375 C 92.371094 114.9375 99.152344 141.089844 84.351562 144.609375 C 74.160156 147.03125 73.203125 133.546875 73.203125 133.546875 " fill-opacity="1" fill-rule="nonzero"></path><path fill="#ffffff" d="M 83.699219 160.175781 C 83.699219 160.175781 98.007812 178.226562 106.085938 181.816406 C 114.164062 185.410156 127.347656 170.371094 138.160156 149.964844 C 138.160156 149.964844 144.976562 148.5 147.824219 148.03125 C 150.675781 147.5625 152.085938 146.136719 152.277344 145.148438 C 152.277344 145.148438 155.136719 143.792969 155.140625 142.386719 C 155.144531 140.980469 154.3125 141.164062 154.3125 141.164062 C 154.3125 141.164062 157.074219 140.28125 156.589844 137.382812 C 156.589844 137.382812 158.597656 136.53125 158.414062 135.164062 C 158.226562 133.796875 157.03125 133.613281 154.222656 134.949219 C 151.796875 136.097656 144.382812 136.226562 139.996094 135.148438 C 138.980469 134.894531 138.378906 133.851562 138.664062 132.847656 C 139.132812 131.214844 139.753906 128.824219 139.757812 127.671875 C 139.765625 125.832031 139.355469 122.652344 135.484375 127.1875 C 131.613281 131.726562 112.921875 151.914062 109.515625 155.285156 L 103.835938 148.636719 C 103.835938 148.636719 86.566406 153.21875 83.699219 160.175781 " fill-opacity="1" fill-rule="nonzero"></path><path fill="#000000" d="M 140.304688 149.761719 C 140.1875 149.761719 140.085938 149.679688 140.058594 149.5625 C 140.03125 149.425781 140.117188 149.292969 140.253906 149.265625 C 142.707031 148.75 146.003906 148.074219 147.785156 147.785156 C 150.609375 147.320312 151.875 145.925781 152.035156 145.097656 C 152.046875 145.019531 152.097656 144.957031 152.171875 144.921875 C 152.925781 144.5625 154.886719 143.410156 154.886719 142.386719 C 154.890625 141.9375 154.796875 141.621094 154.628906 141.484375 C 154.503906 141.386719 154.371094 141.410156 154.371094 141.410156 C 154.238281 141.4375 154.109375 141.359375 154.074219 141.230469 C 154.039062 141.101562 154.109375 140.96875 154.238281 140.925781 C 154.34375 140.890625 156.785156 140.066406 156.34375 137.425781 C 156.324219 137.3125 156.386719 137.199219 156.492188 137.152344 C 156.511719 137.144531 158.320312 136.355469 158.164062 135.195312 C 158.109375 134.796875 157.964844 134.539062 157.71875 134.40625 C 157.167969 134.109375 156.027344 134.367188 154.328125 135.175781 C 151.84375 136.355469 144.308594 136.46875 139.9375 135.386719 C 139.378906 135.253906 138.914062 134.902344 138.625 134.40625 C 138.339844 133.910156 138.265625 133.332031 138.425781 132.78125 C 139.121094 130.34375 139.507812 128.53125 139.507812 127.671875 C 139.511719 126.222656 139.25 125.328125 138.765625 125.148438 C 138.421875 125.023438 137.5625 125.140625 135.675781 127.351562 C 135.15625 127.960938 134.339844 128.886719 133.246094 130.101562 C 133.15625 130.207031 132.996094 130.214844 132.894531 130.121094 C 132.789062 130.027344 132.78125 129.871094 132.875 129.769531 C 133.960938 128.554688 134.777344 127.632812 135.292969 127.027344 C 136.90625 125.136719 138.097656 124.367188 138.941406 124.679688 C 139.65625 124.945312 140.015625 125.949219 140.007812 127.671875 C 140.007812 128.832031 139.40625 131.164062 138.90625 132.917969 C 138.785156 133.339844 138.839844 133.777344 139.0625 134.15625 C 139.277344 134.535156 139.632812 134.796875 140.054688 134.902344 C 144.347656 135.960938 151.707031 135.867188 154.113281 134.722656 C 156.015625 133.816406 157.238281 133.578125 157.957031 133.96875 C 158.347656 134.175781 158.582031 134.570312 158.660156 135.128906 C 158.835938 136.421875 157.382812 137.273438 156.867188 137.53125 C 157.125 139.597656 155.796875 140.671875 154.984375 141.128906 C 155.253906 141.375 155.390625 141.796875 155.390625 142.386719 C 155.386719 143.792969 153.085938 145.027344 152.496094 145.320312 C 152.1875 146.453125 150.644531 147.820312 147.867188 148.277344 C 146.09375 148.566406 142.804688 149.242188 140.355469 149.757812 C 140.339844 149.761719 140.320312 149.761719 140.304688 149.761719 " fill-opacity="1" fill-rule="nonzero"></path><path fill="#000000" d="M 108.667969 182.601562 C 107.714844 182.601562 106.820312 182.417969 105.984375 182.046875 C 103.207031 180.8125 99.417969 177.773438 94.726562 173.019531 C 94.628906 172.921875 94.632812 172.761719 94.730469 172.664062 C 94.828125 172.566406 94.988281 172.570312 95.085938 172.667969 C 99.730469 177.378906 103.464844 180.378906 106.1875 181.589844 C 110.410156 183.464844 116.3125 180.203125 123.25 172.152344 C 123.34375 172.046875 123.5 172.035156 123.605469 172.128906 C 123.710938 172.214844 123.722656 172.375 123.632812 172.480469 C 117.867188 179.164062 112.761719 182.601562 108.667969 182.601562 " fill-opacity="1" fill-rule="nonzero"></path><path fill="#000000" d="M 148.171875 139.539062 C 147.316406 139.539062 146.460938 139.476562 145.617188 139.355469 C 145.480469 139.332031 145.386719 139.207031 145.40625 139.070312 C 145.425781 138.933594 145.554688 138.835938 145.691406 138.859375 C 149.101562 139.355469 152.695312 138.804688 155.804688 137.3125 C 155.929688 137.25 156.078125 137.304688 156.136719 137.429688 C 156.199219 137.554688 156.148438 137.703125 156.023438 137.761719 C 153.59375 138.929688 150.875 139.539062 148.171875 139.539062 " fill-opacity="1" fill-rule="nonzero"></path><path fill="#000000" d="M 146.871094 142.652344 C 146.605469 142.652344 146.335938 142.648438 146.070312 142.636719 C 145.929688 142.632812 145.824219 142.515625 145.828125 142.375 C 145.835938 142.238281 145.964844 142.128906 146.089844 142.136719 C 148.703125 142.242188 151.378906 141.808594 153.824219 140.875 C 153.953125 140.824219 154.097656 140.890625 154.148438 141.019531 C 154.199219 141.148438 154.132812 141.292969 154.003906 141.34375 C 151.746094 142.207031 149.296875 142.652344 146.871094 142.652344 " fill-opacity="1" fill-rule="nonzero"></path><path fill="#000000" d="M 145.566406 146.273438 C 145.433594 146.273438 145.320312 146.167969 145.316406 146.03125 C 145.3125 145.890625 145.421875 145.777344 145.558594 145.773438 C 147.640625 145.710938 149.699219 145.359375 151.679688 144.722656 C 151.8125 144.679688 151.953125 144.75 151.996094 144.882812 C 152.035156 145.015625 151.964844 145.15625 151.832031 145.199219 C 149.804688 145.851562 147.703125 146.210938 145.574219 146.273438 C 145.570312 146.273438 145.570312 146.273438 145.566406 146.273438 " fill-opacity="1" fill-rule="nonzero"></path><path fill="#ffffff" d="M 91.8125 116.808594 L 91.25 115.289062 C 91.25 115.289062 76.46875 114.40625 72.597656 123.203125 C 68.722656 132 69.339844 144.449219 83.699219 160.175781 C 83.699219 160.175781 98.9375 150.125 103.835938 148.636719 L 91.8125 133.0625 L 91.8125 116.808594 " fill-opacity="1" fill-rule="nonzero"></path><path fill="#000000" d="M 85.945312 161.125 C 85.875 161.125 85.808594 161.097656 85.761719 161.042969 C 85.667969 160.941406 85.671875 160.785156 85.773438 160.691406 C 91.0625 155.75 97.109375 151.78125 103.746094 148.898438 C 103.875 148.84375 104.023438 148.902344 104.078125 149.027344 C 104.132812 149.15625 104.074219 149.304688 103.945312 149.359375 C 97.363281 152.21875 91.363281 156.15625 86.117188 161.054688 C 86.066406 161.101562 86.003906 161.125 85.945312 161.125 " fill-opacity="1" fill-rule="nonzero"></path><path fill="#ffffff" d="M 109.335938 97.957031 L 102.835938 114.9375 C 102.835938 114.9375 112.332031 118.160156 116.027344 115.246094 L 119.589844 104.785156 L 109.335938 97.957031 " fill-opacity="1" fill-rule="nonzero"></path><path fill="#000000" d="M 103.164062 114.78125 C 104.664062 115.253906 112.558594 117.558594 115.8125 115.09375 L 119.289062 104.886719 L 109.457031 98.339844 Z M 111.324219 116.722656 C 107.375 116.722656 103.023438 115.265625 102.753906 115.175781 C 102.691406 115.152344 102.636719 115.105469 102.609375 115.046875 C 102.578125 114.984375 102.578125 114.914062 102.601562 114.847656 L 109.101562 97.867188 C 109.128906 97.792969 109.1875 97.738281 109.261719 97.71875 C 109.332031 97.695312 109.410156 97.703125 109.476562 97.746094 L 119.726562 104.574219 C 119.824219 104.640625 119.863281 104.757812 119.824219 104.867188 L 116.261719 115.324219 C 116.246094 115.371094 116.21875 115.410156 116.179688 115.441406 C 114.972656 116.394531 113.195312 116.722656 111.324219 116.722656 " fill-opacity="1" fill-rule="nonzero"></path><path fill="#ffffff" d="M 99.808594 115.058594 L 102.835938 110.25 C 102.835938 110.25 107.578125 112.566406 112.519531 112.652344 L 113.941406 114.503906 L 114.875 112.652344 L 117.582031 112.652344 L 118.648438 116.464844 L 116.761719 120.933594 L 113.941406 117.59375 L 111.394531 121.722656 C 111.394531 121.722656 102.722656 119.429688 99.808594 115.058594 " fill-opacity="1" fill-rule="nonzero"></path><path fill="#000000" d="M 100.105469 115.054688 C 102.785156 118.867188 110.046875 121.078125 111.28125 121.429688 L 113.726562 117.460938 C 113.769531 117.390625 113.839844 117.347656 113.921875 117.34375 C 114 117.335938 114.078125 117.371094 114.128906 117.429688 L 116.691406 120.460938 L 118.386719 116.449219 L 117.390625 112.902344 L 115.03125 112.902344 L 114.164062 114.617188 C 114.125 114.695312 114.046875 114.746094 113.960938 114.753906 C 113.875 114.765625 113.792969 114.726562 113.742188 114.660156 L 112.394531 112.902344 C 108.074219 112.792969 103.886719 111.003906 102.929688 110.566406 Z M 111.394531 121.972656 C 111.375 121.972656 111.351562 121.96875 111.332031 121.964844 C 110.972656 121.871094 102.53125 119.59375 99.597656 115.199219 C 99.542969 115.117188 99.542969 115.007812 99.59375 114.925781 L 102.625 110.113281 C 102.691406 110.003906 102.828125 109.96875 102.945312 110.023438 C 102.992188 110.046875 107.699219 112.320312 112.523438 112.402344 C 112.601562 112.402344 112.671875 112.441406 112.71875 112.5 L 113.894531 114.039062 L 114.652344 112.539062 C 114.695312 112.457031 114.78125 112.402344 114.875 112.402344 L 117.578125 112.402344 C 117.691406 112.402344 117.792969 112.476562 117.820312 112.585938 L 118.890625 116.398438 C 118.90625 116.453125 118.902344 116.511719 118.882812 116.5625 L 116.996094 121.03125 C 116.960938 121.109375 116.886719 121.167969 116.800781 121.179688 C 116.714844 121.195312 116.628906 121.160156 116.574219 121.09375 L 113.972656 118.019531 L 111.609375 121.855469 C 111.5625 121.929688 111.480469 121.972656 111.394531 121.972656 " fill-opacity="1" fill-rule="nonzero"></path><path fill="#ffffff" d="M 124.117188 94.871094 C 124.441406 96.941406 124.648438 99.074219 124.179688 101.117188 C 123.714844 103.160156 122.464844 105.117188 120.550781 105.972656 C 118.957031 106.679688 117.101562 106.554688 115.425781 106.074219 C 111.828125 105.039062 108.730469 102.375 107.171875 98.96875 C 105.785156 99.222656 104.238281 98.671875 103.460938 97.5 C 102.679688 96.324219 102.835938 94.570312 103.914062 93.660156 C 104.992188 92.753906 106.882812 92.992188 107.582031 94.214844 C 108.507812 93.761719 108.449219 92.464844 108.496094 91.4375 C 108.605469 88.859375 110.285156 86.53125 112.445312 85.125 C 114.605469 83.714844 117.195312 83.113281 119.757812 82.824219 C 120.949219 82.6875 122.113281 86.320312 122.445312 87.453125 C 123.164062 89.886719 123.722656 92.367188 124.117188 94.871094 " fill-opacity="1" fill-rule="nonzero"></path><path fill="#000000" d="M 107.171875 98.71875 C 107.269531 98.71875 107.359375 98.773438 107.398438 98.867188 C 108.929688 102.210938 111.957031 104.816406 115.496094 105.832031 C 116.8125 106.210938 118.742188 106.503906 120.445312 105.742188 C 122.132812 104.992188 123.4375 103.242188 123.9375 101.058594 C 124.40625 99.023438 124.179688 96.898438 123.867188 94.910156 C 123.480469 92.425781 122.917969 89.941406 122.207031 87.523438 C 121.414062 84.84375 120.464844 83.070312 119.824219 83.070312 C 119.8125 83.070312 119.796875 83.070312 119.785156 83.070312 C 116.699219 83.421875 114.410156 84.140625 112.582031 85.332031 C 110.316406 86.8125 108.84375 89.15625 108.746094 91.449219 C 108.738281 91.550781 108.738281 91.65625 108.734375 91.761719 C 108.703125 92.742188 108.660156 93.96875 107.695312 94.4375 C 107.574219 94.496094 107.433594 94.453125 107.367188 94.339844 C 107.089844 93.851562 106.566406 93.511719 105.9375 93.398438 C 105.253906 93.28125 104.558594 93.449219 104.078125 93.855469 C 103.125 94.652344 102.9375 96.257812 103.667969 97.359375 C 104.363281 98.410156 105.789062 98.96875 107.125 98.722656 C 107.140625 98.71875 107.15625 98.71875 107.171875 98.71875 Z M 118.046875 106.71875 C 117.050781 106.71875 116.109375 106.53125 115.359375 106.316406 C 111.742188 105.277344 108.640625 102.640625 107.023438 99.246094 C 105.546875 99.441406 104.019531 98.796875 103.25 97.636719 C 102.371094 96.3125 102.597656 94.441406 103.753906 93.46875 C 104.347656 92.972656 105.195312 92.761719 106.023438 92.90625 C 106.707031 93.027344 107.289062 93.375 107.660156 93.871094 C 108.175781 93.460938 108.207031 92.589844 108.234375 91.746094 C 108.238281 91.636719 108.238281 91.53125 108.246094 91.425781 C 108.351562 88.9375 109.871094 86.503906 112.308594 84.914062 C 114.207031 83.675781 116.5625 82.933594 119.730469 82.574219 C 119.761719 82.570312 119.789062 82.566406 119.820312 82.566406 C 121.011719 82.566406 122.035156 85.167969 122.6875 87.382812 C 123.40625 89.820312 123.96875 92.328125 124.363281 94.832031 C 124.683594 96.871094 124.910156 99.050781 124.425781 101.171875 C 123.890625 103.503906 122.480469 105.386719 120.652344 106.199219 C 119.800781 106.582031 118.902344 106.71875 118.046875 106.71875 " fill-opacity="1" fill-rule="nonzero"></path><path fill="#000000" d="M 107.054688 97.402344 C 106.980469 97.402344 106.910156 97.371094 106.859375 97.3125 C 106.4375 96.796875 105.738281 96.515625 105.078125 96.597656 C 104.9375 96.613281 104.816406 96.515625 104.796875 96.378906 C 104.78125 96.242188 104.878906 96.117188 105.015625 96.101562 C 105.847656 95.996094 106.722656 96.347656 107.246094 96.996094 C 107.335938 97.101562 107.320312 97.261719 107.210938 97.347656 C 107.167969 97.382812 107.109375 97.402344 107.054688 97.402344 " fill-opacity="1" fill-rule="nonzero"></path><g clip-path="url(#14fe5aae27)"><path fill="#000000" d="M 134.921875 194.53125 L 25.914062 194.53125 C 25.773438 194.53125 25.664062 194.417969 25.664062 194.277344 C 25.664062 194.140625 25.773438 194.027344 25.914062 194.027344 L 134.921875 194.027344 C 135.058594 194.027344 135.171875 194.140625 135.171875 194.277344 C 135.171875 194.417969 135.058594 194.53125 134.921875 194.53125 " fill-opacity="1" fill-rule="nonzero"></path></g><path fill="#1b4200" d="M 279.847656 55.523438 L 279.847656 59.378906 L 147.425781 59.378906 L 147.425781 55.523438 C 147.425781 52.886719 149.5625 50.75 152.195312 50.75 L 275.074219 50.75 C 277.707031 50.75 279.847656 52.886719 279.847656 55.523438 " fill-opacity="1" fill-rule="nonzero"></path><path fill="#88e64a" d="M 279.847656 59.378906 L 279.847656 119.492188 C 279.847656 122.128906 277.707031 124.265625 275.074219 124.265625 L 152.195312 124.265625 C 149.5625 124.265625 147.425781 122.128906 147.425781 119.492188 L 147.425781 59.378906 L 279.847656 59.378906 " fill-opacity="1" fill-rule="nonzero"></path><path fill="#88e64a" d="M 155.261719 55.25 C 155.261719 56.15625 154.523438 56.894531 153.617188 56.894531 C 152.710938 56.894531 151.976562 56.15625 151.976562 55.25 C 151.976562 54.34375 152.710938 53.609375 153.617188 53.609375 C 154.523438 53.609375 155.261719 54.34375 155.261719 55.25 " fill-opacity="1" fill-rule="nonzero"></path><path fill="#ffffff" d="M 160.054688 55.25 C 160.054688 56.15625 159.320312 56.894531 158.414062 56.894531 C 157.503906 56.894531 156.769531 56.15625 156.769531 55.25 C 156.769531 54.34375 157.503906 53.609375 158.414062 53.609375 C 159.320312 53.609375 160.054688 54.34375 160.054688 55.25 " fill-opacity="1" fill-rule="nonzero"></path><path fill="#ffffff" d="M 164.847656 55.25 C 164.847656 56.15625 164.113281 56.894531 163.207031 56.894531 C 162.300781 56.894531 161.5625 56.15625 161.5625 55.25 C 161.5625 54.34375 162.300781 53.609375 163.207031 53.609375 C 164.113281 53.609375 164.847656 54.34375 164.847656 55.25 " fill-opacity="1" fill-rule="nonzero"></path><path fill="#000000" d="M 173.570312 70.625 L 177.148438 70.625 L 177.148438 88.992188 L 174.222656 88.992188 L 173.570312 70.625 " fill-opacity="1" fill-rule="nonzero"></path><path fill="#ffffff" d="M 160.367188 68.203125 L 156.347656 72.222656 L 156.347656 82.265625 L 174.238281 82.265625 L 174.238281 68.203125 L 160.367188 68.203125 " fill-opacity="1" fill-rule="nonzero"></path><path fill="#000000" d="M 156.597656 82.015625 L 173.988281 82.015625 L 173.988281 68.453125 L 160.472656 68.453125 L 156.597656 72.324219 Z M 174.238281 82.519531 L 156.347656 82.519531 C 156.210938 82.519531 156.097656 82.40625 156.097656 82.265625 L 156.097656 72.222656 C 156.097656 72.152344 156.125 72.089844 156.171875 72.042969 L 160.191406 68.023438 C 160.238281 67.976562 160.300781 67.949219 160.371094 67.949219 L 174.238281 67.949219 C 174.375 67.949219 174.488281 68.0625 174.488281 68.203125 L 174.488281 82.265625 C 174.488281 82.40625 174.375 82.519531 174.238281 82.519531 " fill-opacity="1" fill-rule="nonzero"></path><path fill="#000000" d="M 160.371094 72.472656 L 156.347656 72.472656 C 156.210938 72.472656 156.097656 72.359375 156.097656 72.222656 C 156.097656 72.082031 156.210938 71.96875 156.347656 71.96875 L 160.117188 71.96875 L 160.117188 68.203125 C 160.117188 68.0625 160.230469 67.949219 160.371094 67.949219 C 160.507812 67.949219 160.621094 68.0625 160.621094 68.203125 L 160.621094 72.222656 C 160.621094 72.359375 160.507812 72.472656 160.371094 72.472656 " fill-opacity="1" fill-rule="nonzero"></path><path fill="#ffffff" d="M 173.648438 78.523438 L 173.648438 77.671875 C 173.648438 77.238281 173.292969 76.886719 172.859375 76.886719 L 168.199219 76.886719 C 167.765625 76.886719 167.410156 77.238281 167.410156 77.671875 L 167.410156 78.523438 L 154.746094 78.523438 L 154.746094 91.789062 C 154.746094 92.605469 155.40625 93.265625 156.222656 93.265625 L 175.839844 93.265625 L 175.839844 78.523438 L 173.648438 78.523438 " fill-opacity="1" fill-rule="nonzero"></path><path fill="#000000" d="M 154.996094 78.777344 L 154.996094 91.789062 C 154.996094 92.464844 155.546875 93.015625 156.222656 93.015625 L 175.589844 93.015625 L 175.589844 78.777344 L 173.648438 78.777344 C 173.507812 78.777344 173.394531 78.664062 173.394531 78.523438 L 173.394531 77.671875 C 173.394531 77.375 173.15625 77.136719 172.859375 77.136719 L 168.199219 77.136719 C 167.902344 77.136719 167.660156 77.375 167.660156 77.671875 L 167.660156 78.523438 C 167.660156 78.664062 167.550781 78.777344 167.410156 78.777344 Z M 175.839844 93.515625 L 156.222656 93.515625 C 155.269531 93.515625 154.492188 92.742188 154.492188 91.789062 L 154.492188 78.523438 C 154.492188 78.386719 154.605469 78.273438 154.742188 78.273438 L 167.160156 78.273438 L 167.160156 77.671875 C 167.160156 77.101562 167.625 76.636719 168.199219 76.636719 L 172.859375 76.636719 C 173.429688 76.636719 173.898438 77.101562 173.898438 77.671875 L 173.898438 78.273438 L 175.839844 78.273438 C 175.980469 78.273438 176.089844 78.386719 176.089844 78.523438 L 176.089844 93.265625 C 176.089844 93.40625 175.980469 93.515625 175.839844 93.515625 " fill-opacity="1" fill-rule="nonzero"></path><path fill="#000000" d="M 203.328125 70.625 L 206.902344 70.625 L 206.902344 88.992188 L 203.980469 88.992188 L 203.328125 70.625 " fill-opacity="1" fill-rule="nonzero"></path><path fill="#ffffff" d="M 190.125 68.203125 L 186.105469 72.222656 L 186.105469 82.265625 L 203.992188 82.265625 L 203.992188 68.203125 L 190.125 68.203125 " fill-opacity="1" fill-rule="nonzero"></path><path fill="#000000" d="M 186.355469 82.015625 L 203.742188 82.015625 L 203.742188 68.453125 L 190.226562 68.453125 L 186.355469 72.324219 Z M 203.992188 82.519531 L 186.105469 82.519531 C 185.964844 82.519531 185.855469 82.40625 185.855469 82.265625 L 185.855469 72.222656 C 185.855469 72.152344 185.878906 72.089844 185.925781 72.042969 L 189.949219 68.023438 C 189.996094 67.976562 190.058594 67.949219 190.125 67.949219 L 203.992188 67.949219 C 204.132812 67.949219 204.242188 68.0625 204.242188 68.203125 L 204.242188 82.265625 C 204.242188 82.40625 204.132812 82.519531 203.992188 82.519531 " fill-opacity="1" fill-rule="nonzero"></path><path fill="#000000" d="M 190.125 72.472656 L 186.105469 72.472656 C 185.964844 72.472656 185.855469 72.359375 185.855469 72.222656 C 185.855469 72.082031 185.964844 71.96875 186.105469 71.96875 L 189.875 71.96875 L 189.875 68.203125 C 189.875 68.0625 189.984375 67.949219 190.125 67.949219 C 190.261719 67.949219 190.375 68.0625 190.375 68.203125 L 190.375 72.222656 C 190.375 72.359375 190.261719 72.472656 190.125 72.472656 " fill-opacity="1" fill-rule="nonzero"></path><path fill="#ffffff" d="M 203.402344 78.523438 L 203.402344 77.671875 C 203.402344 77.238281 203.050781 76.886719 202.617188 76.886719 L 197.953125 76.886719 C 197.519531 76.886719 197.167969 77.238281 197.167969 77.671875 L 197.167969 78.523438 L 184.5 78.523438 L 184.5 91.789062 C 184.5 92.605469 185.160156 93.265625 185.976562 93.265625 L 205.597656 93.265625 L 205.597656 78.523438 L 203.402344 78.523438 " fill-opacity="1" fill-rule="nonzero"></path><path fill="#000000" d="M 184.75 78.777344 L 184.75 91.789062 C 184.75 92.464844 185.300781 93.015625 185.976562 93.015625 L 205.347656 93.015625 L 205.347656 78.777344 L 203.402344 78.777344 C 203.261719 78.777344 203.152344 78.664062 203.152344 78.523438 L 203.152344 77.671875 C 203.152344 77.375 202.910156 77.136719 202.617188 77.136719 L 197.953125 77.136719 C 197.65625 77.136719 197.417969 77.375 197.417969 77.671875 L 197.417969 78.523438 C 197.417969 78.664062 197.304688 78.777344 197.167969 78.777344 Z M 205.597656 93.515625 L 185.976562 93.515625 C 185.023438 93.515625 184.25 92.742188 184.25 91.789062 L 184.25 78.523438 C 184.25 78.386719 184.363281 78.273438 184.5 78.273438 L 196.917969 78.273438 L 196.917969 77.671875 C 196.917969 77.101562 197.382812 76.636719 197.953125 76.636719 L 202.617188 76.636719 C 203.1875 76.636719 203.652344 77.101562 203.652344 77.671875 L 203.652344 78.273438 L 205.597656 78.273438 C 205.734375 78.273438 205.847656 78.386719 205.847656 78.523438 L 205.847656 93.265625 C 205.847656 93.40625 205.734375 93.515625 205.597656 93.515625 " fill-opacity="1" fill-rule="nonzero"></path><path fill="#000000" d="M 233.253906 70.625 L 236.828125 70.625 L 236.828125 88.992188 L 233.90625 88.992188 L 233.253906 70.625 " fill-opacity="1" fill-rule="nonzero"></path><path fill="#ffffff" d="M 220.050781 68.203125 L 216.03125 72.222656 L 216.03125 82.265625 L 233.917969 82.265625 L 233.917969 68.203125 L 220.050781 68.203125 " fill-opacity="1" fill-rule="nonzero"></path><path fill="#000000" d="M 216.28125 82.015625 L 233.667969 82.015625 L 233.667969 68.453125 L 220.15625 68.453125 L 216.28125 72.324219 Z M 233.917969 82.519531 L 216.03125 82.519531 C 215.890625 82.519531 215.78125 82.40625 215.78125 82.265625 L 215.78125 72.222656 C 215.78125 72.152344 215.804688 72.089844 215.851562 72.042969 L 219.875 68.023438 C 219.921875 67.976562 219.984375 67.949219 220.050781 67.949219 L 233.917969 67.949219 C 234.058594 67.949219 234.167969 68.0625 234.167969 68.203125 L 234.167969 82.265625 C 234.167969 82.40625 234.058594 82.519531 233.917969 82.519531 " fill-opacity="1" fill-rule="nonzero"></path><path fill="#000000" d="M 220.050781 72.472656 L 216.03125 72.472656 C 215.890625 72.472656 215.78125 72.359375 215.78125 72.222656 C 215.78125 72.082031 215.890625 71.96875 216.03125 71.96875 L 219.800781 71.96875 L 219.800781 68.203125 C 219.800781 68.0625 219.914062 67.949219 220.050781 67.949219 C 220.1875 67.949219 220.300781 68.0625 220.300781 68.203125 L 220.300781 72.222656 C 220.300781 72.359375 220.1875 72.472656 220.050781 72.472656 " fill-opacity="1" fill-rule="nonzero"></path><path fill="#ffffff" d="M 233.328125 78.523438 L 233.328125 77.671875 C 233.328125 77.238281 232.976562 76.886719 232.542969 76.886719 L 227.878906 76.886719 C 227.445312 76.886719 227.09375 77.238281 227.09375 77.671875 L 227.09375 78.523438 L 214.425781 78.523438 L 214.425781 91.789062 C 214.425781 92.605469 215.089844 93.265625 215.90625 93.265625 L 235.523438 93.265625 L 235.523438 78.523438 L 233.328125 78.523438 " fill-opacity="1" fill-rule="nonzero"></path><path fill="#000000" d="M 214.675781 78.777344 L 214.675781 91.789062 C 214.675781 92.464844 215.226562 93.015625 215.90625 93.015625 L 235.273438 93.015625 L 235.273438 78.777344 L 233.328125 78.777344 C 233.191406 78.777344 233.078125 78.664062 233.078125 78.523438 L 233.078125 77.671875 C 233.078125 77.375 232.835938 77.136719 232.542969 77.136719 L 227.878906 77.136719 C 227.585938 77.136719 227.34375 77.375 227.34375 77.671875 L 227.34375 78.523438 C 227.34375 78.664062 227.230469 78.777344 227.09375 78.777344 Z M 235.523438 93.515625 L 215.90625 93.515625 C 214.949219 93.515625 214.175781 92.742188 214.175781 91.789062 L 214.175781 78.523438 C 214.175781 78.386719 214.289062 78.273438 214.425781 78.273438 L 226.839844 78.273438 L 226.839844 77.671875 C 226.839844 77.101562 227.308594 76.636719 227.878906 76.636719 L 232.542969 76.636719 C 233.113281 76.636719 233.578125 77.101562 233.578125 77.671875 L 233.578125 78.273438 L 235.523438 78.273438 C 235.664062 78.273438 235.773438 78.386719 235.773438 78.523438 L 235.773438 93.265625 C 235.773438 93.40625 235.664062 93.515625 235.523438 93.515625 " fill-opacity="1" fill-rule="nonzero"></path><path fill="#000000" d="M 263.179688 70.625 L 266.757812 70.625 L 266.757812 88.992188 L 263.828125 88.992188 L 263.179688 70.625 " fill-opacity="1" fill-rule="nonzero"></path><path fill="#ffffff" d="M 249.976562 68.203125 L 245.957031 72.222656 L 245.957031 82.265625 L 263.84375 82.265625 L 263.84375 68.203125 L 249.976562 68.203125 " fill-opacity="1" fill-rule="nonzero"></path><path fill="#000000" d="M 246.207031 82.015625 L 263.59375 82.015625 L 263.59375 68.453125 L 250.078125 68.453125 L 246.207031 72.324219 Z M 263.84375 82.519531 L 245.957031 82.519531 C 245.816406 82.519531 245.707031 82.40625 245.707031 82.265625 L 245.707031 72.222656 C 245.707031 72.152344 245.730469 72.089844 245.777344 72.042969 L 249.800781 68.023438 C 249.847656 67.976562 249.910156 67.949219 249.976562 67.949219 L 263.84375 67.949219 C 263.984375 67.949219 264.09375 68.0625 264.09375 68.203125 L 264.09375 82.265625 C 264.09375 82.40625 263.984375 82.519531 263.84375 82.519531 " fill-opacity="1" fill-rule="nonzero"></path><path fill="#000000" d="M 249.976562 72.472656 L 245.957031 72.472656 C 245.816406 72.472656 245.707031 72.359375 245.707031 72.222656 C 245.707031 72.082031 245.816406 71.96875 245.957031 71.96875 L 249.726562 71.96875 L 249.726562 68.203125 C 249.726562 68.0625 249.835938 67.949219 249.976562 67.949219 C 250.113281 67.949219 250.226562 68.0625 250.226562 68.203125 L 250.226562 72.222656 C 250.226562 72.359375 250.113281 72.472656 249.976562 72.472656 " fill-opacity="1" fill-rule="nonzero"></path><path fill="#ffffff" d="M 263.253906 78.523438 L 263.253906 77.671875 C 263.253906 77.238281 262.902344 76.886719 262.46875 76.886719 L 257.804688 76.886719 C 257.371094 76.886719 257.019531 77.238281 257.019531 77.671875 L 257.019531 78.523438 L 244.351562 78.523438 L 244.351562 91.789062 C 244.351562 92.605469 245.011719 93.265625 245.832031 93.265625 L 265.449219 93.265625 L 265.449219 78.523438 L 263.253906 78.523438 " fill-opacity="1" fill-rule="nonzero"></path><path fill="#000000" d="M 244.601562 78.777344 L 244.601562 91.789062 C 244.601562 92.464844 245.152344 93.015625 245.832031 93.015625 L 265.199219 93.015625 L 265.199219 78.777344 L 263.253906 78.777344 C 263.117188 78.777344 263.003906 78.664062 263.003906 78.523438 L 263.003906 77.671875 C 263.003906 77.375 262.761719 77.136719 262.46875 77.136719 L 257.804688 77.136719 C 257.507812 77.136719 257.269531 77.375 257.269531 77.671875 L 257.269531 78.523438 C 257.269531 78.664062 257.15625 78.777344 257.019531 78.777344 Z M 265.449219 93.515625 L 245.832031 93.515625 C 244.875 93.515625 244.101562 92.742188 244.101562 91.789062 L 244.101562 78.523438 C 244.101562 78.386719 244.214844 78.273438 244.351562 78.273438 L 256.769531 78.273438 L 256.769531 77.671875 C 256.769531 77.101562 257.234375 76.636719 257.804688 76.636719 L 262.46875 76.636719 C 263.039062 76.636719 263.503906 77.101562 263.503906 77.671875 L 263.503906 78.273438 L 265.449219 78.273438 C 265.589844 78.273438 265.699219 78.386719 265.699219 78.523438 L 265.699219 93.265625 C 265.699219 93.40625 265.589844 93.515625 265.449219 93.515625 " fill-opacity="1" fill-rule="nonzero"></path><path fill="#ffffff" d="M 283.152344 51.714844 C 283.152344 54.574219 280.835938 56.894531 277.976562 56.894531 C 275.117188 56.894531 272.796875 54.574219 272.796875 51.714844 C 272.796875 48.855469 275.117188 46.535156 277.976562 46.535156 C 280.835938 46.535156 283.152344 48.855469 283.152344 51.714844 " fill-opacity="1" fill-rule="nonzero"></path><path fill="#000000" d="M 277.976562 46.785156 C 275.257812 46.785156 273.046875 48.996094 273.046875 51.714844 C 273.046875 54.433594 275.257812 56.640625 277.976562 56.640625 C 280.691406 56.640625 282.902344 54.433594 282.902344 51.714844 C 282.902344 48.996094 280.691406 46.785156 277.976562 46.785156 Z M 277.976562 57.144531 C 274.980469 57.144531 272.546875 54.707031 272.546875 51.714844 C 272.546875 48.71875 274.980469 46.285156 277.976562 46.285156 C 280.96875 46.285156 283.40625 48.71875 283.40625 51.714844 C 283.40625 54.707031 280.96875 57.144531 277.976562 57.144531 " fill-opacity="1" fill-rule="nonzero"></path><path fill="#000000" d="M 99.722656 219.703125 L 52.984375 219.703125 C 52.847656 219.703125 52.734375 219.589844 52.734375 219.453125 C 52.734375 219.3125 52.847656 219.199219 52.984375 219.199219 L 99.722656 219.199219 C 99.859375 219.199219 99.972656 219.3125 99.972656 219.453125 C 99.972656 219.589844 99.859375 219.703125 99.722656 219.703125 " fill-opacity="1" fill-rule="nonzero"></path><path fill="#88e64a" d="M 43.910156 219.453125 C 43.910156 218.328125 44.820312 217.417969 45.941406 217.417969 C 47.0625 217.417969 47.972656 218.328125 47.972656 219.453125 C 47.972656 220.574219 47.0625 221.484375 45.941406 221.484375 C 44.820312 221.484375 43.910156 220.574219 43.910156 219.453125 " fill-opacity="1" fill-rule="nonzero"></path><path fill="#88e64a" d="M 37.984375 219.453125 C 37.984375 218.328125 38.894531 217.417969 40.015625 217.417969 C 41.136719 217.417969 42.046875 218.328125 42.046875 219.453125 C 42.046875 220.574219 41.136719 221.484375 40.015625 221.484375 C 38.894531 221.484375 37.984375 220.574219 37.984375 219.453125 " fill-opacity="1" fill-rule="nonzero"></path><path fill="#88e64a" d="M 32.058594 219.453125 C 32.058594 218.328125 32.96875 217.417969 34.089844 217.417969 C 35.210938 217.417969 36.121094 218.328125 36.121094 219.453125 C 36.121094 220.574219 35.210938 221.484375 34.089844 221.484375 C 32.96875 221.484375 32.058594 220.574219 32.058594 219.453125 " fill-opacity="1" fill-rule="nonzero"></path><path fill="#000000" d="M 226.410156 155.25 L 208.589844 155.25 C 208.449219 155.25 208.335938 155.140625 208.335938 155 L 208.335938 110.25 C 208.335938 110.109375 208.449219 109.996094 208.589844 109.996094 C 208.726562 109.996094 208.839844 110.109375 208.839844 110.25 L 208.839844 154.75 L 226.410156 154.75 C 226.550781 154.75 226.664062 154.863281 226.664062 155 C 226.664062 155.140625 226.550781 155.25 226.410156 155.25 " fill-opacity="1" fill-rule="nonzero"></path><path fill="#000000" d="M 256.359375 146.863281 C 256.269531 146.863281 256.179688 146.8125 256.136719 146.726562 C 256.074219 146.601562 256.121094 146.449219 256.246094 146.386719 L 290.429688 128.980469 C 290.550781 128.917969 290.703125 128.964844 290.765625 129.089844 C 290.828125 129.210938 290.78125 129.363281 290.65625 129.425781 L 256.472656 146.835938 C 256.4375 146.851562 256.398438 146.863281 256.359375 146.863281 " fill-opacity="1" fill-rule="nonzero"></path><path fill="#000000" d="M 281.550781 164.636719 C 281.507812 164.636719 281.46875 164.625 281.429688 164.605469 C 281.308594 164.539062 281.261719 164.386719 281.328125 164.265625 L 297.355469 134.941406 C 297.425781 134.824219 297.578125 134.777344 297.695312 134.84375 C 297.820312 134.910156 297.863281 135.0625 297.796875 135.183594 L 281.769531 164.503906 C 281.722656 164.589844 281.636719 164.636719 281.550781 164.636719 " fill-opacity="1" fill-rule="nonzero"></path><path fill="#000000" d="M 309.179688 196.464844 C 309.152344 196.464844 309.125 196.460938 309.101562 196.453125 L 286.808594 189.136719 C 286.675781 189.09375 286.605469 188.953125 286.648438 188.820312 C 286.691406 188.6875 286.832031 188.617188 286.964844 188.660156 L 309.257812 195.976562 C 309.386719 196.019531 309.460938 196.164062 309.414062 196.292969 C 309.382812 196.398438 309.285156 196.464844 309.179688 196.464844 " fill-opacity="1" fill-rule="nonzero"></path></svg>