<svg xmlns="http://www.w3.org/2000/svg" width="1200" height="370" viewBox="0 0 1200 370" fill="none"><g clip-path="url(#clip0_209_28)"><path d="M469.74 243.998H556.032V283.998H414.324V246.852L500.032 123.436H414.324V83.4355H556.032V120.581L469.74 243.998Z" fill="#010101"></path><path d="M738.312 201.706C738.312 206.29 738.025 211.055 737.457 215.998H626.874C627.634 225.904 630.822 233.472 636.437 238.706C642.062 243.946 648.968 246.561 657.166 246.561C669.358 246.561 677.838 241.425 682.603 231.144H734.603C731.937 241.618 727.124 251.05 720.166 259.436C713.207 267.811 704.489 274.383 694.02 279.144C683.546 283.909 671.832 286.29 658.874 286.29C643.259 286.29 629.358 282.956 617.166 276.29C604.968 269.623 595.442 260.102 588.582 247.727C581.733 235.342 578.312 220.863 578.312 204.29C578.312 187.722 581.692 173.248 588.457 160.873C595.218 148.488 604.692 138.956 616.874 132.29C629.067 125.623 643.067 122.29 658.874 122.29C674.301 122.29 688.02 125.529 700.02 131.998C712.02 138.472 721.4 147.706 728.166 159.706C734.926 171.706 738.312 185.706 738.312 201.706ZM688.312 188.852C688.312 180.477 685.447 173.821 679.728 168.873C674.02 163.915 666.879 161.436 658.312 161.436C650.114 161.436 643.207 163.821 637.582 168.581C631.968 173.331 628.499 180.092 627.166 188.852H688.312Z" fill="#010101"></path><path d="M861.159 122.852C879.826 122.852 894.727 128.904 905.868 140.998C917.019 153.097 922.597 169.717 922.597 190.852V283.998H874.013V197.436C874.013 186.769 871.248 178.488 865.722 172.581C860.206 166.665 852.784 163.706 843.451 163.706C834.118 163.706 826.685 166.665 821.159 172.581C815.628 178.488 812.868 186.769 812.868 197.436V283.998H764.013V124.581H812.868V145.706C817.826 138.665 824.493 133.097 832.868 128.998C841.253 124.904 850.685 122.852 861.159 122.852Z" fill="#010101"></path><path d="M981.161 107.998C972.588 107.998 965.588 105.477 960.161 100.436C954.729 95.3834 952.015 89.1386 952.015 81.7063C952.015 74.097 954.729 67.7688 960.161 62.7272C965.588 57.6751 972.588 55.1438 981.161 55.1438C989.536 55.1438 996.437 57.6751 1001.87 62.7272C1007.3 67.7688 1010.02 74.097 1010.02 81.7063C1010.02 89.1386 1007.3 95.3834 1001.87 100.436C996.437 105.477 989.536 107.998 981.161 107.998ZM1005.43 124.581V283.998H956.578V124.581H1005.43Z" fill="#010101"></path><path d="M1135.15 283.998L1104.57 239.706L1078.86 283.998H1026.01L1078.59 202.581L1024.59 124.581H1079.44L1110.01 168.581L1135.71 124.581H1188.57L1135.15 204.852L1190.01 283.998H1135.15Z" fill="#010101"></path><mask id="mask0_209_28" style="mask-type:luminance" maskUnits="userSpaceOnUse" x="1" y="0" width="370" height="370"><path d="M1.07812 0H370.104V369.026H1.07812V0Z" fill="white"></path></mask><g mask="url(#mask0_209_28)"><mask id="mask1_209_28" style="mask-type:luminance" maskUnits="userSpaceOnUse" x="1" y="0" width="370" height="370"><path d="M100.901 0H270.281C296.755 0 322.146 10.5156 340.865 29.2344C359.589 47.9583 370.104 73.3438 370.104 99.8177V269.203C370.104 295.677 359.589 321.068 340.865 339.786C322.146 358.505 296.755 369.026 270.281 369.026H100.901C74.4271 369.026 49.0365 358.505 30.3177 339.786C11.5938 321.068 1.07812 295.677 1.07812 269.203V99.8177C1.07812 73.3438 11.5938 47.9583 30.3177 29.2344C49.0365 10.5156 74.4271 0 100.901 0Z" fill="white"></path></mask><g mask="url(#mask1_209_28)"><path d="M1.07812 0H370.104V369.026H1.07812V0Z" fill="#88E64A"></path></g></g><path d="M101.792 184.063L186.073 183.885L175.052 164.672C155.38 130.557 118.88 109.432 79.2916 109.516L79.2604 95.3802L175.693 95.1771C207.052 95.1094 236.094 113.109 249.875 141.74L270.349 184.099L186.073 184.276L197.089 203.49C216.76 237.604 253.26 258.729 292.849 258.646L292.88 272.781L196.453 272.984C165.094 273.052 136.047 255.052 122.266 226.422L101.792 184.063Z" fill="#1B4200"></path></g><defs><clipPath id="clip0_209_28"><rect width="1200" height="370" fill="white"></rect></clipPath></defs></svg>