<svg xmlns="http://www.w3.org/2000/svg" width="100" height="100" viewBox="0 0 100 100" fill="none"><path d="M71.7481 64.2083C71.7703 65.1904 71.5961 66.1671 71.2357 67.0809C70.8752 67.9948 70.3358 68.8274 69.6492 69.53C68.9625 70.2325 68.1424 70.7908 67.237 71.172C66.3316 71.5532 65.3592 71.7498 64.3768 71.75C63.3945 71.7502 62.4219 71.5542 61.5164 71.1734C60.6108 70.7927 59.7904 70.2348 59.1034 69.5326C58.4164 68.8304 57.8766 67.998 57.5157 67.0844C57.1548 66.1707 56.9801 65.1941 57.0018 64.212C57.0444 62.285 57.8397 60.4513 59.2174 59.1034C60.5951 57.7555 62.4457 57.0005 64.3732 57C66.3006 56.9995 68.1516 57.7536 69.53 59.1008C70.9083 60.448 71.7045 62.2813 71.7481 64.2083Z" fill="#4C8C21"></path><path d="M63.1437 79C60.1937 79 57.2437 78.2625 54.6625 76.4188L31.8 64.25C29.9563 62.775 28.4812 62.0375 27.0062 60.5625C22.5812 56.1375 20 49.8688 20 43.6C20 37.3313 22.5812 31.4313 27.0062 27.0062C31.4313 22.5812 37.3313 20 43.6 20C49.8688 20 55.7688 22.5812 60.5625 27.0062C62.0375 28.4812 62.775 29.5875 64.25 31.4312L77.1562 55.0312C80.8438 61.3 79.7375 69.0437 74.575 74.2062C71.2563 77.525 67.5687 79 63.1437 79ZM43.6 23.6875C38.4375 23.6875 33.275 25.9 29.5875 29.5875C25.9 33.275 23.6875 38.4375 23.6875 43.6C23.6875 49.1313 25.9 53.925 29.5875 57.6125C30.6937 58.7187 31.8 59.4562 33.6438 60.5625L56.875 73.1C59.0875 74.575 61.3 74.9437 63.5125 74.9437C66.8313 74.9437 69.7813 73.8375 71.9938 71.2562C76.05 67.2 76.7875 61.3 73.8375 56.5062L60.9313 32.9062C59.825 31.4312 59.0875 30.325 57.9813 29.2188C53.925 25.9 49.1313 23.6875 43.6 23.6875Z" fill="#4C8C21"></path><path d="M60.5625 45.8125V42.125L55.4 40.2812C55.0313 39.5437 55.0312 39.175 54.6625 38.4375L56.875 33.6438L54.2938 31.0625L49.5 33.275C48.7625 32.9062 48.3938 32.9063 47.6562 32.5375L45.8125 27.375H42.125L40.2812 32.5375C39.5437 32.9063 39.175 32.9062 38.4375 33.275L33.6438 31.0625L31.0625 33.6438L33.275 38.4375C32.9062 39.175 32.9063 39.5437 32.5375 40.2812L27.375 42.125V45.8125L32.5375 47.6562C32.9063 48.3938 32.9062 48.7625 33.275 49.5L31.0625 54.2938L33.6438 56.875L38.4375 54.6625C39.175 55.0312 39.5437 55.4 40.2812 55.4L42.125 60.5625H45.8125L47.6562 55.4C48.3938 55.0313 48.7625 55.0312 49.5 54.6625L54.2938 56.875L56.875 54.2938L54.6625 49.5C55.0312 48.7625 55.4 48.3938 55.4 47.6562L60.5625 45.8125ZM43.9688 49.5C41.0187 49.5 38.4375 46.9188 38.4375 43.9688C38.4375 41.0187 41.0187 38.4375 43.9688 38.4375C46.9188 38.4375 49.5 41.0187 49.5 43.9688C49.5 46.9188 46.9188 49.5 43.9688 49.5Z" fill="#4C8C21"></path><path d="M0 16C0 7.16345 7.16344 0 16 0H84C92.8366 0 100 7.16344 100 16V84C100 92.8366 92.8366 100 84 100H16C7.16345 100 0 92.8366 0 84V16Z" fill="#88E64A" fill-opacity="0.180392"></path></svg>