<svg xmlns="http://www.w3.org/2000/svg" width="100" height="100" viewBox="0 0 100 100" fill="none"><path d="M44.7705 60.2188C45.9904 61.4438 47.5661 62.044 49.4976 62.0195C51.4292 61.995 52.8524 61.2927 53.7673 59.9125L70.846 34.1875L45.228 51.3375C43.8556 52.2563 43.1318 53.6599 43.0565 55.5484C42.9813 57.437 43.5526 58.9937 44.7705 60.2188ZM49.4976 25C52.4966 25 55.3817 25.4206 58.1529 26.2618C60.9241 27.1029 63.5286 28.3667 65.9664 30.0531L60.1718 33.7281C58.4944 32.8604 56.7541 32.2101 54.9506 31.7773C53.1472 31.3445 51.3295 31.127 49.4976 31.125C42.7373 31.125 36.9804 33.5117 32.2268 38.2851C27.4733 43.0585 25.0975 48.8385 25.0995 55.625C25.0995 57.7687 25.3923 59.887 25.9779 61.9797C26.5634 64.0724 27.3889 66.0375 28.4543 67.875H70.541C71.7101 65.9354 72.562 63.9193 73.0967 61.8266C73.6314 59.7339 73.8978 57.5646 73.8958 55.3187C73.8958 53.4812 73.6792 51.6948 73.2462 49.9594C72.8131 48.224 72.1655 46.5396 71.3035 44.9062L74.9632 39.0875C76.4881 41.4865 77.6958 44.0385 78.5863 46.7438C79.4768 49.449 79.9465 52.2563 79.9953 55.1656C80.0441 58.075 79.7137 60.8568 79.0041 63.5109C78.2945 66.1651 77.2525 68.6917 75.8781 71.0906C75.319 72.0094 74.5565 72.724 73.5908 73.2344C72.625 73.7448 71.6084 74 70.541 74H28.4543C27.3869 74 26.3703 73.7448 25.4045 73.2344C24.4387 72.724 23.6763 72.0094 23.1172 71.0906C21.7956 68.7937 20.779 66.357 20.0674 63.7804C19.3558 61.2039 19 58.4854 19 55.625C19 51.3885 19.8011 47.4206 21.4032 43.7211C23.0054 40.0216 25.191 36.7804 27.9602 33.9976C30.7294 31.2148 33.9693 29.02 37.6798 27.4133C41.3904 25.8065 45.3296 25.002 49.4976 25Z" fill="#1B4200"></path><path d="M0 16C0 7.16345 7.16344 0 16 0H84C92.8366 0 100 7.16344 100 16V84C100 92.8366 92.8366 100 84 100H16C7.16345 100 0 92.8366 0 84V16Z" fill="#88E64A" fill-opacity="0.180392"></path></svg>