<svg xmlns="http://www.w3.org/2000/svg" width="100" height="100" viewBox="0 0 100 100" fill="none"><path d="M58.8945 55.5006L74.481 49.3921C77.9698 48.0246 78.9938 48.4186 80.6217 49.6282C81.5423 50.312 81.8787 51.1423 81.9624 52.1679C82.1364 54.3023 81.7245 55.6862 80.3444 56.6076C71.9768 62.1902 63.0578 66.3498 51.8758 70.91C46.4407 73.1258 38.4029 71.6638 31.1824 69.2005L21.5118 69.1631C21.0515 69.164 20.5955 69.0749 20.1699 68.9009C19.7443 68.7269 19.3574 68.4715 19.0313 68.1492C18.7052 67.8269 18.4463 67.444 18.2693 67.0224C18.0924 66.6008 18.0009 66.1488 18 65.6921V55.9857C18 54.0548 19.5672 52.5017 21.5118 52.5017H31.893C35.8429 47.6306 47.8667 49.2537 56.3771 49.5403C58.6746 49.6184 59.5345 51.9644 58.8945 55.5006ZM58.8945 55.5006C56.6824 59.7123 51.0586 58.5971 45.7662 58.7876M63.0775 40.3614L61.0541 38.354L59.029 40.363H57.4257M53.3757 40.3614L55.4007 38.354L57.4241 40.3614M47.7962 32.1088H63.7421L68.2155 36.2359L63.7421 40.363H63.0791M53.3773 40.363H47.7978M47.7962 40.3614L43.7527 44.3729C42.2758 45.8381 39.8995 45.8381 38.4243 44.3729L32.8841 38.8815C31.4072 37.4162 31.4072 35.0588 32.8841 33.5936L38.4226 28.0989C39.8995 26.6337 42.2758 26.6337 43.751 28.0989L47.7945 32.1104M40.7332 36.2359C40.7332 37.6425 39.5845 38.7838 38.165 38.7838C36.7471 38.7838 35.5951 37.6442 35.5951 36.2359C35.5951 34.8293 36.7438 33.688 38.1633 33.688C39.5812 33.688 40.7332 34.8276 40.7332 36.2343V36.2359Z" stroke="#1B4200" stroke-width="2" stroke-linecap="round" stroke-linejoin="round"></path><path d="M0 16C0 7.16345 7.16344 0 16 0H84C92.8366 0 100 7.16344 100 16V84C100 92.8366 92.8366 100 84 100H16C7.16345 100 0 92.8366 0 84V16Z" fill="#88E64A" fill-opacity="0.180392"></path></svg>