<svg xmlns="http://www.w3.org/2000/svg" width="100" height="100" viewBox="0 0 100 100" fill="none"><path d="M75 65.5556V34.4444C75 27.6996 63.5531 22 50 22C36.4469 22 25 27.6996 25 34.4444V65.5556C25 72.3004 36.4469 78 50 78C63.5531 78 75 72.3004 75 65.5556ZM50 28.2222C61.5344 28.2222 68.5344 32.9107 68.75 34.4258C68.5344 35.9782 61.5344 40.6667 50 40.6667C38.4656 40.6667 31.4656 35.9782 31.25 34.4631C31.4656 32.9107 38.4656 28.2222 50 28.2222ZM31.25 42.5551C35.8719 45.1902 42.6156 46.8889 50 46.8889C57.3844 46.8889 64.1281 45.1902 68.75 42.5551V49.9813C68.5344 51.5338 61.5344 56.2222 50 56.2222C38.4656 56.2222 31.4656 51.5338 31.25 50V42.5551ZM31.25 65.5556V58.1107C35.8719 60.7458 42.6156 62.4444 50 62.4444C57.3844 62.4444 64.1281 60.7458 68.75 58.1107V65.5369C68.5344 67.0893 61.5344 71.7778 50 71.7778C38.4656 71.7778 31.4656 67.0893 31.25 65.5556Z" fill="#2F600D"></path><path d="M0 16C0 7.16345 7.16344 0 16 0H84C92.8366 0 100 7.16344 100 16V84C100 92.8366 92.8366 100 84 100H16C7.16345 100 0 92.8366 0 84V16Z" fill="#88E64A" fill-opacity="0.180392"></path></svg>