<svg xmlns="http://www.w3.org/2000/svg" width="100" height="100" viewBox="0 0 100 100" fill="none"><path d="M63.2812 63.2812V69.1875H34.7344C32.3847 69.1875 30.1313 68.2541 28.4699 66.5926C26.8084 64.9312 25.875 62.6778 25.875 60.3281C25.875 57.9785 26.8084 55.7251 28.4699 54.0636C30.1313 52.4021 32.3847 51.4688 34.7344 51.4688H35.7188V47.5312H34.7344C31.3404 47.5312 28.0855 48.8795 25.6856 51.2794C23.2857 53.6792 21.9375 56.9342 21.9375 60.3281C21.9375 63.7221 23.2857 66.977 25.6856 69.3769C28.0855 71.7768 31.3404 73.125 34.7344 73.125H63.2812V79.0312H79.0312V63.2812H63.2812ZM75.0938 75.0938H67.2188V67.2188H75.0938V75.0938Z" fill="#3F7818"></path><path d="M59.3438 61.3125H55.4062V55.4063H43.5938V61.3125H39.6562V55.4063C39.6562 54.362 40.0711 53.3604 40.8095 52.622C41.5479 51.8836 42.5495 51.4688 43.5938 51.4688H55.4062C56.4505 51.4688 57.4521 51.8836 58.1905 52.622C58.9289 53.3604 59.3438 54.362 59.3438 55.4063V61.3125ZM49.5 49.5C48.3319 49.5 47.1899 49.1536 46.2187 48.5046C45.2474 47.8556 44.4904 46.9332 44.0433 45.854C43.5963 44.7748 43.4793 43.5872 43.7072 42.4415C43.9351 41.2958 44.4976 40.2434 45.3236 39.4174C46.1497 38.5914 47.202 38.0289 48.3477 37.801C49.4934 37.5731 50.681 37.6901 51.7602 38.1371C52.8395 38.5841 53.7619 39.3411 54.4109 40.3124C55.0599 41.2837 55.4062 42.4256 55.4062 43.5938C55.4047 45.1597 54.7819 46.6611 53.6746 47.7684C52.5673 48.8757 51.066 49.4984 49.5 49.5ZM49.5 41.625C49.1106 41.625 48.73 41.7405 48.4062 41.9568C48.0825 42.1731 47.8301 42.4806 47.6811 42.8403C47.5321 43.2001 47.4931 43.5959 47.5691 43.9778C47.645 44.3597 47.8325 44.7105 48.1079 44.9859C48.3832 45.2612 48.734 45.4487 49.1159 45.5247C49.4978 45.6006 49.8937 45.5617 50.2534 45.4126C50.6131 45.2636 50.9206 45.0113 51.137 44.6875C51.3533 44.3638 51.4688 43.9831 51.4688 43.5938C51.4688 43.0716 51.2613 42.5708 50.8921 42.2016C50.5229 41.8324 50.0221 41.625 49.5 41.625Z" fill="#3F7818"></path><path d="M64.2656 25.875H35.7188V19.9688H19.9688V35.7188H35.7188V29.8125H64.2656C66.6153 29.8125 68.8687 30.7459 70.5301 32.4074C72.1916 34.0688 73.125 36.3222 73.125 38.6719C73.125 41.0215 72.1916 43.2749 70.5301 44.9364C68.8687 46.5979 66.6153 47.5312 64.2656 47.5312H63.2812V51.4688H64.2656C67.6596 51.4687 70.9145 50.1205 73.3144 47.7206C75.7143 45.3208 77.0625 42.0658 77.0625 38.6719C77.0625 35.2779 75.7143 32.023 73.3144 29.6231C70.9145 27.2232 67.6596 25.875 64.2656 25.875ZM31.7812 31.7812H23.9062V23.9062H31.7812V31.7812Z" fill="#3F7818"></path><path d="M0 16C0 7.16345 7.16344 0 16 0H84C92.8366 0 100 7.16344 100 16V84C100 92.8366 92.8366 100 84 100H16C7.16345 100 0 92.8366 0 84V16Z" fill="#88E64A" fill-opacity="0.180392"></path></svg>