<svg xmlns="http://www.w3.org/2000/svg" width="100" height="100" viewBox="0 0 100 100" fill="none"><path d="M40.2387 45.7479C40.8702 45.3715 41.6259 45.26 42.34 45.4378C43.054 45.6156 43.668 46.0682 44.047 46.6962C46.9497 51.5067 49.1302 56.2149 50.6913 61.1747L51.1691 62.7809L51.4247 62.4215C57.2385 54.346 63.8689 52.3223 72.4383 54.957L73.0994 55.1698C73.4456 55.2846 73.7656 55.466 74.0414 55.7039C74.3171 55.9417 74.543 56.2313 74.7063 56.556C74.8696 56.8808 74.967 57.2344 74.9929 57.5966C75.0189 57.9588 74.973 58.3226 74.8577 58.6671C74.7424 59.0117 74.5601 59.3303 74.3211 59.6047C74.0822 59.8791 73.7912 60.104 73.4649 60.2665C73.1386 60.429 72.7834 60.5259 72.4195 60.5518C72.0555 60.5776 71.69 60.5319 71.3439 60.4172C63.1995 57.7133 58.2051 60.0799 52.483 71.4702C51.2802 73.8644 47.7025 73.3308 47.2608 70.6878C45.9831 63.0574 43.4581 56.4637 39.2859 49.5383C38.9078 48.9097 38.7957 48.1576 38.9743 47.4469C39.153 46.7362 39.6077 46.1251 40.2387 45.7479ZM33.3332 26C32.2389 26 31.1553 26.2145 30.1442 26.6313C29.1332 27.0482 28.2146 27.6591 27.4407 28.4292C26.6669 29.1994 26.0531 30.1137 25.6343 31.12C25.2155 32.1263 25 33.2048 25 34.294C25 35.3831 25.2155 36.4616 25.6343 37.4679C26.0531 38.4742 26.6669 39.3885 27.4407 40.1587C28.2146 40.9288 29.1332 41.5398 30.1442 41.9566C31.1553 42.3734 32.2389 42.5879 33.3332 42.5879C35.5433 42.5879 37.6629 41.7141 39.2257 40.1587C40.7885 38.6033 41.6665 36.4937 41.6665 34.294C41.6665 32.0943 40.7885 29.9847 39.2257 28.4292C37.6629 26.8738 35.5433 26 33.3332 26Z" fill="#1B4200"></path><path d="M0 16C0 7.16345 7.16344 0 16 0H84C92.8366 0 100 7.16344 100 16V84C100 92.8366 92.8366 100 84 100H16C7.16345 100 0 92.8366 0 84V16Z" fill="#88E64A" fill-opacity="0.180392"></path></svg>