<svg xmlns="http://www.w3.org/2000/svg" xmlns:xlink="http://www.w3.org/1999/xlink" width="485" viewBox="0 0 363.75 251.250001" height="335" preserveAspectRatio="xMidYMid meet"><defs><clipPath id="a6a6b86d7b"><path d="M 0.417969 0 L 363.085938 0 L 363.085938 250.503906 L 0.417969 250.503906 Z M 0.417969 0 " clip-rule="nonzero"></path></clipPath><clipPath id="f8e1170953"><path d="M 58 11.730469 L 280 11.730469 L 280 145 L 58 145 Z M 58 11.730469 " clip-rule="nonzero"></path></clipPath><clipPath id="5da1d7fad0"><path d="M 9.964844 87 L 127 87 L 127 123 L 9.964844 123 Z M 9.964844 87 " clip-rule="nonzero"></path></clipPath><clipPath id="75b1201595"><path d="M 9.964844 126 L 127 126 L 127 162 L 9.964844 162 Z M 9.964844 126 " clip-rule="nonzero"></path></clipPath><clipPath id="10eeeba697"><path d="M 9.964844 165 L 127 165 L 127 200 L 9.964844 200 Z M 9.964844 165 " clip-rule="nonzero"></path></clipPath><clipPath id="3c88c0714a"><path d="M 9.964844 204 L 127 204 L 127 239 L 9.964844 239 Z M 9.964844 204 " clip-rule="nonzero"></path></clipPath></defs><g clip-path="url(#a6a6b86d7b)"><path fill="#ffffff" d="M 0.417969 0 L 363.085938 0 L 363.085938 250.503906 L 0.417969 250.503906 Z M 0.417969 0 " fill-opacity="1" fill-rule="nonzero"></path><path fill="#f5f5f5" d="M 0.417969 0 L 363.085938 0 L 363.085938 250.503906 L 0.417969 250.503906 Z M 0.417969 0 " fill-opacity="1" fill-rule="nonzero"></path></g><path fill="#ffffff" d="M 58.703125 146.691406 C 58.703125 150.585938 61.847656 153.742188 65.726562 153.742188 L 272.335938 153.742188 C 276.214844 153.742188 279.359375 150.585938 279.359375 146.691406 L 279.359375 144.105469 L 274.160156 141.390625 L 60.40625 141.390625 L 58.703125 144.105469 L 58.703125 146.691406 " fill-opacity="1" fill-rule="nonzero"></path><path fill="#000000" d="M 272.335938 154.011719 L 65.726562 154.011719 C 61.703125 154.011719 58.429688 150.726562 58.429688 146.691406 C 58.429688 146.539062 58.554688 146.417969 58.703125 146.417969 C 58.855469 146.417969 58.976562 146.539062 58.976562 146.691406 C 58.976562 150.425781 62.003906 153.464844 65.726562 153.464844 L 272.335938 153.464844 C 276.058594 153.464844 279.085938 150.425781 279.085938 146.691406 C 279.085938 146.539062 279.207031 146.417969 279.359375 146.417969 C 279.507812 146.417969 279.632812 146.539062 279.632812 146.691406 C 279.632812 150.726562 276.359375 154.011719 272.335938 154.011719 " fill-opacity="1" fill-rule="nonzero"></path><path fill="#ffffff" d="M 204.152344 175.140625 L 133.910156 175.140625 C 131.0625 175.140625 128.753906 172.832031 128.753906 169.984375 L 128.753906 153.742188 L 209.308594 153.742188 L 209.308594 169.984375 C 209.308594 172.832031 207 175.140625 204.152344 175.140625 " fill-opacity="1" fill-rule="nonzero"></path><path fill="#000000" d="M 129.027344 154.011719 L 129.027344 169.984375 C 129.027344 172.675781 131.21875 174.867188 133.910156 174.867188 L 204.152344 174.867188 C 206.84375 174.867188 209.035156 172.675781 209.035156 169.984375 L 209.035156 154.011719 Z M 204.152344 175.414062 L 133.910156 175.414062 C 130.917969 175.414062 128.480469 172.976562 128.480469 169.984375 L 128.480469 153.742188 C 128.480469 153.589844 128.605469 153.464844 128.753906 153.464844 L 209.308594 153.464844 C 209.460938 153.464844 209.582031 153.589844 209.582031 153.742188 L 209.582031 169.984375 C 209.582031 172.976562 207.144531 175.414062 204.152344 175.414062 " fill-opacity="1" fill-rule="nonzero"></path><path fill="#000000" d="M 206.308594 159.039062 L 131.753906 159.039062 C 131.605469 159.039062 131.480469 158.917969 131.480469 158.765625 C 131.480469 158.617188 131.605469 158.492188 131.753906 158.492188 L 206.308594 158.492188 C 206.457031 158.492188 206.582031 158.617188 206.582031 158.765625 C 206.582031 158.917969 206.457031 159.039062 206.308594 159.039062 " fill-opacity="1" fill-rule="nonzero"></path><path fill="#ffffff" d="M 279.359375 144.105469 L 58.703125 144.105469 L 58.703125 18.089844 C 58.703125 14.730469 61.425781 12.003906 64.789062 12.003906 L 273.277344 12.003906 C 276.636719 12.003906 279.359375 14.730469 279.359375 18.089844 L 279.359375 144.105469 " fill-opacity="1" fill-rule="nonzero"></path><g clip-path="url(#f8e1170953)"><path fill="#000000" d="M 58.976562 143.835938 L 279.085938 143.835938 L 279.085938 18.089844 C 279.085938 14.886719 276.480469 12.277344 273.277344 12.277344 L 64.789062 12.277344 C 61.582031 12.277344 58.976562 14.886719 58.976562 18.089844 Z M 279.359375 144.378906 L 58.703125 144.378906 C 58.554688 144.378906 58.429688 144.257812 58.429688 144.105469 L 58.429688 18.089844 C 58.429688 14.582031 61.28125 11.734375 64.789062 11.734375 L 273.277344 11.734375 C 276.78125 11.734375 279.632812 14.582031 279.632812 18.089844 L 279.632812 144.105469 C 279.632812 144.257812 279.507812 144.378906 279.359375 144.378906 " fill-opacity="1" fill-rule="nonzero"></path></g><path fill="#000000" d="M 146.257812 77.945312 L 71.140625 77.945312 C 70.992188 77.945312 70.867188 77.820312 70.867188 77.671875 L 70.867188 30.90625 C 70.867188 30.753906 70.992188 30.632812 71.140625 30.632812 C 71.292969 30.632812 71.414062 30.753906 71.414062 30.90625 L 71.414062 77.398438 L 146.257812 77.398438 C 146.410156 77.398438 146.53125 77.519531 146.53125 77.671875 C 146.53125 77.820312 146.410156 77.945312 146.257812 77.945312 " fill-opacity="1" fill-rule="nonzero"></path><path fill="#ffffff" d="M 80.910156 74.96875 L 74.265625 74.96875 L 74.265625 43.542969 L 80.910156 43.542969 L 80.910156 74.96875 " fill-opacity="1" fill-rule="nonzero"></path><path fill="#000000" d="M 74.539062 74.695312 L 80.636719 74.695312 L 80.636719 43.816406 L 74.539062 43.816406 Z M 80.910156 75.242188 L 74.265625 75.242188 C 74.113281 75.242188 73.992188 75.117188 73.992188 74.96875 L 73.992188 43.542969 C 73.992188 43.394531 74.113281 43.269531 74.265625 43.269531 L 80.910156 43.269531 C 81.0625 43.269531 81.183594 43.394531 81.183594 43.542969 L 81.183594 74.96875 C 81.183594 75.117188 81.0625 75.242188 80.910156 75.242188 " fill-opacity="1" fill-rule="nonzero"></path><path fill="#ffffff" d="M 91.371094 74.96875 L 84.726562 74.96875 L 84.726562 58.085938 L 91.371094 58.085938 L 91.371094 74.96875 " fill-opacity="1" fill-rule="nonzero"></path><path fill="#000000" d="M 85 74.695312 L 91.097656 74.695312 L 91.097656 58.355469 L 85 58.355469 Z M 91.371094 75.242188 L 84.726562 75.242188 C 84.574219 75.242188 84.453125 75.117188 84.453125 74.96875 L 84.453125 58.085938 C 84.453125 57.933594 84.574219 57.8125 84.726562 57.8125 L 91.371094 57.8125 C 91.523438 57.8125 91.644531 57.933594 91.644531 58.085938 L 91.644531 74.96875 C 91.644531 75.117188 91.523438 75.242188 91.371094 75.242188 " fill-opacity="1" fill-rule="nonzero"></path><path fill="#ffffff" d="M 101.832031 74.96875 L 95.183594 74.96875 L 95.183594 51.515625 L 101.832031 51.515625 L 101.832031 74.96875 " fill-opacity="1" fill-rule="nonzero"></path><path fill="#000000" d="M 95.457031 74.695312 L 101.558594 74.695312 L 101.558594 51.789062 L 95.457031 51.789062 Z M 101.832031 75.242188 L 95.183594 75.242188 C 95.035156 75.242188 94.914062 75.117188 94.914062 74.96875 L 94.914062 51.511719 C 94.914062 51.363281 95.035156 51.242188 95.183594 51.242188 L 101.832031 51.242188 C 101.980469 51.242188 102.105469 51.363281 102.105469 51.511719 L 102.105469 74.96875 C 102.105469 75.117188 101.980469 75.242188 101.832031 75.242188 " fill-opacity="1" fill-rule="nonzero"></path><path fill="#ffffff" d="M 112.292969 74.96875 L 105.644531 74.96875 L 105.644531 41.234375 L 112.292969 41.234375 L 112.292969 74.96875 " fill-opacity="1" fill-rule="nonzero"></path><path fill="#000000" d="M 105.917969 74.695312 L 112.019531 74.695312 L 112.019531 41.507812 L 105.917969 41.507812 Z M 112.292969 75.242188 L 105.644531 75.242188 C 105.496094 75.242188 105.371094 75.117188 105.371094 74.96875 L 105.371094 41.234375 C 105.371094 41.085938 105.496094 40.964844 105.644531 40.964844 L 112.292969 40.964844 C 112.441406 40.964844 112.566406 41.085938 112.566406 41.234375 L 112.566406 74.96875 C 112.566406 75.117188 112.441406 75.242188 112.292969 75.242188 " fill-opacity="1" fill-rule="nonzero"></path><path fill="#ffffff" d="M 122.582031 74.96875 L 116.273438 74.96875 L 116.273438 34.179688 L 122.582031 34.179688 L 122.582031 74.96875 " fill-opacity="1" fill-rule="nonzero"></path><path fill="#000000" d="M 116.546875 74.695312 L 122.308594 74.695312 L 122.308594 34.453125 L 116.546875 34.453125 Z M 122.585938 75.242188 L 116.273438 75.242188 C 116.121094 75.242188 116 75.117188 116 74.96875 L 116 34.179688 C 116 34.027344 116.121094 33.90625 116.273438 33.90625 L 122.585938 33.90625 C 122.734375 33.90625 122.859375 34.027344 122.859375 34.179688 L 122.859375 74.96875 C 122.859375 75.117188 122.734375 75.242188 122.585938 75.242188 " fill-opacity="1" fill-rule="nonzero"></path><path fill="#ffffff" d="M 133.210938 74.96875 L 126.566406 74.96875 L 126.566406 32.015625 L 133.210938 32.015625 L 133.210938 74.96875 " fill-opacity="1" fill-rule="nonzero"></path><path fill="#000000" d="M 126.839844 74.695312 L 132.9375 74.695312 L 132.9375 32.285156 L 126.839844 32.285156 Z M 133.210938 75.242188 L 126.566406 75.242188 C 126.414062 75.242188 126.292969 75.117188 126.292969 74.96875 L 126.292969 32.015625 C 126.292969 31.863281 126.414062 31.742188 126.566406 31.742188 L 133.210938 31.742188 C 133.363281 31.742188 133.484375 31.863281 133.484375 32.015625 L 133.484375 74.96875 C 133.484375 75.117188 133.363281 75.242188 133.210938 75.242188 " fill-opacity="1" fill-rule="nonzero"></path><path fill="#ffffff" d="M 143.671875 74.96875 L 137.027344 74.96875 L 137.027344 37.363281 L 143.671875 37.363281 L 143.671875 74.96875 " fill-opacity="1" fill-rule="nonzero"></path><path fill="#000000" d="M 137.300781 74.695312 L 143.398438 74.695312 L 143.398438 37.636719 L 137.300781 37.636719 Z M 143.671875 75.242188 L 137.027344 75.242188 C 136.875 75.242188 136.753906 75.117188 136.753906 74.96875 L 136.753906 37.363281 C 136.753906 37.214844 136.875 37.089844 137.027344 37.089844 L 143.671875 37.089844 C 143.824219 37.089844 143.945312 37.214844 143.945312 37.363281 L 143.945312 74.96875 C 143.945312 75.117188 143.824219 75.242188 143.671875 75.242188 " fill-opacity="1" fill-rule="nonzero"></path><path fill="#000000" d="M 202.265625 136.140625 L 134.378906 136.140625 C 134.226562 136.140625 134.105469 136.015625 134.105469 135.867188 L 134.105469 93.601562 C 134.105469 93.449219 134.226562 93.328125 134.378906 93.328125 C 134.527344 93.328125 134.652344 93.449219 134.652344 93.601562 L 134.652344 135.59375 L 202.265625 135.59375 C 202.417969 135.59375 202.539062 135.714844 202.539062 135.867188 C 202.539062 136.015625 202.417969 136.140625 202.265625 136.140625 " fill-opacity="1" fill-rule="nonzero"></path><path fill="#88e64a" d="M 142.519531 133.421875 L 137.203125 133.421875 L 137.203125 105.023438 L 142.519531 105.023438 L 142.519531 133.421875 " fill-opacity="1" fill-rule="nonzero"></path><path fill="#88e64a" d="M 150.890625 133.421875 L 145.570312 133.421875 L 145.570312 118.164062 L 150.890625 118.164062 L 150.890625 133.421875 " fill-opacity="1" fill-rule="nonzero"></path><path fill="#88e64a" d="M 159.261719 133.421875 L 153.945312 133.421875 L 153.945312 114.867188 L 159.261719 114.867188 L 159.261719 133.421875 " fill-opacity="1" fill-rule="nonzero"></path><path fill="#88e64a" d="M 167.632812 133.421875 L 162.316406 133.421875 L 162.316406 106.734375 L 167.632812 106.734375 L 167.632812 133.421875 " fill-opacity="1" fill-rule="nonzero"></path><path fill="#88e64a" d="M 175.875 133.421875 L 170.824219 133.421875 L 170.824219 110.753906 L 175.875 110.753906 L 175.875 133.421875 " fill-opacity="1" fill-rule="nonzero"></path><path fill="#88e64a" d="M 184.378906 133.421875 L 179.058594 133.421875 L 179.058594 99.4375 L 184.378906 99.4375 L 184.378906 133.421875 " fill-opacity="1" fill-rule="nonzero"></path><path fill="#88e64a" d="M 192.75 133.421875 L 187.433594 133.421875 L 187.433594 95.9375 L 192.75 95.9375 L 192.75 133.421875 " fill-opacity="1" fill-rule="nonzero"></path><path fill="#88e64a" d="M 201.121094 133.421875 L 195.804688 133.421875 L 195.804688 90.863281 L 201.121094 90.863281 L 201.121094 133.421875 " fill-opacity="1" fill-rule="nonzero"></path><path fill="#000000" d="M 148.230469 120.761719 C 148.207031 120.761719 148.183594 120.761719 148.160156 120.753906 L 139.546875 118.425781 C 139.402344 118.386719 139.316406 118.238281 139.351562 118.09375 C 139.394531 117.949219 139.542969 117.863281 139.6875 117.898438 L 148.207031 120.203125 L 165.308594 112.324219 L 181.59375 105.535156 L 198.300781 94.917969 L 203.300781 90.652344 C 203.417969 90.554688 203.589844 90.570312 203.6875 90.683594 C 203.785156 90.800781 203.773438 90.972656 203.65625 91.070312 L 198.640625 95.34375 C 198.628906 95.355469 198.621094 95.359375 198.609375 95.367188 L 181.867188 106.011719 C 181.851562 106.019531 181.839844 106.023438 181.824219 106.03125 L 165.53125 112.824219 L 148.347656 120.738281 C 148.308594 120.753906 148.269531 120.761719 148.230469 120.761719 " fill-opacity="1" fill-rule="nonzero"></path><path fill="#ffffff" d="M 167.15625 112.570312 C 167.15625 113.792969 166.179688 114.789062 164.976562 114.789062 C 163.773438 114.789062 162.796875 113.792969 162.796875 112.570312 C 162.796875 111.34375 163.773438 110.351562 164.976562 110.351562 C 166.179688 110.351562 167.15625 111.34375 167.15625 112.570312 " fill-opacity="1" fill-rule="nonzero"></path><path fill="#000000" d="M 164.976562 110.621094 C 163.925781 110.621094 163.070312 111.496094 163.070312 112.570312 C 163.070312 113.640625 163.925781 114.515625 164.976562 114.515625 C 166.027344 114.515625 166.882812 113.640625 166.882812 112.570312 C 166.882812 111.496094 166.027344 110.621094 164.976562 110.621094 Z M 164.976562 115.058594 C 163.625 115.058594 162.523438 113.941406 162.523438 112.570312 C 162.523438 111.195312 163.625 110.078125 164.976562 110.078125 C 166.328125 110.078125 167.425781 111.195312 167.425781 112.570312 C 167.425781 113.941406 166.328125 115.058594 164.976562 115.058594 " fill-opacity="1" fill-rule="nonzero"></path><path fill="#1b4200" d="M 183.898438 105.78125 C 183.898438 107.003906 182.921875 108 181.71875 108 C 180.515625 108 179.539062 107.003906 179.539062 105.78125 C 179.539062 104.554688 180.515625 103.5625 181.71875 103.5625 C 182.921875 103.5625 183.898438 104.554688 183.898438 105.78125 " fill-opacity="1" fill-rule="nonzero"></path><path fill="#1b4200" d="M 200.640625 95.136719 C 200.640625 96.363281 199.667969 97.355469 198.460938 97.355469 C 197.257812 97.355469 196.285156 96.363281 196.285156 95.136719 C 196.285156 93.914062 197.257812 92.917969 198.460938 92.917969 C 199.667969 92.917969 200.640625 93.914062 200.640625 95.136719 " fill-opacity="1" fill-rule="nonzero"></path><path fill="#ffffff" d="M 150.410156 120.078125 C 150.410156 121.304688 149.433594 122.296875 148.230469 122.296875 C 147.027344 122.296875 146.054688 121.304688 146.054688 120.078125 C 146.054688 118.851562 147.027344 117.859375 148.230469 117.859375 C 149.433594 117.859375 150.410156 118.851562 150.410156 120.078125 " fill-opacity="1" fill-rule="nonzero"></path><path fill="#000000" d="M 148.230469 118.132812 C 147.179688 118.132812 146.328125 119.003906 146.328125 120.078125 C 146.328125 121.152344 147.179688 122.023438 148.230469 122.023438 C 149.28125 122.023438 150.136719 121.152344 150.136719 120.078125 C 150.136719 119.003906 149.28125 118.132812 148.230469 118.132812 Z M 148.230469 122.570312 C 146.878906 122.570312 145.78125 121.453125 145.78125 120.078125 C 145.78125 118.707031 146.878906 117.585938 148.230469 117.585938 C 149.582031 117.585938 150.683594 118.707031 150.683594 120.078125 C 150.683594 121.453125 149.582031 122.570312 148.230469 122.570312 " fill-opacity="1" fill-rule="nonzero"></path><path fill="#ffffff" d="M 252.589844 78.574219 C 243.464844 91.054688 225.9375 93.761719 213.445312 84.621094 C 200.953125 75.484375 198.222656 57.960938 207.351562 45.484375 C 216.480469 33.003906 234.003906 30.296875 246.5 39.4375 C 258.992188 48.574219 261.71875 66.097656 252.589844 78.574219 " fill-opacity="1" fill-rule="nonzero"></path><path fill="#000000" d="M 229.976562 34.308594 C 221.425781 34.308594 212.992188 38.234375 207.570312 45.644531 C 198.546875 57.980469 201.253906 75.367188 213.605469 84.402344 C 218.539062 88.011719 224.28125 89.75 229.96875 89.75 C 238.515625 89.75 246.953125 85.824219 252.371094 78.414062 C 256.742188 72.4375 258.523438 65.117188 257.382812 57.796875 C 256.242188 50.476562 252.320312 44.03125 246.335938 39.65625 C 241.402344 36.046875 235.664062 34.308594 229.976562 34.308594 Z M 229.964844 90.296875 C 224.164062 90.296875 218.316406 88.523438 213.28125 84.84375 C 200.6875 75.632812 197.929688 57.902344 207.128906 45.320312 C 216.332031 32.742188 234.066406 30.003906 246.660156 39.214844 C 252.761719 43.675781 256.761719 50.246094 257.921875 57.710938 C 259.085938 65.175781 257.269531 72.644531 252.8125 78.738281 C 247.289062 86.289062 238.683594 90.296875 229.964844 90.296875 " fill-opacity="1" fill-rule="nonzero"></path><path fill="#1b4200" d="M 259.847656 74.367188 C 265.519531 60.933594 261.472656 44.882812 249.210938 35.859375 L 230.101562 61.988281 C 230.101562 61.988281 254.921875 72.253906 259.847656 74.367188 " fill-opacity="1" fill-rule="nonzero"></path><path fill="#ffffff" d="M 229.324219 31.683594 C 221.191406 31.773438 213.550781 35.179688 208.050781 40.859375 C 213.394531 45.980469 229.863281 61.722656 229.863281 61.722656 C 229.863281 61.722656 229.363281 36.679688 229.324219 31.683594 " fill-opacity="1" fill-rule="nonzero"></path><path fill="#000000" d="M 208.441406 40.851562 C 213.386719 45.59375 226.875 58.488281 229.578125 61.074219 C 229.5 57.160156 229.101562 36.96875 229.054688 31.960938 C 221.355469 32.117188 213.871094 35.347656 208.441406 40.851562 Z M 229.863281 61.996094 C 229.796875 61.996094 229.726562 61.972656 229.675781 61.921875 C 229.511719 61.765625 213.144531 46.117188 207.863281 41.054688 C 207.8125 41.007812 207.78125 40.9375 207.78125 40.863281 C 207.777344 40.792969 207.808594 40.722656 207.855469 40.667969 C 213.464844 34.875 221.289062 31.5 229.324219 31.410156 C 229.324219 31.410156 229.324219 31.410156 229.328125 31.410156 C 229.398438 31.410156 229.46875 31.4375 229.519531 31.488281 C 229.570312 31.539062 229.597656 31.609375 229.601562 31.679688 C 229.636719 36.617188 230.132812 61.46875 230.136719 61.71875 C 230.140625 61.828125 230.074219 61.929688 229.972656 61.976562 C 229.9375 61.988281 229.902344 61.996094 229.863281 61.996094 " fill-opacity="1" fill-rule="nonzero"></path><path fill="#000000" d="M 220.769531 39.96875 C 220.621094 39.96875 220.496094 39.84375 220.496094 39.695312 L 220.496094 22.875 L 176.265625 22.875 L 176.265625 30.039062 C 176.265625 30.191406 176.144531 30.3125 175.992188 30.3125 C 175.839844 30.3125 175.71875 30.191406 175.71875 30.039062 L 175.71875 22.601562 C 175.71875 22.449219 175.839844 22.328125 175.992188 22.328125 L 220.769531 22.328125 C 220.921875 22.328125 221.042969 22.449219 221.042969 22.601562 L 221.042969 39.695312 C 221.042969 39.84375 220.921875 39.96875 220.769531 39.96875 " fill-opacity="1" fill-rule="nonzero"></path><path fill="#88e64a" d="M 161.363281 36.828125 C 161.363281 38.5 160.007812 39.855469 158.339844 39.855469 C 156.667969 39.855469 155.3125 38.5 155.3125 36.828125 C 155.3125 35.160156 156.667969 33.804688 158.339844 33.804688 C 160.007812 33.804688 161.363281 35.160156 161.363281 36.828125 " fill-opacity="1" fill-rule="nonzero"></path><path fill="#88e64a" d="M 170.1875 36.828125 C 170.1875 38.5 168.835938 39.855469 167.164062 39.855469 C 165.496094 39.855469 164.140625 38.5 164.140625 36.828125 C 164.140625 35.160156 165.496094 33.804688 167.164062 33.804688 C 168.835938 33.804688 170.1875 35.160156 170.1875 36.828125 " fill-opacity="1" fill-rule="nonzero"></path><path fill="#88e64a" d="M 179.015625 36.828125 C 179.015625 38.5 177.664062 39.855469 175.992188 39.855469 C 174.320312 39.855469 172.964844 38.5 172.964844 36.828125 C 172.964844 35.160156 174.320312 33.804688 175.992188 33.804688 C 177.664062 33.804688 179.015625 35.160156 179.015625 36.828125 " fill-opacity="1" fill-rule="nonzero"></path><path fill="#000000" d="M 178.429688 46.433594 L 174.660156 46.433594 C 174.511719 46.433594 174.386719 46.308594 174.386719 46.160156 C 174.386719 46.007812 174.511719 45.886719 174.660156 45.886719 L 178.429688 45.886719 C 178.582031 45.886719 178.703125 46.007812 178.703125 46.160156 C 178.703125 46.308594 178.582031 46.433594 178.429688 46.433594 " fill-opacity="1" fill-rule="nonzero"></path><path fill="#000000" d="M 171.566406 46.433594 L 155.3125 46.433594 C 155.164062 46.433594 155.039062 46.308594 155.039062 46.160156 C 155.039062 46.007812 155.164062 45.886719 155.3125 45.886719 L 171.566406 45.886719 C 171.71875 45.886719 171.839844 46.007812 171.839844 46.160156 C 171.839844 46.308594 171.71875 46.433594 171.566406 46.433594 " fill-opacity="1" fill-rule="nonzero"></path><path fill="#000000" d="M 178.429688 51.179688 L 165.339844 51.179688 C 165.191406 51.179688 165.066406 51.058594 165.066406 50.90625 C 165.066406 50.753906 165.191406 50.632812 165.339844 50.632812 L 178.429688 50.632812 C 178.582031 50.632812 178.703125 50.753906 178.703125 50.90625 C 178.703125 51.058594 178.582031 51.179688 178.429688 51.179688 " fill-opacity="1" fill-rule="nonzero"></path><path fill="#000000" d="M 161.984375 51.179688 L 155.3125 51.179688 C 155.164062 51.179688 155.039062 51.058594 155.039062 50.90625 C 155.039062 50.753906 155.164062 50.632812 155.3125 50.632812 L 161.984375 50.632812 C 162.136719 50.632812 162.257812 50.753906 162.257812 50.90625 C 162.257812 51.058594 162.136719 51.179688 161.984375 51.179688 " fill-opacity="1" fill-rule="nonzero"></path><path fill="#000000" d="M 178.429688 55.925781 L 173.300781 55.925781 C 173.148438 55.925781 173.027344 55.804688 173.027344 55.652344 C 173.027344 55.5 173.148438 55.378906 173.300781 55.378906 L 178.429688 55.378906 C 178.582031 55.378906 178.703125 55.5 178.703125 55.652344 C 178.703125 55.804688 178.582031 55.925781 178.429688 55.925781 " fill-opacity="1" fill-rule="nonzero"></path><path fill="#000000" d="M 169.265625 55.925781 L 155.3125 55.925781 C 155.164062 55.925781 155.039062 55.804688 155.039062 55.652344 C 155.039062 55.5 155.164062 55.378906 155.3125 55.378906 L 169.265625 55.378906 C 169.414062 55.378906 169.535156 55.5 169.535156 55.652344 C 169.535156 55.804688 169.414062 55.925781 169.265625 55.925781 " fill-opacity="1" fill-rule="nonzero"></path><path fill="#ffffff" d="M 18.121094 121.902344 L 118.558594 121.902344 C 122.910156 121.902344 126.4375 118.371094 126.4375 114.023438 L 126.4375 95.582031 C 126.4375 91.230469 122.910156 87.703125 118.558594 87.703125 L 18.121094 87.703125 C 13.769531 87.703125 10.242188 91.230469 10.242188 95.582031 L 10.242188 114.023438 C 10.242188 118.371094 13.769531 121.902344 18.121094 121.902344 " fill-opacity="1" fill-rule="nonzero"></path><g clip-path="url(#5da1d7fad0)"><path fill="#000000" d="M 18.121094 87.976562 C 13.925781 87.976562 10.515625 91.390625 10.515625 95.582031 L 10.515625 114.023438 C 10.515625 118.214844 13.925781 121.628906 18.121094 121.628906 L 118.558594 121.628906 C 122.753906 121.628906 126.164062 118.214844 126.164062 114.023438 L 126.164062 95.582031 C 126.164062 91.390625 122.753906 87.976562 118.558594 87.976562 Z M 118.558594 122.171875 L 18.121094 122.171875 C 13.625 122.171875 9.96875 118.515625 9.96875 114.023438 L 9.96875 95.582031 C 9.96875 91.085938 13.625 87.429688 18.121094 87.429688 L 118.558594 87.429688 C 123.054688 87.429688 126.710938 91.085938 126.710938 95.582031 L 126.710938 114.023438 C 126.710938 118.515625 123.054688 122.171875 118.558594 122.171875 " fill-opacity="1" fill-rule="nonzero"></path></g><path fill="#1b4200" d="M 103.425781 104.800781 C 103.425781 107.714844 105.789062 110.078125 108.699219 110.078125 C 111.613281 110.078125 113.976562 107.714844 113.976562 104.800781 C 113.976562 101.890625 111.613281 99.527344 108.699219 99.527344 C 105.789062 99.527344 103.425781 101.890625 103.425781 104.800781 " fill-opacity="1" fill-rule="nonzero"></path><path fill="#1b4200" d="M 27.980469 110.078125 L 90.171875 110.078125 C 93.085938 110.078125 95.449219 107.714844 95.449219 104.800781 C 95.449219 101.890625 93.085938 99.527344 90.171875 99.527344 L 27.980469 99.527344 C 25.070312 99.527344 22.707031 101.890625 22.707031 104.800781 C 22.707031 107.714844 25.070312 110.078125 27.980469 110.078125 " fill-opacity="1" fill-rule="nonzero"></path><path fill="#ffffff" d="M 18.121094 160.761719 L 118.558594 160.761719 C 122.910156 160.761719 126.4375 157.234375 126.4375 152.882812 L 126.4375 134.445312 C 126.4375 130.09375 122.910156 126.566406 118.558594 126.566406 L 18.121094 126.566406 C 13.769531 126.566406 10.242188 130.09375 10.242188 134.445312 L 10.242188 152.882812 C 10.242188 157.234375 13.769531 160.761719 18.121094 160.761719 " fill-opacity="1" fill-rule="nonzero"></path><g clip-path="url(#75b1201595)"><path fill="#000000" d="M 18.121094 126.839844 C 13.925781 126.839844 10.515625 130.25 10.515625 134.445312 L 10.515625 152.882812 C 10.515625 157.078125 13.925781 160.488281 18.121094 160.488281 L 118.558594 160.488281 C 122.753906 160.488281 126.164062 157.078125 126.164062 152.882812 L 126.164062 134.445312 C 126.164062 130.25 122.753906 126.839844 118.558594 126.839844 Z M 118.558594 161.035156 L 18.121094 161.035156 C 13.625 161.035156 9.96875 157.378906 9.96875 152.882812 L 9.96875 134.445312 C 9.96875 129.949219 13.625 126.292969 18.121094 126.292969 L 118.558594 126.292969 C 123.054688 126.292969 126.710938 129.949219 126.710938 134.445312 L 126.710938 152.882812 C 126.710938 157.378906 123.054688 161.035156 118.558594 161.035156 " fill-opacity="1" fill-rule="nonzero"></path></g><path fill="#ffffff" d="M 103.425781 143.664062 C 103.425781 146.578125 105.789062 148.9375 108.699219 148.9375 C 111.613281 148.9375 113.976562 146.578125 113.976562 143.664062 C 113.976562 140.75 111.613281 138.386719 108.699219 138.386719 C 105.789062 138.386719 103.425781 140.75 103.425781 143.664062 " fill-opacity="1" fill-rule="nonzero"></path><path fill="#000000" d="M 108.699219 138.660156 C 105.941406 138.660156 103.699219 140.90625 103.699219 143.664062 C 103.699219 146.421875 105.941406 148.664062 108.699219 148.664062 C 111.457031 148.664062 113.703125 146.421875 113.703125 143.664062 C 113.703125 140.90625 111.457031 138.660156 108.699219 138.660156 Z M 108.699219 149.210938 C 105.640625 149.210938 103.152344 146.722656 103.152344 143.664062 C 103.152344 140.605469 105.640625 138.113281 108.699219 138.113281 C 111.757812 138.113281 114.246094 140.605469 114.246094 143.664062 C 114.246094 146.722656 111.757812 149.210938 108.699219 149.210938 " fill-opacity="1" fill-rule="nonzero"></path><path fill="#ffffff" d="M 27.980469 148.9375 L 90.171875 148.9375 C 93.085938 148.9375 95.449219 146.578125 95.449219 143.664062 C 95.449219 140.75 93.085938 138.386719 90.171875 138.386719 L 27.980469 138.386719 C 25.070312 138.386719 22.707031 140.75 22.707031 143.664062 C 22.707031 146.578125 25.070312 148.9375 27.980469 148.9375 " fill-opacity="1" fill-rule="nonzero"></path><path fill="#000000" d="M 27.980469 138.660156 C 25.222656 138.660156 22.980469 140.90625 22.980469 143.664062 C 22.980469 146.421875 25.222656 148.664062 27.980469 148.664062 L 90.171875 148.664062 C 92.929688 148.664062 95.175781 146.421875 95.175781 143.664062 C 95.175781 140.90625 92.929688 138.660156 90.171875 138.660156 Z M 90.171875 149.210938 L 27.980469 149.210938 C 24.921875 149.210938 22.433594 146.722656 22.433594 143.664062 C 22.433594 140.605469 24.921875 138.113281 27.980469 138.113281 L 90.171875 138.113281 C 93.230469 138.113281 95.71875 140.605469 95.71875 143.664062 C 95.71875 146.722656 93.230469 149.210938 90.171875 149.210938 " fill-opacity="1" fill-rule="nonzero"></path><path fill="#ffffff" d="M 18.121094 199.625 L 118.558594 199.625 C 122.910156 199.625 126.4375 196.09375 126.4375 191.742188 L 126.4375 173.304688 C 126.4375 168.953125 122.910156 165.425781 118.558594 165.425781 L 18.121094 165.425781 C 13.769531 165.425781 10.242188 168.953125 10.242188 173.304688 L 10.242188 191.742188 C 10.242188 196.09375 13.769531 199.625 18.121094 199.625 " fill-opacity="1" fill-rule="nonzero"></path><g clip-path="url(#10eeeba697)"><path fill="#000000" d="M 18.121094 165.699219 C 13.925781 165.699219 10.515625 169.113281 10.515625 173.304688 L 10.515625 191.742188 C 10.515625 195.9375 13.925781 199.351562 18.121094 199.351562 L 118.558594 199.351562 C 122.753906 199.351562 126.164062 195.9375 126.164062 191.742188 L 126.164062 173.304688 C 126.164062 169.113281 122.753906 165.699219 118.558594 165.699219 Z M 118.558594 199.898438 L 18.121094 199.898438 C 13.625 199.898438 9.96875 196.238281 9.96875 191.742188 L 9.96875 173.304688 C 9.96875 168.8125 13.625 165.152344 18.121094 165.152344 L 118.558594 165.152344 C 123.054688 165.152344 126.710938 168.8125 126.710938 173.304688 L 126.710938 191.742188 C 126.710938 196.238281 123.054688 199.898438 118.558594 199.898438 " fill-opacity="1" fill-rule="nonzero"></path></g><path fill="#ffffff" d="M 103.425781 182.523438 C 103.425781 185.4375 105.789062 187.800781 108.699219 187.800781 C 111.613281 187.800781 113.976562 185.4375 113.976562 182.523438 C 113.976562 179.609375 111.613281 177.25 108.699219 177.25 C 105.789062 177.25 103.425781 179.609375 103.425781 182.523438 " fill-opacity="1" fill-rule="nonzero"></path><path fill="#000000" d="M 108.699219 177.523438 C 105.941406 177.523438 103.699219 179.765625 103.699219 182.523438 C 103.699219 185.28125 105.941406 187.527344 108.699219 187.527344 C 111.457031 187.527344 113.703125 185.28125 113.703125 182.523438 C 113.703125 179.765625 111.457031 177.523438 108.699219 177.523438 Z M 108.699219 188.074219 C 105.640625 188.074219 103.152344 185.585938 103.152344 182.523438 C 103.152344 179.464844 105.640625 176.976562 108.699219 176.976562 C 111.757812 176.976562 114.246094 179.464844 114.246094 182.523438 C 114.246094 185.585938 111.757812 188.074219 108.699219 188.074219 " fill-opacity="1" fill-rule="nonzero"></path><path fill="#ffffff" d="M 27.980469 187.800781 L 90.171875 187.800781 C 93.085938 187.800781 95.449219 185.4375 95.449219 182.523438 C 95.449219 179.609375 93.085938 177.25 90.171875 177.25 L 27.980469 177.25 C 25.070312 177.25 22.707031 179.609375 22.707031 182.523438 C 22.707031 185.4375 25.070312 187.800781 27.980469 187.800781 " fill-opacity="1" fill-rule="nonzero"></path><path fill="#000000" d="M 27.980469 177.523438 C 25.222656 177.523438 22.980469 179.765625 22.980469 182.523438 C 22.980469 185.28125 25.222656 187.527344 27.980469 187.527344 L 90.171875 187.527344 C 92.929688 187.527344 95.175781 185.28125 95.175781 182.523438 C 95.175781 179.765625 92.929688 177.523438 90.171875 177.523438 Z M 90.171875 188.074219 L 27.980469 188.074219 C 24.921875 188.074219 22.433594 185.585938 22.433594 182.523438 C 22.433594 179.464844 24.921875 176.976562 27.980469 176.976562 L 90.171875 176.976562 C 93.230469 176.976562 95.71875 179.464844 95.71875 182.523438 C 95.71875 185.585938 93.230469 188.074219 90.171875 188.074219 " fill-opacity="1" fill-rule="nonzero"></path><path fill="#ffffff" d="M 18.121094 238.484375 L 118.558594 238.484375 C 122.910156 238.484375 126.4375 234.957031 126.4375 230.605469 L 126.4375 212.167969 C 126.4375 207.816406 122.910156 204.289062 118.558594 204.289062 L 18.121094 204.289062 C 13.769531 204.289062 10.242188 207.816406 10.242188 212.167969 L 10.242188 230.605469 C 10.242188 234.957031 13.769531 238.484375 18.121094 238.484375 " fill-opacity="1" fill-rule="nonzero"></path><g clip-path="url(#3c88c0714a)"><path fill="#000000" d="M 18.121094 204.5625 C 13.925781 204.5625 10.515625 207.972656 10.515625 212.167969 L 10.515625 230.605469 C 10.515625 234.800781 13.925781 238.210938 18.121094 238.210938 L 118.558594 238.210938 C 122.753906 238.210938 126.164062 234.800781 126.164062 230.605469 L 126.164062 212.167969 C 126.164062 207.972656 122.753906 204.5625 118.558594 204.5625 Z M 118.558594 238.757812 L 18.121094 238.757812 C 13.625 238.757812 9.96875 235.101562 9.96875 230.605469 L 9.96875 212.167969 C 9.96875 207.671875 13.625 204.015625 18.121094 204.015625 L 118.558594 204.015625 C 123.054688 204.015625 126.710938 207.671875 126.710938 212.167969 L 126.710938 230.605469 C 126.710938 235.101562 123.054688 238.757812 118.558594 238.757812 " fill-opacity="1" fill-rule="nonzero"></path></g><path fill="#ffffff" d="M 103.425781 221.386719 C 103.425781 224.300781 105.789062 226.660156 108.699219 226.660156 C 111.613281 226.660156 113.976562 224.300781 113.976562 221.386719 C 113.976562 218.472656 111.613281 216.109375 108.699219 216.109375 C 105.789062 216.109375 103.425781 218.472656 103.425781 221.386719 " fill-opacity="1" fill-rule="nonzero"></path><path fill="#000000" d="M 108.699219 216.382812 C 105.941406 216.382812 103.699219 218.628906 103.699219 221.386719 C 103.699219 224.144531 105.941406 226.386719 108.699219 226.386719 C 111.457031 226.386719 113.703125 224.144531 113.703125 221.386719 C 113.703125 218.628906 111.457031 216.382812 108.699219 216.382812 Z M 108.699219 226.933594 C 105.640625 226.933594 103.152344 224.445312 103.152344 221.386719 C 103.152344 218.328125 105.640625 215.839844 108.699219 215.839844 C 111.757812 215.839844 114.246094 218.328125 114.246094 221.386719 C 114.246094 224.445312 111.757812 226.933594 108.699219 226.933594 " fill-opacity="1" fill-rule="nonzero"></path><path fill="#ffffff" d="M 27.980469 226.660156 L 90.171875 226.660156 C 93.085938 226.660156 95.449219 224.300781 95.449219 221.386719 C 95.449219 218.472656 93.085938 216.109375 90.171875 216.109375 L 27.980469 216.109375 C 25.070312 216.109375 22.707031 218.472656 22.707031 221.386719 C 22.707031 224.300781 25.070312 226.660156 27.980469 226.660156 " fill-opacity="1" fill-rule="nonzero"></path><path fill="#000000" d="M 27.980469 216.382812 C 25.222656 216.382812 22.980469 218.628906 22.980469 221.386719 C 22.980469 224.144531 25.222656 226.386719 27.980469 226.386719 L 90.171875 226.386719 C 92.929688 226.386719 95.175781 224.144531 95.175781 221.386719 C 95.175781 218.628906 92.929688 216.382812 90.171875 216.382812 Z M 90.171875 226.933594 L 27.980469 226.933594 C 24.921875 226.933594 22.433594 224.445312 22.433594 221.386719 C 22.433594 218.328125 24.921875 215.839844 27.980469 215.839844 L 90.171875 215.839844 C 93.230469 215.839844 95.71875 218.328125 95.71875 221.386719 C 95.71875 224.445312 93.230469 226.933594 90.171875 226.933594 " fill-opacity="1" fill-rule="nonzero"></path><path fill="#000000" d="M 211.769531 238.757812 L 118.558594 238.757812 C 118.410156 238.757812 118.289062 238.636719 118.289062 238.484375 C 118.289062 238.332031 118.410156 238.210938 118.558594 238.210938 L 211.769531 238.210938 C 211.921875 238.210938 212.042969 238.332031 212.042969 238.484375 C 212.042969 238.636719 211.921875 238.757812 211.769531 238.757812 " fill-opacity="1" fill-rule="nonzero"></path><path fill="#ffffff" d="M 245.304688 209.289062 C 245.304688 230.109375 228.925781 238.480469 208.714844 238.480469 C 188.507812 238.480469 172.125 230.109375 172.125 209.289062 C 172.125 188.46875 196.519531 163.082031 208.714844 163.082031 C 219.804688 163.082031 245.304688 188.46875 245.304688 209.289062 " fill-opacity="1" fill-rule="nonzero"></path><path fill="#000000" d="M 208.714844 163.355469 C 202.90625 163.355469 193.800781 169.464844 186.054688 178.554688 C 177.378906 188.742188 172.398438 199.945312 172.398438 209.289062 C 172.398438 227.664062 185.636719 238.203125 208.714844 238.203125 C 231.796875 238.203125 245.03125 227.664062 245.03125 209.289062 C 245.03125 200.066406 239.902344 188.867188 230.960938 178.554688 C 223.199219 169.605469 214.050781 163.355469 208.714844 163.355469 Z M 208.714844 238.75 C 197.996094 238.75 188.992188 236.386719 182.683594 231.914062 C 175.496094 226.816406 171.851562 219.207031 171.851562 209.289062 C 171.851562 199.816406 176.878906 188.484375 185.640625 178.199219 C 193.605469 168.851562 202.664062 162.808594 208.714844 162.808594 C 214.285156 162.808594 223.390625 168.992188 231.375 178.199219 C 240.402344 188.605469 245.578125 199.9375 245.578125 209.289062 C 245.578125 219.207031 241.933594 226.816406 234.746094 231.914062 C 228.4375 236.386719 219.4375 238.75 208.714844 238.75 " fill-opacity="1" fill-rule="nonzero"></path><path fill="#000000" d="M 204.898438 172.410156 C 204.859375 172.410156 204.824219 172.402344 204.789062 172.386719 C 204.652344 172.328125 204.585938 172.167969 204.644531 172.027344 C 205.089844 170.988281 207.402344 165.820312 209.105469 165.953125 C 210.789062 166.082031 213.886719 170.378906 214.234375 170.867188 C 214.324219 170.992188 214.292969 171.164062 214.171875 171.25 C 214.046875 171.335938 213.878906 171.308594 213.789062 171.183594 C 212.886719 169.914062 210.273438 166.585938 209.066406 166.496094 C 208.09375 166.429688 206.1875 169.8125 205.148438 172.242188 C 205.105469 172.347656 205.003906 172.410156 204.898438 172.410156 " fill-opacity="1" fill-rule="nonzero"></path><path fill="#ffffff" d="M 215.183594 151.632812 C 212.335938 151.632812 212.335938 153.335938 209.484375 153.335938 C 206.636719 153.335938 206.636719 151.632812 203.789062 151.632812 C 200.9375 151.632812 200.9375 153.335938 198.089844 153.335938 C 197.691406 153.335938 197.351562 153.332031 197.046875 153.324219 C 201.214844 161.683594 205.527344 167.148438 208.367188 167.148438 C 211.503906 167.148438 215.882812 161.664062 220.023438 153.273438 C 218 152.972656 217.714844 151.632812 215.183594 151.632812 " fill-opacity="1" fill-rule="nonzero"></path><path fill="#000000" d="M 197.496094 153.605469 C 201.628906 161.800781 205.78125 166.875 208.367188 166.875 C 211.234375 166.875 215.429688 161.875 219.617188 153.476562 C 218.886719 153.308594 218.382812 153.007812 217.894531 152.71875 C 217.195312 152.300781 216.53125 151.90625 215.183594 151.90625 C 213.835938 151.90625 213.171875 152.300781 212.476562 152.71875 C 211.742188 153.15625 210.984375 153.609375 209.484375 153.609375 C 207.984375 153.609375 207.230469 153.15625 206.496094 152.71875 C 205.796875 152.300781 205.136719 151.90625 203.789062 151.90625 C 202.4375 151.90625 201.777344 152.300781 201.078125 152.71875 C 200.347656 153.15625 199.589844 153.609375 198.089844 153.609375 C 197.875 153.609375 197.679688 153.605469 197.496094 153.605469 Z M 208.367188 167.421875 C 205.488281 167.421875 201.164062 162.195312 196.804688 153.445312 C 196.761719 153.359375 196.765625 153.257812 196.820312 153.175781 C 196.871094 153.097656 196.953125 153.042969 197.054688 153.050781 C 197.355469 153.058594 197.695312 153.0625 198.089844 153.0625 C 199.441406 153.0625 200.101562 152.667969 200.800781 152.25 C 201.53125 151.8125 202.289062 151.359375 203.789062 151.359375 C 205.289062 151.359375 206.046875 151.8125 206.777344 152.25 C 207.476562 152.667969 208.136719 153.0625 209.484375 153.0625 C 210.835938 153.0625 211.496094 152.667969 212.195312 152.25 C 212.925781 151.8125 213.683594 151.359375 215.183594 151.359375 C 216.683594 151.359375 217.441406 151.8125 218.171875 152.25 C 218.71875 152.574219 219.234375 152.878906 220.0625 153.003906 C 220.148438 153.015625 220.222656 153.070312 220.265625 153.148438 C 220.304688 153.222656 220.308594 153.316406 220.265625 153.394531 C 215.871094 162.308594 211.53125 167.421875 208.367188 167.421875 " fill-opacity="1" fill-rule="nonzero"></path><path fill="#1b4200" d="M 206.632812 220.167969 L 206.632812 215.382812 C 203.886719 215.335938 201.046875 214.480469 199.390625 213.296875 L 200.527344 210.121094 C 202.230469 211.257812 204.691406 212.160156 207.339844 212.160156 C 210.703125 212.160156 212.972656 210.21875 212.972656 207.515625 C 212.972656 204.910156 211.128906 203.296875 207.625 201.875 C 202.796875 199.980469 199.816406 197.800781 199.816406 193.679688 C 199.816406 189.746094 202.609375 186.761719 206.960938 186.050781 L 206.960938 181.265625 L 209.898438 181.265625 L 209.898438 185.859375 C 212.738281 185.957031 214.675781 186.714844 216.050781 187.519531 L 214.867188 190.648438 C 213.871094 190.078125 211.933594 189.035156 208.902344 189.035156 C 205.257812 189.035156 203.886719 191.214844 203.886719 193.109375 C 203.886719 195.574219 205.636719 196.804688 209.753906 198.511719 C 214.628906 200.503906 217.089844 202.96875 217.089844 207.183594 C 217.089844 210.929688 214.488281 214.433594 209.613281 215.238281 L 209.613281 220.167969 L 206.632812 220.167969 " fill-opacity="1" fill-rule="nonzero"></path><path fill="#ffffff" d="M 320.1875 238.375 L 320.1875 177.886719 L 263.132812 177.886719 L 263.132812 238.375 L 320.1875 238.375 " fill-opacity="1" fill-rule="nonzero"></path><path fill="#000000" d="M 263.40625 238.101562 L 319.917969 238.101562 L 319.917969 178.160156 L 263.40625 178.160156 Z M 320.1875 238.648438 L 263.132812 238.648438 C 262.980469 238.648438 262.859375 238.527344 262.859375 238.375 L 262.859375 177.886719 C 262.859375 177.734375 262.980469 177.613281 263.132812 177.613281 L 320.1875 177.613281 C 320.339844 177.613281 320.460938 177.734375 320.460938 177.886719 L 320.460938 238.375 C 320.460938 238.527344 320.339844 238.648438 320.1875 238.648438 " fill-opacity="1" fill-rule="nonzero"></path><path fill="#ffffff" d="M 350.128906 238.375 L 350.128906 177.886719 L 280.351562 177.886719 L 280.351562 238.375 L 350.128906 238.375 " fill-opacity="1" fill-rule="nonzero"></path><path fill="#000000" d="M 280.625 238.101562 L 349.855469 238.101562 L 349.855469 178.160156 L 280.625 178.160156 Z M 350.128906 238.648438 L 280.351562 238.648438 C 280.199219 238.648438 280.078125 238.527344 280.078125 238.375 L 280.078125 177.886719 C 280.078125 177.734375 280.199219 177.613281 280.351562 177.613281 L 350.128906 177.613281 C 350.28125 177.613281 350.402344 177.734375 350.402344 177.886719 L 350.402344 238.375 C 350.402344 238.527344 350.28125 238.648438 350.128906 238.648438 " fill-opacity="1" fill-rule="nonzero"></path><path fill="#ffffff" d="M 344.421875 199.519531 L 286.054688 199.519531 L 286.054688 190.167969 L 344.421875 190.167969 L 344.421875 199.519531 " fill-opacity="1" fill-rule="nonzero"></path><path fill="#000000" d="M 286.328125 199.246094 L 344.148438 199.246094 L 344.148438 190.441406 L 286.328125 190.441406 Z M 344.421875 199.792969 L 286.054688 199.792969 C 285.90625 199.792969 285.78125 199.671875 285.78125 199.519531 L 285.78125 190.167969 C 285.78125 190.015625 285.90625 189.894531 286.054688 189.894531 L 344.421875 189.894531 C 344.574219 189.894531 344.695312 190.015625 344.695312 190.167969 L 344.695312 199.519531 C 344.695312 199.671875 344.574219 199.792969 344.421875 199.792969 " fill-opacity="1" fill-rule="nonzero"></path><path fill="#88e64a" d="M 295.199219 194.84375 C 295.199219 193.457031 294.078125 192.332031 292.691406 192.332031 C 291.308594 192.332031 290.183594 193.457031 290.183594 194.84375 C 290.183594 196.230469 291.308594 197.355469 292.691406 197.355469 C 294.078125 197.355469 295.199219 196.230469 295.199219 194.84375 " fill-opacity="1" fill-rule="nonzero"></path><path fill="#88e64a" d="M 302.519531 194.84375 C 302.519531 193.457031 301.394531 192.332031 300.011719 192.332031 C 298.625 192.332031 297.503906 193.457031 297.503906 194.84375 C 297.503906 196.230469 298.625 197.355469 300.011719 197.355469 C 301.394531 197.355469 302.519531 196.230469 302.519531 194.84375 " fill-opacity="1" fill-rule="nonzero"></path><path fill="#88e64a" d="M 309.839844 194.84375 C 309.839844 193.457031 308.714844 192.332031 307.328125 192.332031 C 305.945312 192.332031 304.824219 193.457031 304.824219 194.84375 C 304.824219 196.230469 305.945312 197.355469 307.328125 197.355469 C 308.714844 197.355469 309.839844 196.230469 309.839844 194.84375 " fill-opacity="1" fill-rule="nonzero"></path><path fill="#ffffff" d="M 344.421875 215.644531 L 286.054688 215.644531 L 286.054688 206.292969 L 344.421875 206.292969 L 344.421875 215.644531 " fill-opacity="1" fill-rule="nonzero"></path><path fill="#000000" d="M 286.328125 215.371094 L 344.148438 215.371094 L 344.148438 206.566406 L 286.328125 206.566406 Z M 344.421875 215.917969 L 286.054688 215.917969 C 285.90625 215.917969 285.78125 215.796875 285.78125 215.644531 L 285.78125 206.292969 C 285.78125 206.144531 285.90625 206.023438 286.054688 206.023438 L 344.421875 206.023438 C 344.574219 206.023438 344.695312 206.144531 344.695312 206.292969 L 344.695312 215.644531 C 344.695312 215.796875 344.574219 215.917969 344.421875 215.917969 " fill-opacity="1" fill-rule="nonzero"></path><path fill="#88e64a" d="M 295.199219 210.96875 C 295.199219 209.582031 294.078125 208.460938 292.691406 208.460938 C 291.308594 208.460938 290.183594 209.582031 290.183594 210.96875 C 290.183594 212.355469 291.308594 213.480469 292.691406 213.480469 C 294.078125 213.480469 295.199219 212.355469 295.199219 210.96875 " fill-opacity="1" fill-rule="nonzero"></path><path fill="#88e64a" d="M 302.519531 210.96875 C 302.519531 209.582031 301.394531 208.460938 300.011719 208.460938 C 298.625 208.460938 297.503906 209.582031 297.503906 210.96875 C 297.503906 212.355469 298.625 213.480469 300.011719 213.480469 C 301.394531 213.480469 302.519531 212.355469 302.519531 210.96875 " fill-opacity="1" fill-rule="nonzero"></path><path fill="#88e64a" d="M 309.839844 210.96875 C 309.839844 209.582031 308.714844 208.460938 307.328125 208.460938 C 305.945312 208.460938 304.824219 209.582031 304.824219 210.96875 C 304.824219 212.355469 305.945312 213.480469 307.328125 213.480469 C 308.714844 213.480469 309.839844 212.355469 309.839844 210.96875 " fill-opacity="1" fill-rule="nonzero"></path><path fill="#ffffff" d="M 254.058594 137.574219 L 288.144531 142.183594 L 302.195312 148.613281 C 306.480469 163.542969 268.070312 162.652344 268.070312 162.652344 L 288.105469 187.179688 C 290.027344 189.535156 290.304688 192.792969 288.777344 195.40625 C 284.570312 202.613281 275.652344 214.144531 271.078125 219.921875 C 269.949219 221.355469 267.621094 220.859375 267.195312 219.101562 L 264.792969 209.097656 L 236.765625 162.929688 C 229.375 150.746094 239.683594 135.628906 254.058594 137.574219 " fill-opacity="1" fill-rule="nonzero"></path><path fill="#000000" d="M 269.351562 221.03125 C 269.167969 221.03125 268.980469 221.011719 268.796875 220.972656 C 267.863281 220.765625 267.148438 220.074219 266.929688 219.164062 L 264.527344 209.164062 C 264.492188 209.015625 264.582031 208.867188 264.730469 208.832031 C 264.875 208.796875 265.023438 208.886719 265.058594 209.035156 L 267.460938 219.039062 C 267.636719 219.753906 268.175781 220.277344 268.914062 220.4375 C 269.65625 220.601562 270.402344 220.339844 270.867188 219.753906 C 275.683594 213.664062 284.386719 202.382812 288.542969 195.269531 C 290.015625 192.746094 289.761719 189.636719 287.894531 187.351562 L 285.265625 184.132812 C 285.167969 184.015625 285.1875 183.84375 285.304688 183.75 C 285.421875 183.652344 285.59375 183.671875 285.6875 183.785156 L 288.320312 187.007812 C 290.332031 189.472656 290.601562 192.820312 289.011719 195.542969 C 284.839844 202.6875 276.121094 213.988281 271.292969 220.09375 C 270.816406 220.695312 270.101562 221.03125 269.351562 221.03125 " fill-opacity="1" fill-rule="nonzero"></path><path fill="#ffffff" d="M 305.628906 153.050781 L 276.625 152.339844 C 262.652344 151.996094 249.855469 159.90625 244.195312 172.371094 C 234.910156 192.820312 220.421875 222.835938 210.167969 235.125 C 208.964844 236.570312 210.183594 238.707031 212.078125 238.464844 L 241.058594 234.757812 C 245.742188 234.160156 249.859375 231.445312 252.179688 227.4375 L 278.832031 181.367188 C 278.832031 181.367188 332.195312 183.878906 327.472656 173.574219 C 322.75 163.265625 305.628906 153.050781 305.628906 153.050781 " fill-opacity="1" fill-rule="nonzero"></path><path fill="#000000" d="M 211.796875 238.757812 C 210.925781 238.757812 210.125 238.296875 209.703125 237.527344 C 209.242188 236.683594 209.339844 235.695312 209.960938 234.949219 C 211.894531 232.632812 214.082031 229.550781 216.46875 225.78125 C 216.550781 225.65625 216.71875 225.617188 216.847656 225.699219 C 216.972656 225.777344 217.011719 225.949219 216.929688 226.074219 C 214.53125 229.859375 212.328125 232.964844 210.378906 235.300781 C 209.90625 235.867188 209.832031 236.621094 210.183594 237.265625 C 210.472656 237.792969 211.113281 238.316406 212.042969 238.195312 L 241.027344 234.488281 C 245.597656 233.902344 249.679688 231.214844 251.945312 227.300781 L 252.816406 225.792969 C 252.890625 225.660156 253.058594 225.613281 253.191406 225.691406 C 253.320312 225.765625 253.367188 225.933594 253.289062 226.0625 L 252.417969 227.574219 C 250.066406 231.636719 245.835938 234.421875 241.09375 235.027344 L 212.113281 238.738281 C 212.007812 238.75 211.902344 238.757812 211.796875 238.757812 " fill-opacity="1" fill-rule="nonzero"></path><path fill="#1b4200" d="M 254.058594 137.574219 L 288.144531 142.183594 L 308.871094 151.332031 C 313.160156 166.261719 268.070312 162.652344 268.070312 162.652344 L 285.476562 183.960938 C 284.648438 185.1875 264.871094 207.941406 264.421875 208.484375 L 236.765625 162.929688 C 229.375 150.746094 239.683594 135.628906 254.058594 137.574219 " fill-opacity="1" fill-rule="nonzero"></path><path fill="#1b4200" d="M 248.382812 225.285156 C 246.085938 225.480469 243.785156 225.664062 241.484375 225.789062 C 239.175781 225.914062 236.878906 225.9375 234.570312 225.925781 C 229.945312 225.90625 225.316406 225.863281 220.695312 225.65625 C 219.460938 225.601562 218.230469 225.535156 217 225.453125 C 226.199219 210.816406 236.832031 188.589844 244.195312 172.371094 C 249.855469 159.90625 262.652344 151.996094 276.625 152.339844 L 305.628906 153.050781 C 305.628906 153.050781 322.75 163.265625 327.472656 173.570312 C 332.195312 183.878906 278.832031 181.367188 278.832031 181.367188 L 253.695312 224.820312 C 251.921875 224.96875 250.148438 225.132812 248.382812 225.285156 " fill-opacity="1" fill-rule="nonzero"></path><path fill="#000000" d="M 244.191406 172.644531 C 244.15625 172.644531 244.117188 172.636719 244.082031 172.621094 C 243.945312 172.558594 243.882812 172.398438 243.945312 172.257812 C 249.671875 159.644531 262.511719 151.71875 276.632812 152.066406 L 301.976562 152.6875 C 302.125 152.691406 302.246094 152.820312 302.242188 152.96875 C 302.238281 153.117188 302.113281 153.242188 301.964844 153.234375 L 276.617188 152.613281 C 262.707031 152.269531 250.078125 160.070312 244.441406 172.484375 C 244.394531 172.585938 244.296875 172.644531 244.191406 172.644531 " fill-opacity="1" fill-rule="nonzero"></path><path fill="#000000" d="M 264.152344 207.011719 C 264.105469 207.011719 264.058594 207 264.015625 206.976562 C 263.886719 206.902344 263.839844 206.734375 263.917969 206.601562 L 278.59375 181.230469 C 278.644531 181.144531 278.742188 181.089844 278.84375 181.09375 C 278.859375 181.097656 280.597656 181.175781 283.367188 181.25 C 283.519531 181.253906 283.636719 181.378906 283.632812 181.527344 C 283.628906 181.679688 283.492188 181.800781 283.351562 181.796875 C 281.066406 181.734375 279.480469 181.667969 278.984375 181.648438 L 264.390625 206.875 C 264.339844 206.964844 264.25 207.011719 264.152344 207.011719 " fill-opacity="1" fill-rule="nonzero"></path><path fill="#000000" d="M 268.070312 181.679688 C 267.921875 181.679688 267.800781 181.558594 267.796875 181.410156 C 267.796875 181.257812 267.921875 181.132812 268.070312 181.132812 L 277.371094 181.101562 C 277.371094 181.101562 277.371094 181.101562 277.375 181.101562 C 277.523438 181.101562 277.644531 181.222656 277.644531 181.371094 C 277.644531 181.523438 277.523438 181.644531 277.375 181.644531 L 268.074219 181.679688 L 268.070312 181.679688 " fill-opacity="1" fill-rule="nonzero"></path><path fill="#1b4200" d="M 288.144531 142.183594 L 303.070312 152.808594 C 303.070312 152.808594 318.027344 165.949219 319.152344 179.78125 C 319.152344 179.78125 348.199219 176.769531 340.136719 145.464844 L 303.109375 142.914062 L 288.144531 142.183594 " fill-opacity="1" fill-rule="nonzero"></path><path fill="#ffffff" d="M 342.316406 117.214844 C 335.824219 106.261719 328.953125 103.707031 325.753906 102.8125 C 322.554688 101.914062 317.738281 102.210938 312.148438 102.308594 C 306.5625 102.40625 299.996094 103.085938 297.613281 104.941406 C 294.585938 107.292969 291.488281 110.410156 289.773438 118.425781 L 290.136719 120.015625 L 326.085938 125.285156 L 329.058594 124.1875 L 342.316406 117.214844 " fill-opacity="1" fill-rule="nonzero"></path><path fill="#000000" d="M 328.703125 124.679688 C 328.605469 124.679688 328.511719 124.628906 328.460938 124.535156 C 328.390625 124.402344 328.441406 124.238281 328.574219 124.167969 L 341.933594 117.105469 C 337.398438 109.546875 331.929688 104.828125 325.679688 103.074219 C 323.023438 102.328125 319.183594 102.417969 314.734375 102.523438 C 313.894531 102.542969 313.035156 102.566406 312.152344 102.582031 C 308.054688 102.652344 300.726562 103.082031 297.675781 105.164062 C 294.398438 107.402344 291.882812 110.457031 290.246094 118.097656 C 290.214844 118.242188 290.070312 118.339844 289.921875 118.304688 C 289.773438 118.273438 289.679688 118.128906 289.710938 117.980469 C 291.386719 110.164062 293.984375 107.023438 297.367188 104.714844 C 300.375 102.660156 307.0625 102.125 312.144531 102.035156 C 313.023438 102.019531 313.882812 102 314.722656 101.976562 C 319.214844 101.871094 323.09375 101.78125 325.828125 102.546875 C 332.285156 104.359375 337.910156 109.246094 342.550781 117.074219 C 342.589844 117.140625 342.601562 117.214844 342.582031 117.289062 C 342.558594 117.359375 342.511719 117.421875 342.445312 117.457031 L 328.832031 124.648438 C 328.789062 124.671875 328.746094 124.679688 328.703125 124.679688 " fill-opacity="1" fill-rule="nonzero"></path><path fill="#ffffff" d="M 337.777344 153.257812 L 325.753906 103.925781 C 325.753906 103.925781 305.707031 103.515625 298.664062 105.109375 C 298.664062 105.109375 297.324219 134.433594 296.960938 141.464844 L 337.777344 153.257812 " fill-opacity="1" fill-rule="nonzero"></path><path fill="#ffffff" d="M 285.667969 140.230469 C 285.667969 140.230469 287.28125 130.742188 289.84375 121.746094 C 289.953125 121.363281 290.175781 120.59375 290.175781 120.59375 L 298.105469 122.761719 L 298.070312 123.773438 L 297.523438 140.230469 L 285.667969 140.230469 " fill-opacity="1" fill-rule="nonzero"></path><path fill="#000000" d="M 285.992188 139.957031 L 297.257812 139.957031 L 297.824219 122.96875 L 290.363281 120.929688 C 290.289062 121.1875 290.171875 121.582031 290.105469 121.824219 C 287.839844 129.78125 286.296875 138.230469 285.992188 139.957031 Z M 297.523438 140.503906 L 285.667969 140.503906 C 285.585938 140.503906 285.511719 140.46875 285.457031 140.40625 C 285.40625 140.34375 285.386719 140.265625 285.398438 140.1875 C 285.414062 140.089844 287.046875 130.578125 289.578125 121.675781 C 289.691406 121.289062 289.914062 120.519531 289.914062 120.519531 C 289.957031 120.375 290.105469 120.292969 290.25 120.332031 L 298.175781 122.5 C 298.296875 122.535156 298.382812 122.648438 298.378906 122.773438 L 297.792969 140.242188 C 297.789062 140.386719 297.667969 140.503906 297.523438 140.503906 " fill-opacity="1" fill-rule="nonzero"></path><path fill="#ffffff" d="M 300.539062 138.324219 C 300.539062 138.324219 306.519531 128.0625 314.691406 131.097656 C 322.863281 134.136719 334.511719 141.429688 334.511719 141.429688 C 334.511719 141.429688 331.53125 133.328125 329.097656 124.609375 C 329.039062 124.390625 328.917969 123.957031 328.917969 123.957031 L 341.617188 118.375 C 341.617188 118.375 341.777344 118.632812 341.859375 118.761719 C 343.792969 121.902344 345.589844 125.726562 347.019531 130.359375 C 353.539062 151.453125 343.820312 158.621094 336.921875 158.742188 C 330.027344 158.867188 312.742188 140.644531 310.015625 140.652344 L 300.539062 138.324219 " fill-opacity="1" fill-rule="nonzero"></path><path fill="#000000" d="M 310.050781 140.378906 C 311.164062 140.425781 313.8125 142.605469 318.355469 146.425781 C 324.441406 151.539062 332.761719 158.546875 336.917969 158.46875 C 340.394531 158.410156 343.761719 156.589844 345.917969 153.609375 C 348.476562 150.074219 350.699219 143.1875 346.761719 130.441406 C 345.449219 126.1875 343.71875 122.304688 341.625 118.90625 C 341.59375 118.855469 341.550781 118.785156 341.507812 118.71875 L 329.246094 124.113281 L 329.363281 124.535156 C 331.765625 133.144531 334.738281 141.253906 334.765625 141.335938 C 334.808594 141.445312 334.773438 141.570312 334.683594 141.640625 C 334.59375 141.714844 334.464844 141.722656 334.367188 141.660156 C 334.25 141.589844 322.648438 134.347656 314.59375 131.355469 C 307.539062 128.730469 302.054688 136.472656 300.96875 138.148438 Z M 336.851562 159.015625 C 332.484375 159.015625 324.460938 152.269531 318.007812 146.84375 C 314.382812 143.800781 310.964844 140.925781 310.015625 140.925781 C 309.992188 140.925781 309.972656 140.921875 309.949219 140.917969 L 300.472656 138.589844 C 300.386719 138.570312 300.320312 138.511719 300.285156 138.429688 C 300.253906 138.351562 300.257812 138.261719 300.300781 138.1875 C 300.363281 138.082031 306.496094 127.761719 314.785156 130.84375 C 321.773438 133.4375 331.394531 139.199219 333.988281 140.789062 C 333.203125 138.59375 330.824219 131.808594 328.835938 124.683594 L 328.65625 124.03125 C 328.617188 123.898438 328.683594 123.761719 328.808594 123.707031 L 341.507812 118.125 C 341.628906 118.070312 341.773438 118.113281 341.847656 118.230469 C 341.847656 118.230469 342.007812 118.488281 342.089844 118.621094 C 344.207031 122.058594 345.953125 125.984375 347.28125 130.28125 C 351.285156 143.242188 348.992188 150.296875 346.363281 153.929688 C 344.101562 157.046875 340.578125 158.949219 336.929688 159.015625 C 336.902344 159.015625 336.878906 159.015625 336.851562 159.015625 " fill-opacity="1" fill-rule="nonzero"></path><path fill="#000000" d="M 307.882812 139.449219 C 307.855469 139.449219 307.824219 139.445312 307.792969 139.433594 C 307.652344 139.386719 307.578125 139.230469 307.625 139.085938 C 308.195312 137.445312 309.488281 136.042969 311.078125 135.34375 C 311.214844 135.285156 311.375 135.347656 311.4375 135.484375 C 311.496094 135.621094 311.4375 135.785156 311.296875 135.84375 C 309.84375 136.484375 308.664062 137.765625 308.140625 139.269531 C 308.101562 139.378906 307.996094 139.449219 307.882812 139.449219 " fill-opacity="1" fill-rule="nonzero"></path><path fill="#000000" d="M 304.90625 138.851562 C 304.878906 138.851562 304.855469 138.847656 304.828125 138.839844 C 304.683594 138.796875 304.601562 138.644531 304.644531 138.5 C 305.238281 136.515625 306.707031 134.800781 308.582031 133.921875 C 308.71875 133.855469 308.878906 133.914062 308.945312 134.050781 C 309.007812 134.1875 308.949219 134.351562 308.8125 134.414062 C 307.078125 135.230469 305.714844 136.816406 305.167969 138.65625 C 305.132812 138.773438 305.023438 138.851562 304.90625 138.851562 " fill-opacity="1" fill-rule="nonzero"></path><path fill="#000000" d="M 310.929688 142.574219 L 310.929688 140.9375 C 310.929688 139.496094 309.761719 138.324219 308.320312 138.324219 L 297.523438 138.324219 L 310.929688 142.574219 " fill-opacity="1" fill-rule="nonzero"></path><path fill="#ffffff" d="M 329.84375 127.464844 L 343.511719 120.664062 C 343.867188 120.488281 343.992188 120.046875 343.792969 119.707031 L 342.316406 116.542969 C 342.136719 116.234375 341.75 116.121094 341.433594 116.28125 L 328.148438 122.753906 C 327.816406 122.917969 327.675781 123.320312 327.835938 123.652344 L 328.925781 127.144531 C 329.089844 127.492188 329.503906 127.636719 329.84375 127.464844 " fill-opacity="1" fill-rule="nonzero"></path><path fill="#000000" d="M 329.179688 127.042969 C 329.230469 127.136719 329.308594 127.207031 329.40625 127.238281 C 329.511719 127.277344 329.625 127.269531 329.722656 127.21875 L 343.390625 120.417969 C 343.492188 120.367188 343.566406 120.28125 343.597656 120.171875 C 343.632812 120.0625 343.617188 119.945312 343.558594 119.847656 L 342.070312 116.660156 C 341.976562 116.5 341.742188 116.429688 341.554688 116.523438 L 328.269531 123 C 328.070312 123.097656 327.988281 123.339844 328.082031 123.539062 C 328.085938 123.550781 328.089844 123.5625 328.09375 123.574219 Z M 329.542969 127.808594 C 329.4375 127.808594 329.332031 127.789062 329.230469 127.757812 C 328.984375 127.671875 328.789062 127.496094 328.679688 127.261719 C 328.675781 127.25 328.667969 127.238281 328.667969 127.226562 L 327.578125 123.75 C 327.375 123.289062 327.570312 122.734375 328.027344 122.511719 L 341.3125 116.035156 C 341.753906 115.816406 342.300781 115.976562 342.550781 116.402344 L 344.039062 119.59375 C 344.164062 119.796875 344.195312 120.070312 344.121094 120.324219 C 344.046875 120.578125 343.871094 120.789062 343.636719 120.90625 L 329.964844 127.707031 C 329.832031 127.773438 329.6875 127.808594 329.542969 127.808594 " fill-opacity="1" fill-rule="nonzero"></path><path fill="#ffffff" d="M 288.632812 122.949219 L 297.839844 125.375 C 298.070312 125.429688 298.242188 125.328125 298.324219 124.945312 L 298.523438 120.988281 C 298.597656 120.640625 298.496094 120.332031 298.285156 120.277344 L 289.9375 118.117188 C 289.722656 118.0625 289.46875 118.300781 289.371094 118.660156 L 288.40625 122.175781 C 288.304688 122.542969 288.410156 122.890625 288.632812 122.949219 " fill-opacity="1" fill-rule="nonzero"></path><path fill="#000000" d="M 288.699219 122.683594 C 288.699219 122.683594 288.699219 122.683594 288.703125 122.683594 L 297.910156 125.109375 C 297.945312 125.117188 297.964844 125.113281 297.964844 125.113281 C 297.964844 125.113281 298.015625 125.082031 298.054688 124.90625 L 298.25 120.972656 C 298.25 120.960938 298.253906 120.945312 298.253906 120.929688 C 298.304688 120.707031 298.246094 120.5625 298.210938 120.539062 L 289.867188 118.382812 C 289.832031 118.386719 289.695312 118.496094 289.632812 118.730469 L 288.667969 122.246094 C 288.601562 122.492188 288.667969 122.660156 288.703125 122.683594 Z M 297.953125 125.664062 C 297.894531 125.664062 297.835938 125.65625 297.773438 125.640625 L 288.566406 123.210938 C 288.417969 123.175781 288.296875 123.082031 288.210938 122.9375 C 288.085938 122.71875 288.058594 122.40625 288.144531 122.101562 L 289.105469 118.589844 C 289.246094 118.074219 289.632812 117.757812 290.007812 117.851562 L 298.355469 120.011719 C 298.707031 120.105469 298.890625 120.527344 298.792969 121.023438 L 298.597656 124.957031 C 298.597656 124.972656 298.597656 124.984375 298.59375 125 C 298.53125 125.285156 298.421875 125.472656 298.253906 125.578125 C 298.164062 125.632812 298.0625 125.664062 297.953125 125.664062 " fill-opacity="1" fill-rule="nonzero"></path><path fill="#000000" d="M 256.589844 142.574219 L 310.929688 142.574219 L 310.929688 140.9375 C 310.929688 139.496094 309.761719 138.324219 308.320312 138.324219 L 252.769531 138.324219 L 253.214844 139.984375 C 253.625 141.511719 255.007812 142.574219 256.589844 142.574219 " fill-opacity="1" fill-rule="nonzero"></path><path fill="#000000" d="M 255.039062 140.652344 L 287.824219 140.652344 C 289.222656 140.652344 290.25 139.335938 289.914062 137.972656 L 283.71875 112.9375 C 283.480469 111.976562 282.617188 111.300781 281.628906 111.300781 L 248.84375 111.300781 C 247.441406 111.300781 246.414062 112.617188 246.753906 113.976562 L 252.949219 139.011719 C 253.1875 139.976562 254.050781 140.652344 255.039062 140.652344 " fill-opacity="1" fill-rule="nonzero"></path><path fill="#1b4200" d="M 265.085938 120.960938 C 265.085938 121.558594 265.570312 122.042969 266.167969 122.042969 C 266.765625 122.042969 267.25 121.558594 267.25 120.960938 C 267.25 120.359375 266.765625 119.875 266.167969 119.875 C 265.570312 119.875 265.085938 120.359375 265.085938 120.960938 " fill-opacity="1" fill-rule="nonzero"></path><path fill="#ffffff" d="M 312.898438 90.40625 L 318.207031 102.664062 C 318.207031 102.664062 315.910156 106.953125 309.257812 107.671875 C 302.964844 108.351562 307.882812 103.195312 307.882812 103.195312 L 304.855469 94.511719 L 312.898438 90.40625 " fill-opacity="1" fill-rule="nonzero"></path><path fill="#000000" d="M 305.1875 94.644531 L 308.140625 103.105469 C 308.175781 103.199219 308.152344 103.308594 308.078125 103.382812 C 307.460938 104.03125 305.953125 105.917969 306.410156 106.839844 C 306.671875 107.378906 307.648438 107.570312 309.230469 107.398438 C 315.054688 106.769531 317.484375 103.308594 317.898438 102.644531 L 312.761719 90.78125 Z M 308.210938 108.007812 C 306.976562 108.007812 306.222656 107.699219 305.917969 107.082031 C 305.28125 105.785156 307.050781 103.699219 307.570312 103.128906 L 304.59375 94.601562 C 304.550781 94.472656 304.609375 94.328125 304.730469 94.265625 L 312.773438 90.164062 C 312.839844 90.128906 312.917969 90.125 312.992188 90.148438 C 313.0625 90.175781 313.121094 90.230469 313.148438 90.296875 L 318.457031 102.554688 C 318.488281 102.632812 318.484375 102.71875 318.445312 102.792969 C 318.351562 102.976562 316.007812 107.21875 309.289062 107.941406 C 308.894531 107.984375 308.535156 108.007812 308.210938 108.007812 " fill-opacity="1" fill-rule="nonzero"></path><path fill="#000000" d="M 319.769531 85.097656 C 320.476562 83.621094 321.078125 82.011719 320.875 80.390625 C 320.671875 78.769531 319.417969 77.175781 317.785156 77.113281 C 318.050781 75.199219 317.109375 73.167969 315.46875 72.140625 C 313.832031 71.113281 311.59375 71.144531 309.988281 72.214844 C 307.9375 70.265625 304.574219 69.988281 302.097656 71.363281 C 299.625 72.738281 298.105469 75.558594 298.050781 78.390625 C 298.03125 79.605469 298.269531 80.863281 298.964844 81.859375 C 299.941406 83.257812 301.6875 83.949219 303.386719 84.054688 C 304.355469 84.117188 305.445312 84.050781 306.160156 84.707031 C 306.601562 85.113281 306.796875 85.714844 307.042969 86.265625 C 307.910156 88.210938 309.621094 89.761719 311.640625 90.429688 C 313.285156 90.976562 316.054688 91.132812 317.523438 89.988281 C 318.09375 89.542969 318.136719 88.792969 318.371094 88.140625 C 318.753906 87.089844 319.292969 86.105469 319.769531 85.097656 " fill-opacity="1" fill-rule="nonzero"></path><path fill="#ffffff" d="M 301.261719 87.941406 C 300.742188 90.671875 300.753906 93.726562 302.425781 95.941406 C 303.878906 97.875 306.527344 98.824219 308.875 98.253906 C 311.226562 97.6875 313.148438 95.632812 313.5625 93.253906 C 315.816406 93.019531 317.820312 91.210938 318.28125 88.988281 C 318.453125 88.15625 318.347656 87.128906 317.613281 86.691406 C 316.78125 86.1875 315.738281 86.746094 314.878906 87.207031 C 314.019531 87.664062 313.410156 88.398438 312.855469 87.59375 C 312.992188 85.425781 314.292969 81.636719 311.054688 80.871094 C 309.847656 80.585938 303.199219 80.074219 303.199219 80.074219 C 303.199219 80.074219 301.539062 86.472656 301.261719 87.941406 " fill-opacity="1" fill-rule="nonzero"></path><path fill="#000000" d="M 301.261719 87.941406 L 301.265625 87.941406 Z M 303.40625 80.363281 C 303.113281 81.503906 301.777344 86.703125 301.53125 87.992188 C 300.890625 91.335938 301.265625 93.953125 302.644531 95.78125 C 304.03125 97.621094 306.570312 98.53125 308.8125 97.988281 C 311.054688 97.445312 312.898438 95.480469 313.292969 93.207031 C 313.3125 93.085938 313.410156 92.992188 313.53125 92.980469 C 315.652344 92.761719 317.578125 91.019531 318.011719 88.933594 C 318.15625 88.242188 318.101562 87.300781 317.476562 86.925781 C 316.773438 86.5 315.835938 87.003906 315.011719 87.445312 C 314.824219 87.542969 314.652344 87.65625 314.488281 87.765625 C 313.917969 88.132812 313.210938 88.589844 312.632812 87.75 C 312.597656 87.699219 312.582031 87.640625 312.585938 87.578125 C 312.609375 87.167969 312.675781 86.707031 312.746094 86.214844 C 313.046875 84.101562 313.390625 81.703125 310.992188 81.136719 C 309.941406 80.886719 304.582031 80.457031 303.40625 80.363281 Z M 307.496094 98.691406 C 305.46875 98.691406 303.429688 97.730469 302.207031 96.109375 C 300.734375 94.152344 300.328125 91.390625 300.992188 87.890625 C 301.273438 86.429688 302.867188 80.265625 302.933594 80.003906 C 302.96875 79.875 303.089844 79.792969 303.21875 79.800781 C 303.492188 79.820312 309.902344 80.316406 311.117188 80.605469 C 314 81.285156 313.585938 84.179688 313.285156 86.292969 C 313.222656 86.730469 313.164062 87.148438 313.136719 87.515625 C 313.363281 87.796875 313.566406 87.710938 314.1875 87.308594 C 314.367188 87.191406 314.546875 87.074219 314.75 86.964844 C 315.660156 86.480469 316.789062 85.875 317.753906 86.457031 C 318.628906 86.980469 318.738281 88.140625 318.546875 89.046875 C 318.074219 91.328125 316.09375 93.167969 313.792969 93.5 C 313.292969 95.894531 311.324219 97.945312 308.941406 98.519531 C 308.46875 98.632812 307.980469 98.691406 307.496094 98.691406 " fill-opacity="1" fill-rule="nonzero"></path><path fill="#000000" d="M 314.179688 90.570312 C 314.125 90.570312 314.070312 90.554688 314.023438 90.519531 C 313.898438 90.429688 313.871094 90.261719 313.960938 90.136719 C 314.480469 89.410156 315.359375 88.953125 316.253906 88.945312 C 316.394531 88.949219 316.53125 89.066406 316.53125 89.21875 C 316.53125 89.367188 316.410156 89.492188 316.257812 89.492188 C 315.535156 89.496094 314.824219 89.867188 314.402344 90.453125 C 314.351562 90.527344 314.265625 90.570312 314.179688 90.570312 " fill-opacity="1" fill-rule="nonzero"></path><path fill="#ffffff" d="M 303.769531 87.300781 C 303.640625 88.585938 302.574219 89.523438 301.394531 89.402344 C 300.210938 89.285156 299.359375 88.148438 299.492188 86.867188 C 299.621094 85.585938 300.683594 84.644531 301.867188 84.765625 C 303.046875 84.882812 303.898438 86.019531 303.769531 87.300781 " fill-opacity="1" fill-rule="nonzero"></path><path fill="#000000" d="M 301.664062 85.027344 C 301.230469 85.027344 300.808594 85.191406 300.464844 85.492188 C 300.070312 85.847656 299.820312 86.34375 299.761719 86.894531 C 299.648438 88.023438 300.390625 89.027344 301.421875 89.132812 C 302.449219 89.234375 303.382812 88.402344 303.496094 87.273438 C 303.613281 86.144531 302.867188 85.140625 301.839844 85.035156 C 301.777344 85.03125 301.722656 85.027344 301.664062 85.027344 Z M 301.597656 89.6875 C 301.519531 89.6875 301.441406 89.683594 301.367188 89.675781 C 300.035156 89.539062 299.074219 88.269531 299.21875 86.839844 C 299.289062 86.148438 299.601562 85.527344 300.101562 85.085938 C 300.609375 84.636719 301.25 84.425781 301.894531 84.492188 C 303.222656 84.628906 304.1875 85.902344 304.039062 87.328125 C 303.902344 88.675781 302.832031 89.6875 301.597656 89.6875 " fill-opacity="1" fill-rule="nonzero"></path><path fill="#000000" d="M 307.917969 85.664062 C 307.484375 85.664062 307.066406 85.828125 306.71875 86.132812 C 306.324219 86.484375 306.074219 86.980469 306.015625 87.53125 C 305.960938 88.082031 306.105469 88.621094 306.421875 89.042969 C 306.738281 89.460938 307.183594 89.71875 307.675781 89.769531 C 308.167969 89.820312 308.65625 89.660156 309.046875 89.3125 C 309.445312 88.960938 309.695312 88.464844 309.753906 87.914062 C 309.867188 86.78125 309.125 85.777344 308.09375 85.671875 C 308.035156 85.667969 307.976562 85.664062 307.917969 85.664062 Z M 307.855469 90.324219 C 307.777344 90.324219 307.699219 90.320312 307.621094 90.3125 C 306.972656 90.246094 306.390625 89.914062 305.984375 89.371094 C 305.585938 88.839844 305.402344 88.164062 305.472656 87.476562 C 305.542969 86.789062 305.859375 86.164062 306.359375 85.722656 C 306.867188 85.273438 307.5 85.0625 308.148438 85.128906 C 309.476562 85.265625 310.441406 86.539062 310.296875 87.96875 C 310.226562 88.65625 309.910156 89.277344 309.410156 89.722656 C 308.964844 90.117188 308.421875 90.324219 307.855469 90.324219 " fill-opacity="1" fill-rule="nonzero"></path><path fill="#000000" d="M 305.746094 87.777344 C 305.664062 87.777344 305.578125 87.738281 305.527344 87.664062 C 305.265625 87.316406 304.996094 87.132812 304.722656 87.121094 C 304.308594 87.101562 303.980469 87.476562 303.976562 87.480469 C 303.878906 87.59375 303.707031 87.609375 303.589844 87.507812 C 303.476562 87.410156 303.464844 87.242188 303.5625 87.125 C 303.582031 87.101562 304.050781 86.558594 304.738281 86.574219 C 305.1875 86.589844 305.601562 86.847656 305.964844 87.34375 C 306.054688 87.464844 306.027344 87.632812 305.90625 87.722656 C 305.859375 87.761719 305.800781 87.777344 305.746094 87.777344 " fill-opacity="1" fill-rule="nonzero"></path><path fill="#000000" d="M 310.023438 88.210938 C 309.894531 88.210938 309.78125 88.125 309.757812 87.996094 C 309.726562 87.847656 309.820312 87.703125 309.96875 87.671875 L 313.828125 86.886719 C 313.976562 86.855469 314.121094 86.949219 314.148438 87.097656 C 314.179688 87.246094 314.085938 87.390625 313.9375 87.421875 L 310.078125 88.207031 C 310.058594 88.210938 310.042969 88.210938 310.023438 88.210938 " fill-opacity="1" fill-rule="nonzero"></path><path fill="#1b4200" d="M 226.648438 126.015625 C 230.042969 134.007812 226.3125 143.234375 218.3125 146.628906 C 210.3125 150.019531 201.078125 146.292969 197.683594 138.296875 C 194.289062 130.308594 198.019531 121.078125 206.019531 117.6875 C 214.015625 114.292969 223.253906 118.023438 226.648438 126.015625 " fill-opacity="1" fill-rule="nonzero"></path><path fill="#ffffff" d="M 212.148438 120.070312 C 210.574219 120.070312 208.976562 120.378906 207.4375 121.03125 C 204.464844 122.292969 202.160156 124.636719 200.949219 127.628906 C 199.738281 130.621094 199.765625 133.90625 201.03125 136.878906 C 203.636719 143.015625 210.753906 145.886719 216.890625 143.28125 C 219.867188 142.023438 222.171875 139.679688 223.382812 136.683594 C 224.59375 133.691406 224.5625 130.40625 223.300781 127.433594 C 221.347656 122.835938 216.859375 120.070312 212.148438 120.070312 Z M 212.183594 144.789062 C 207.257812 144.789062 202.570312 141.898438 200.527344 137.09375 C 199.207031 133.988281 199.175781 130.550781 200.441406 127.421875 C 201.707031 124.296875 204.117188 121.847656 207.226562 120.527344 C 213.644531 117.808594 221.078125 120.808594 223.804688 127.222656 C 225.121094 130.328125 225.152344 133.761719 223.886719 136.890625 C 222.621094 140.019531 220.214844 142.46875 217.105469 143.785156 C 215.5 144.46875 213.828125 144.789062 212.183594 144.789062 " fill-opacity="1" fill-rule="nonzero"></path><path fill="#ffffff" d="M 214.859375 140.308594 L 214.035156 138.371094 C 212.914062 138.824219 211.613281 138.96875 210.738281 138.773438 L 210.652344 137.292969 C 211.539062 137.457031 212.695312 137.402344 213.769531 136.945312 C 215.132812 136.367188 215.71875 135.1875 215.253906 134.09375 C 214.804688 133.042969 213.78125 132.707031 212.117188 132.734375 C 209.832031 132.796875 208.246094 132.425781 207.539062 130.757812 C 206.863281 129.164062 207.480469 127.476562 209.125 126.441406 L 208.300781 124.503906 L 209.492188 123.996094 L 210.28125 125.859375 C 211.449219 125.40625 212.367188 125.378906 213.066406 125.472656 L 213.121094 126.941406 C 212.621094 126.882812 211.652344 126.792969 210.425781 127.316406 C 208.945312 127.941406 208.765625 129.058594 209.089844 129.828125 C 209.515625 130.824219 210.4375 131.023438 212.402344 131.003906 C 214.71875 130.972656 216.140625 131.546875 216.867188 133.253906 C 217.511719 134.769531 217.058594 136.636719 215.21875 137.800781 L 216.066406 139.796875 L 214.859375 140.308594 " fill-opacity="1" fill-rule="nonzero"></path><path fill="#1b4200" d="M 193.132812 110.113281 C 190.75 116.902344 183.3125 120.484375 176.511719 118.105469 C 169.710938 115.726562 166.128906 108.292969 168.507812 101.5 C 170.886719 94.707031 178.328125 91.128906 185.128906 93.503906 C 191.925781 95.882812 195.511719 103.316406 193.132812 110.113281 " fill-opacity="1" fill-rule="nonzero"></path><path fill="#ffffff" d="M 190.5 109.191406 Z M 180.828125 95.832031 C 176.703125 95.832031 172.835938 98.410156 171.398438 102.511719 C 170.519531 105.027344 170.671875 107.730469 171.828125 110.132812 C 172.984375 112.53125 175.007812 114.339844 177.523438 115.21875 C 182.71875 117.035156 188.421875 114.289062 190.242188 109.101562 C 191.121094 106.585938 190.96875 103.878906 189.8125 101.480469 C 188.65625 99.078125 186.632812 97.273438 184.117188 96.394531 C 183.03125 96.011719 181.921875 95.832031 180.828125 95.832031 Z M 180.8125 116.324219 C 179.660156 116.324219 178.488281 116.132812 177.34375 115.734375 C 174.6875 114.804688 172.554688 112.898438 171.335938 110.367188 C 170.117188 107.835938 169.953125 104.984375 170.882812 102.332031 C 172.800781 96.859375 178.820312 93.960938 184.296875 95.878906 C 186.953125 96.808594 189.085938 98.710938 190.304688 101.242188 C 191.527344 103.773438 191.6875 106.628906 190.757812 109.28125 C 189.242188 113.609375 185.160156 116.324219 180.8125 116.324219 " fill-opacity="1" fill-rule="nonzero"></path><path fill="#ffffff" d="M 177.972656 112.1875 L 178.539062 110.570312 C 177.617188 110.230469 176.753906 109.605469 176.335938 109.007812 L 177.09375 108.070312 C 177.535156 108.65625 178.265625 109.25 179.160156 109.566406 C 180.296875 109.964844 181.296875 109.574219 181.617188 108.664062 C 181.925781 107.78125 181.492188 107.019531 180.472656 106.125 C 179.0625 104.914062 178.3125 103.824219 178.800781 102.429688 C 179.265625 101.101562 180.566406 100.425781 182.125 100.699219 L 182.6875 99.082031 L 183.683594 99.429688 L 183.140625 100.984375 C 184.089844 101.351562 184.65625 101.835938 185.027344 102.269531 L 184.253906 103.1875 C 183.984375 102.878906 183.453125 102.296875 182.425781 101.9375 C 181.191406 101.507812 180.472656 102.082031 180.246094 102.722656 C 179.953125 103.554688 180.402344 104.175781 181.59375 105.242188 C 183.007812 106.492188 183.550781 107.613281 183.050781 109.039062 C 182.605469 110.304688 181.3125 111.179688 179.566406 110.875 L 178.984375 112.539062 L 177.972656 112.1875 " fill-opacity="1" fill-rule="nonzero"></path><path fill="#1b4200" d="M 159.910156 96.117188 C 160.46875 101.941406 156.203125 107.121094 150.375 107.6875 C 144.546875 108.25 139.367188 103.988281 138.804688 98.164062 C 138.246094 92.339844 142.511719 87.160156 148.339844 86.59375 C 154.167969 86.03125 159.347656 90.292969 159.910156 96.117188 " fill-opacity="1" fill-rule="nonzero"></path><path fill="#ffffff" d="M 149.378906 89.082031 C 149.113281 89.082031 148.851562 89.097656 148.585938 89.121094 C 144.160156 89.550781 140.90625 93.496094 141.332031 97.917969 C 141.539062 100.058594 142.566406 101.992188 144.230469 103.359375 C 145.890625 104.730469 147.988281 105.367188 150.128906 105.160156 C 154.554688 104.730469 157.808594 100.785156 157.382812 96.363281 C 157.175781 94.222656 156.148438 92.289062 154.484375 90.917969 C 153.03125 89.722656 151.242188 89.082031 149.378906 89.082031 Z M 149.335938 105.746094 C 147.347656 105.746094 145.4375 105.0625 143.882812 103.78125 C 142.109375 102.320312 141.007812 100.257812 140.789062 97.96875 C 140.335938 93.25 143.808594 89.035156 148.53125 88.578125 C 150.824219 88.355469 153.058594 89.039062 154.832031 90.5 C 156.605469 91.960938 157.707031 94.023438 157.925781 96.308594 C 158.378906 101.03125 154.90625 105.246094 150.183594 105.703125 C 149.898438 105.730469 149.617188 105.746094 149.335938 105.746094 " fill-opacity="1" fill-rule="nonzero"></path><path fill="#ffffff" d="M 149.433594 102.820312 L 149.300781 101.433594 C 148.5 101.496094 147.652344 101.328125 147.140625 101.03125 L 147.382812 100.082031 C 147.90625 100.363281 148.648438 100.554688 149.414062 100.480469 C 150.390625 100.386719 150.996094 99.757812 150.921875 98.976562 C 150.847656 98.222656 150.265625 97.808594 149.210938 97.492188 C 147.757812 97.082031 146.832031 96.535156 146.714844 95.339844 C 146.605469 94.199219 147.335938 93.257812 148.578125 92.929688 L 148.441406 91.542969 L 149.296875 91.460938 L 149.421875 92.789062 C 150.25 92.738281 150.835938 92.902344 151.253906 93.097656 L 151 94.039062 C 150.695312 93.902344 150.101562 93.652344 149.222656 93.738281 C 148.167969 93.839844 147.828125 94.511719 147.882812 95.058594 C 147.949219 95.773438 148.492188 96.082031 149.734375 96.460938 C 151.207031 96.898438 151.988281 97.542969 152.105469 98.765625 C 152.210938 99.847656 151.554688 100.9375 150.160156 101.308594 L 150.296875 102.734375 L 149.433594 102.820312 " fill-opacity="1" fill-rule="nonzero"></path></svg>